<?xml version="1.0" standalone="no"?>
<!DOCTYPE svg PUBLIC "-//W3C//DTD SVG 1.1//EN" "http://www.w3.org/Graphics/SVG/1.1/DTD/svg11.dtd" >
<svg xmlns="http://www.w3.org/2000/svg" xmlns:xlink="http://www.w3.org/1999/xlink" version="1.1">
<metadata>
Created by FontForge 20170731 at Wed Sep 14 19:42:18 2022
 By Aleksey,,,
Copyright (c) 2018 Paratype, Inc., ParaType Ltd. All rights reserved.
</metadata>
<defs>
<font id="PTRootUI-Regular" horiz-adv-x="590" >
  <font-face 
    font-family="PT Root UI"
    font-weight="400"
    font-stretch="normal"
    units-per-em="1000"
    panose-1="2 11 3 3 2 2 2 2 2 4"
    ascent="800"
    descent="-200"
    x-height="500"
    cap-height="700"
    bbox="-390 -266 2500 990"
    underline-thickness="50"
    underline-position="-150"
    unicode-range="U+000D-FEFF"
  />
<missing-glyph horiz-adv-x="650" 
d="M80 700h490v-700h-490v700zM325 406l147 244h-293zM514 92v517l-156 -258zM136 91l156 258l-156 259v-517zM471 50l-146 244l-147 -244h293z" />
    <glyph glyph-name="IJ" unicode="IJ" horiz-adv-x="800" 
d="M100 700h70v-700h-70v700zM505 -7q-92 0 -147 56t-63 161h70q8 -80 42.5 -116.5t97.5 -36.5q52 0 80 21.5t41.5 51.5t16 63t2.5 57v450h70v-455q0 -13 -1 -37t-7 -52t-19 -57t-36 -52.5t-59 -38.5t-88 -15z" />
    <glyph glyph-name="ij" unicode="ij" horiz-adv-x="492" 
d="M95 500h66v-500h-66v500zM227 -140h24q30 0 46 11t23.5 26.5t9 34t1.5 33.5v535h66v-540q0 -21 -2.5 -48.5t-16 -52t-43.5 -42t-84 -17.5h-24v60zM364 588q-20 0 -33.5 13.5t-13.5 33.5t13.5 33.5t33.5 13.5t33.5 -13.5t13.5 -33.5t-13.5 -33.5t-33.5 -13.5zM128 588
q-20 0 -33.5 13.5t-13.5 33.5t13.5 33.5t33.5 13.5t33.5 -13.5t13.5 -33.5t-13.5 -33.5t-33.5 -13.5z" />
    <glyph glyph-name="uni0410.var.accented" unicode="&#x410;`" horiz-adv-x="660" 
d="M290 700h80l260 -700h-76l-73 203h-306l-73 -203h-72zM458 267l-128 358h-2l-130 -358h260zM406 915h88l-138 -150h-72z" />
    <glyph glyph-name="uni0415.var.accented" unicode="&#x415;`" horiz-adv-x="560" 
d="M90 700h420v-64h-350v-244h290v-64h-290v-264h350v-64h-420v700zM376 915h88l-138 -150h-72z" />
    <glyph glyph-name="uni0418.var.accented" unicode="&#x418;`" horiz-adv-x="710" 
d="M90 700h70v-620h2l358 620h100v-700h-70v620h-2l-358 -620h-100v700zM431 915h88l-138 -150h-72z" />
    <glyph glyph-name="uni041E.var.accented" unicode="&#x41e;`" horiz-adv-x="710" 
d="M355 -7q-65 0 -118 22t-91.5 64.5t-59.5 105t-21 143.5v54q0 77 21.5 137.5t59.5 102t91.5 63.5t117.5 22t117.5 -21.5t92 -63t59.5 -102t21 -138.5v-54q0 -81 -21.5 -143.5t-59.5 -105t-91.5 -64.5t-117.5 -22zM355 57q48 0 88 17t69 51t45 84.5t16 118.5v54
q0 63 -16.5 111.5t-45.5 82t-69 50.5t-87 17q-48 0 -88 -17t-69 -50t-45 -81.5t-16 -112.5v-54q0 -67 16.5 -117.5t45.5 -84.5t69 -51.5t87 -17.5zM431 915h88l-138 -150h-72z" />
    <glyph glyph-name="uni0423.var.accented" unicode="&#x423;`" horiz-adv-x="610" 
d="M286 200l-256 500h80l212 -420h2l180 420h76l-305 -700h-76zM383 915h88l-138 -150h-72z" />
    <glyph glyph-name="uni042B.var.accented" unicode="&#x42b;`" horiz-adv-x="830" 
d="M670 700h70v-700h-70v700zM90 700h70v-266h149q123 0 184 -57.5t61 -159.5q0 -103 -60 -160t-185 -57h-219v700zM304 64q94 0 136 39t42 114q0 76 -41.5 114.5t-136.5 38.5h-144v-306h144zM491 915h88l-138 -150h-72z" />
    <glyph glyph-name="uni042D.var.accented" unicode="&#x42d;`" horiz-adv-x="670" 
d="M320 -7q-57 0 -102.5 16.5t-79.5 45.5t-55 68.5t-28 86.5h74q15 -67 62.5 -110t128.5 -43q45 0 84 17t67.5 50.5t45 83.5t16.5 115h-298v64h298q0 61 -16 108.5t-44.5 80.5t-67.5 50t-85 17q-40 0 -72 -11t-56 -30.5t-40 -45.5t-23 -56h-74q7 43 28 80.5t55 65.5
t79.5 44.5t102.5 16.5q62 0 114.5 -22t90.5 -63.5t59 -102t21 -137.5v-54q0 -81 -21 -143.5t-59 -105t-90 -64.5t-115 -22zM396 915h88l-138 -150h-72z" />
    <glyph glyph-name="uni042E.var.accented" unicode="&#x42e;`" horiz-adv-x="915" 
d="M90 700h70v-308h140q0 76 20 135t56.5 99t87 60.5t111.5 20.5t111.5 -21t87 -61.5t56.5 -100t20 -137.5v-54q0 -85 -20 -149t-56.5 -106.5t-87 -63.5t-111.5 -21q-62 0 -112.5 21t-86.5 62.5t-56 104.5t-20 147h-140v-328h-70v700zM575 57q44 0 81 16.5t64 50.5t42.5 86
t15.5 123v54q0 64 -15.5 112t-42.5 80t-64 48t-81 16t-81 -16t-64 -48t-42.5 -80t-15.5 -112v-54q0 -71 15.5 -123t42.5 -86t64 -50.5t81 -16.5zM546 915h88l-138 -150h-72z" />
    <glyph glyph-name="uni042F.var.accented" unicode="&#x42f;`" horiz-adv-x="620" 
d="M460 0v286h-155q-7 0 -13.5 0.5t-12.5 0.5l-159 -287h-80l168 298q-75 20 -111.5 71t-36.5 124q0 95 60.5 151t184.5 56h225v-700h-70zM460 636h-150q-94 0 -136 -38t-42 -105q0 -69 41.5 -106t136.5 -37h150v286zM416 915h88l-138 -150h-72z" />
    <glyph glyph-name="uni0401.var.accented" unicode="&#x401;`" horiz-adv-x="560" 
d="M90 700h420v-64h-350v-244h290v-64h-290v-264h350v-64h-420v700zM302 910h78l-94 -150h-66zM172 788q-20 0 -33.5 13.5t-13.5 33.5t13.5 33.5t33.5 13.5t33.5 -13.5t13.5 -33.5t-13.5 -33.5t-33.5 -13.5zM428 788q-20 0 -33.5 13.5t-13.5 33.5t13.5 33.5t33.5 13.5
t33.5 -13.5t13.5 -33.5t-13.5 -33.5t-33.5 -13.5z" />
    <glyph glyph-name="uni0430.var.accented" unicode="&#x430;`" horiz-adv-x="530" 
d="M215 -7q-83 0 -124 38.5t-41 106.5q0 71 49 113t156 42h129v37q0 60 -29 87.5t-95 27.5q-61 0 -89.5 -21t-32.5 -54h-68q2 27 15 52t36.5 44t58.5 30t80 11q97 0 143.5 -44.5t46.5 -132.5v-330h-52l-8 85h-2q-30 -45 -74.5 -68.5t-98.5 -23.5zM220 55q36 0 66 11.5t52 32
t34 49t12 62.5v27h-124q-77 0 -109.5 -27t-32.5 -72q0 -38 24.5 -60.5t77.5 -22.5zM329 715h86l-130 -150h-70z" />
    <glyph glyph-name="uni0435.var.accented" unicode="&#x435;`" horiz-adv-x="540" 
d="M270 -7q-48 0 -88 16t-68 46.5t-43.5 75t-15.5 102.5v34q0 57 15.5 102t44 75.5t68 46.5t87.5 16t88 -16t68 -47t43.5 -76.5t15.5 -105.5v-30h-362q0 -87 38 -133t109 -46q107 0 142 87h68q-18 -72 -71.5 -109.5t-138.5 -37.5zM270 447q-64 0 -103 -40.5t-44 -118.5h294
q-5 81 -44.5 120t-102.5 39zM339 715h86l-130 -150h-70z" />
    <glyph glyph-name="uni0438.var.accented" unicode="&#x438;`" horiz-adv-x="580" 
d="M85 500h66v-425h2l250 425h92v-500h-66v425h-2l-250 -425h-92v500zM359 715h86l-130 -150h-70z" />
    <glyph glyph-name="uni043E.var.accented" unicode="&#x43e;`" horiz-adv-x="550" 
d="M275 -7q-101 0 -160.5 62t-59.5 178v34q0 57 15.5 102t44.5 75.5t69.5 46.5t90.5 16q101 0 160.5 -62t59.5 -178v-34q0 -57 -15.5 -102t-44.5 -75.5t-69.5 -46.5t-90.5 -16zM275 53q69 0 110.5 45t41.5 135v34q0 89 -42 134.5t-110 45.5q-69 0 -110.5 -45t-41.5 -135v-34
q0 -89 42 -134.5t110 -45.5zM344 715h86l-130 -150h-70z" />
    <glyph glyph-name="uni0443.var.accented" unicode="&#x443;`" horiz-adv-x="520" 
d="M234 0l-209 500h72l171 -418h2l157 418h68l-270 -700h-68zM331 715h86l-130 -150h-70z" />
    <glyph glyph-name="uni044B.var.accented" unicode="&#x44b;`" horiz-adv-x="710" 
d="M559 500h66v-500h-66v500zM85 500h66v-180h114q97 0 143.5 -43t46.5 -117q0 -73 -47 -116.5t-143 -43.5h-180v500zM151 260v-200h109q69 0 98 26t29 74t-29.5 74t-97.5 26h-109zM424 715h86l-130 -150h-70z" />
    <glyph glyph-name="uni044D.var.accented" unicode="&#x44d;`" horiz-adv-x="510" 
d="M245 -7q-44 0 -79 12t-60 33t-40 49.5t-21 62.5h68q11 -45 41.5 -71t90.5 -26q63 0 101 46t41 126h-202v60h202q-3 75 -41 118.5t-101 43.5q-59 0 -90 -25t-42 -62h-68q6 30 21 56.5t40 47t60 32t79 11.5q46 0 85 -16t66.5 -46t43 -73.5t15.5 -99.5v-34q0 -59 -15.5 -105
t-43.5 -77t-66.5 -47t-84.5 -16zM314 715h86l-130 -150h-70z" />
    <glyph glyph-name="uni044E.var.accented" unicode="&#x44e;`" horiz-adv-x="740" 
d="M85 500h66v-215h112q2 52 18 93.5t44 70t66 43.5t83 15q47 0 86 -16t66.5 -46.5t43 -75t15.5 -102.5v-34q0 -57 -15.5 -102t-43.5 -75.5t-67 -46.5t-85 -16q-47 0 -85.5 15.5t-66 45t-43.5 72.5t-16 99h-112v-225h-66v500zM474 53q62 0 102.5 45t40.5 135v34
q0 45 -11 78.5t-30 56t-45 34t-57 11.5q-63 0 -103 -44t-40 -131v-34q0 -93 40.5 -139t102.5 -46zM454 715h86l-130 -150h-70z" />
    <glyph glyph-name="uni044F.var.accented" unicode="&#x44f;`" horiz-adv-x="505" 
d="M157 200q-51 17 -74 53t-23 90q0 75 46.5 116t153.5 41h160v-500h-66v186h-94h-19.5t-18.5 1l-106 -187h-76zM128 343q0 -47 30 -72t107 -25h89v194h-89q-77 0 -107 -25t-30 -72zM339 715h86l-130 -150h-70z" />
    <glyph glyph-name="uni0451.var.accented" unicode="&#x451;`" horiz-adv-x="540" 
d="M270 -7q-48 0 -88 16t-68 46.5t-43.5 75t-15.5 102.5v34q0 57 15.5 102t44 75.5t68 46.5t87.5 16t88 -16t68 -47t43.5 -76.5t15.5 -105.5v-30h-362q0 -87 38 -133t109 -46q107 0 142 87h68q-18 -72 -71.5 -109.5t-138.5 -37.5zM270 447q-64 0 -103 -40.5t-44 -118.5h294
q-5 81 -44.5 120t-102.5 39zM335 810h80l-110 -130h-70zM172 578q-20 0 -33.5 13.5t-13.5 33.5t13.5 33.5t33.5 13.5t33.5 -13.5t13.5 -33.5t-13.5 -33.5t-33.5 -13.5zM368 578q-20 0 -33.5 13.5t-13.5 33.5t13.5 33.5t33.5 13.5t33.5 -13.5t13.5 -33.5t-13.5 -33.5
t-33.5 -13.5z" />
    <glyph glyph-name="ff" unicode="ff" horiz-adv-x="650" 
d="M120 440h-90v60h90v68q0 65 33.5 98.5t98.5 33.5h68v-60h-60q-38 0 -56 -19t-18 -61v-60h249v68q0 65 33.5 98.5t98.5 33.5h78v-60h-70q-38 0 -56 -19t-18 -61v-60h124v-60h-124v-440h-66v440h-249v-440h-66v440z" />
    <glyph glyph-name="fi" unicode="fi" horiz-adv-x="585" 
d="M120 440h-90v60h90v68q0 65 33.5 98.5t98.5 33.5h158v-60h-150q-38 0 -56 -19t-18 -61v-60h314v-500h-66v440h-248v-440h-66v440z" />
    <glyph glyph-name="fl" unicode="fl" horiz-adv-x="630" 
d="M120 440h-90v60h90v68q0 65 33.5 98.5t98.5 33.5h239v-560q0 -80 72 -80h32v-60h-40q-63 0 -96.5 33.5t-33.5 98.5v508h-165q-38 0 -56 -19t-18 -61v-60h119v-60h-119v-440h-66v440z" />
    <glyph glyph-name="ffi" unicode="ffi" horiz-adv-x="900" 
d="M120 440h-90v60h90v68q0 65 33.5 98.5t98.5 33.5h68v-60h-60q-38 0 -56 -19t-18 -61v-60h249v68q0 63 33 97.5t99 34.5h158v-60h-150q-38 0 -56 -19t-18 -61v-60h314v-500h-66v440h-248v-440h-66v440h-249v-440h-66v440z" />
    <glyph glyph-name="ffl" unicode="ffl" horiz-adv-x="945" 
d="M120 440h-90v60h90v68q0 65 33.5 98.5t98.5 33.5h68v-60h-60q-38 0 -56 -19t-18 -61v-60h249v68q0 63 33 97.5t99 34.5h239v-560q0 -80 72 -80h32v-60h-40q-63 0 -96.5 33.5t-33.5 98.5v508h-165q-38 0 -56 -19t-18 -61v-60h119v-60h-119v-440h-66v440h-249v-440h-66v440
z" />
    <glyph glyph-name=".notdef" horiz-adv-x="650" 
d="M80 700h490v-700h-490v700zM325 406l147 244h-293zM514 92v517l-156 -258zM136 91l156 258l-156 259v-517zM471 50l-146 244l-147 -244h293z" />
    <glyph glyph-name=".null" horiz-adv-x="0" 
 />
    <glyph glyph-name=".null" horiz-adv-x="0" 
 />
    <glyph glyph-name="uni000D" unicode="&#xd;" horiz-adv-x="300" 
 />
    <glyph glyph-name="space" unicode=" " horiz-adv-x="250" 
 />
    <glyph glyph-name="exclam" unicode="!" horiz-adv-x="300" 
d="M115 700h70v-500h-70v500zM150 -7q-24 0 -39.5 16t-15.5 39t15.5 39t39.5 16t39.5 -16t15.5 -39t-15.5 -39t-39.5 -16z" />
    <glyph glyph-name="quotedbl" unicode="&#x22;" horiz-adv-x="400" 
d="M265 700h70v-240h-70v240zM65 700h70v-240h-70v240z" />
    <glyph glyph-name="numbersign" unicode="#" 
d="M129 210h-104l12 60h102l32 180h-103l11 60h103l34 190h64l-34 -190h155l34 190h64l-34 -190h100l-11 -60h-100l-32 -180h100l-11 -60h-99l-38 -210h-64l38 210h-155l-38 -210h-64zM358 270l32 180h-155l-32 -180h155z" />
    <glyph glyph-name="dollar" unicode="$" horiz-adv-x="610" 
d="M274 -6q-200 15 -214 221h72q7 -72 41 -110t101 -45v273q-38 11 -75 25t-65.5 35.5t-46 53t-17.5 78.5q0 36 13 67.5t38.5 55.5t63.5 39t89 19v94h62v-94q98 -8 147.5 -59.5t56.5 -141.5h-72q-8 61 -38 94.5t-94 40.5v-252q39 -12 77.5 -26t69 -36.5t49 -56t18.5 -84.5
q0 -80 -52.5 -132t-161.5 -59v-94h-62v94zM142 525q0 -26 10.5 -44.5t28.5 -32.5t42 -24t51 -19v235q-68 -7 -100 -38.5t-32 -76.5zM478 185q0 28 -11 48.5t-30.5 35.5t-45.5 26t-55 20v-255q73 7 107.5 42t34.5 83z" />
    <glyph glyph-name="percent" unicode="%" horiz-adv-x="900" 
d="M210 343q-35 0 -64.5 12t-50.5 33t-33 51t-12 66v40q0 36 12 66t33 51t50.5 33t64.5 12t64.5 -12t50.5 -33t33 -51t12 -66v-40q0 -36 -12 -66t-33 -51t-50.5 -33t-64.5 -12zM210 401q42 0 69 28t27 76v40q0 48 -27 76t-69 28t-69 -28t-27 -76v-40q0 -48 27 -76t69 -28z
M690 -7q-35 0 -64.5 12t-50.5 33t-33 51t-12 66v40q0 36 12 66t33 51t50.5 33t64.5 12t64.5 -12t50.5 -33t33 -51t12 -66v-40q0 -36 -12 -66t-33 -51t-50.5 -33t-64.5 -12zM690 51q42 0 69 28t27 76v40q0 48 -27 76t-69 28t-69 -28t-27 -76v-40q0 -48 27 -76t69 -28z
M616 700h74l-406 -700h-74z" />
    <glyph glyph-name="ampersand" unicode="&#x26;" horiz-adv-x="640" 
d="M476 78q-39 -42 -90.5 -63.5t-110.5 -21.5q-50 0 -89.5 14.5t-67.5 40t-43 60t-15 75.5q0 26 5.5 50.5t19.5 48.5t38 48.5t61 51.5q-28 31 -46 55t-28 44.5t-13.5 40t-3.5 40.5q0 31 11 57.5t32 46t51 30.5t68 11q37 0 66.5 -11t50.5 -30.5t32 -46t11 -57.5
q0 -21 -4.5 -42t-18.5 -44t-39.5 -48.5t-68.5 -55.5l182 -190q31 62 31 148h68q0 -60 -13 -109.5t-37 -89.5l125 -131h-89zM161 562q0 -17 3 -32t12 -31t24 -35t39 -45q37 26 59 45.5t32.5 36t13.5 31.5t3 30q0 35 -25 59t-67 24q-44 0 -69 -24t-25 -59zM128 183
q0 -57 39 -92.5t108 -35.5q45 0 84.5 18t70.5 53l-201 209q-32 -23 -52 -43t-31 -38t-14.5 -35.5t-3.5 -35.5z" />
    <glyph glyph-name="quotesingle" unicode="'" horiz-adv-x="200" 
d="M65 700h70v-240h-70v240z" />
    <glyph glyph-name="parenleft" unicode="(" horiz-adv-x="400" 
d="M90 250q0 255 190 450h80q-53 -54 -91 -107t-63 -108t-36.5 -113t-11.5 -122t11.5 -122t36.5 -113t63 -108t91 -107h-82q-94 95 -141 207.5t-47 242.5z" />
    <glyph glyph-name="parenright" unicode=")" horiz-adv-x="400" 
d="M310 250q0 -255 -190 -450h-80q53 54 91 107t63 108t36.5 113t11.5 122t-11.5 122t-36.5 113t-63 108t-91 107h82q94 -95 141 -207.5t47 -242.5z" />
    <glyph glyph-name="asterisk" unicode="*" horiz-adv-x="390" 
d="M90 411l64 112h-129v48h129l-64 113l40 23l65 -113l64 113l41 -23l-65 -113h130v-48h-129l64 -112l-41 -24l-64 113l-65 -113z" />
    <glyph glyph-name="plus" unicode="+" 
d="M260 328h-185v64h185v188h70v-188h185v-64h-185v-188h-70v188z" />
    <glyph glyph-name="comma" unicode="," horiz-adv-x="300" 
d="M125 85h80l-70 -235h-60z" />
    <glyph glyph-name="hyphen" unicode="-" horiz-adv-x="450" 
d="M50 290h350v-60h-350v60z" />
    <glyph glyph-name="period" unicode="." horiz-adv-x="300" 
d="M150 -7q-24 0 -39.5 15.5t-15.5 39.5t15.5 39.5t39.5 15.5t39.5 -15.5t15.5 -39.5t-15.5 -39.5t-39.5 -15.5z" />
    <glyph glyph-name="slash" unicode="/" horiz-adv-x="450" 
d="M363 700h62l-338 -900h-62z" />
    <glyph glyph-name="zero" unicode="0" horiz-adv-x="610" 
d="M305 -7q-53 0 -95.5 17.5t-72.5 56.5t-46 100.5t-16 150.5v64q0 88 16.5 149.5t46.5 100.5t72.5 57t94.5 18t94.5 -17.5t72.5 -56.5t46.5 -101t16.5 -150v-64q0 -88 -16.5 -149.5t-46.5 -100.5t-72.5 -57t-94.5 -18zM305 59q36 0 65.5 12.5t50 42.5t31.5 80t11 124v64
q0 74 -11 123.5t-32 79.5t-50 43t-65 13t-65.5 -12.5t-50 -42.5t-31.5 -80t-11 -124v-64q0 -74 11 -123.5t32 -79.5t50 -43t65 -13z" />
    <glyph glyph-name="one" unicode="1" horiz-adv-x="350" 
d="M180 621l-150 -102v78l150 103h70v-700h-70v621z" />
    <glyph glyph-name="two" unicode="2" horiz-adv-x="550" 
d="M45 64l248 246q32 32 56.5 58t41 49t24.5 44t8 44q0 59 -41 97.5t-112 38.5t-112 -38.5t-41 -97.5h-72q0 43 16 80t45 64t71 42.5t93 15.5t93 -15.5t71 -42.5t45 -64t16 -80q0 -58 -39.5 -113t-109.5 -123l-210 -205h359v-64h-450v64z" />
    <glyph glyph-name="three" unicode="3" horiz-adv-x="580" 
d="M285 -7q-106 0 -165.5 59t-64.5 163h72q5 -75 45 -115.5t113 -40.5q78 0 118 37.5t40 98.5q0 59 -39 96t-110 37h-94v64h94q63 0 98.5 34.5t35.5 89.5q0 57 -36.5 91t-106.5 34q-63 0 -99.5 -36.5t-43.5 -99.5h-72q2 46 18 83t43.5 63.5t66.5 41t87 14.5q51 0 91 -14
t67.5 -39t42 -60.5t14.5 -77.5q0 -51 -24.5 -91.5t-70.5 -63.5q54 -23 82 -66t28 -100q0 -45 -15.5 -82t-44.5 -63.5t-72 -41.5t-98 -15z" />
    <glyph glyph-name="four" unicode="4" horiz-adv-x="565" 
d="M25 232l328 468h87v-468h95v-64h-95v-168h-70v168h-345v64zM370 232v387l-268 -387h268z" />
    <glyph glyph-name="five" unicode="5" horiz-adv-x="565" 
d="M285 -7q-87 0 -148.5 43t-81.5 126h74q18 -52 58 -77.5t98 -25.5q72 0 115 44.5t43 123.5q0 80 -43 124t-115 44q-51 0 -87 -23t-54 -52h-69l30 380h365v-64h-301l-19 -232q26 27 63 42t82 15q48 0 88.5 -16.5t69.5 -47t45.5 -74t16.5 -96.5t-16.5 -96t-47 -74t-73 -47.5
t-93.5 -16.5z" />
    <glyph glyph-name="six" unicode="6" horiz-adv-x="595" 
d="M305 -7q-53 0 -95.5 17.5t-72.5 53.5t-46 91.5t-16 132.5v64q0 97 17.5 164.5t48.5 110t74 61.5t95 19q40 0 72.5 -12t57 -32.5t40.5 -48.5t24 -59h-74q-15 37 -43.5 61t-76.5 24q-37 0 -67 -12.5t-51.5 -42t-34 -78.5t-14.5 -122q27 39 70 60.5t97 21.5q46 0 85 -16.5
t68 -46.5t45.5 -71.5t16.5 -90.5v-24q0 -50 -16.5 -91t-46 -71t-69.5 -46.5t-88 -16.5zM147 228q0 -81 42.5 -125t115.5 -44q66 0 107 42.5t41 116.5v24q0 74 -41 116.5t-107 42.5q-73 0 -115.5 -41.5t-42.5 -107.5v-24z" />
    <glyph glyph-name="seven" unicode="7" horiz-adv-x="480" 
d="M388 636h-368v64h440v-64l-261 -636h-74z" />
    <glyph glyph-name="eight" unicode="8" 
d="M295 -7q-55 0 -98 14.5t-72 41t-44.5 62.5t-15.5 79q0 63 33.5 107.5t90.5 68.5q-48 21 -76 60t-28 96q0 39 15.5 72.5t43 58.5t66 39.5t85.5 14.5q48 0 86.5 -14t66 -39t42.5 -58.5t15 -73.5q0 -56 -28.5 -95t-76.5 -61q57 -23 91 -68t34 -108q0 -42 -15.5 -78
t-45.5 -62.5t-72.5 -41.5t-96.5 -15zM295 394q26 3 51 11.5t44.5 24t31 38.5t11.5 54q0 23 -9.5 44.5t-27.5 38t-43.5 26.5t-57.5 10t-57.5 -10t-43.5 -26.5t-27.5 -38t-9.5 -44.5q0 -30 12 -52.5t31.5 -38.5t44.5 -25t50 -12zM295 59q37 0 66.5 10.5t49.5 28.5t31 41.5
t11 50.5q0 32 -12.5 58t-34 44.5t-50.5 29.5t-61 14q-33 -3 -62 -13.5t-50.5 -29t-33.5 -44.5t-12 -59q0 -27 11 -50.5t31 -41.5t49.5 -28.5t66.5 -10.5z" />
    <glyph glyph-name="nine" unicode="9" horiz-adv-x="595" 
d="M290 -7q-42 0 -75.5 12t-58.5 32.5t-41.5 48t-23.5 59.5h74q15 -37 44 -61t81 -24q35 0 64 12.5t50 42t33.5 78.5t14.5 122q-27 -39 -70 -60.5t-97 -21.5q-46 0 -85 16.5t-68 46.5t-45.5 71t-16.5 91v24q0 49 16.5 90.5t46 71.5t69.5 46.5t88 16.5q52 0 94.5 -17.5
t72.5 -53.5t46.5 -91.5t16.5 -132.5v-64q0 -97 -17 -164.5t-48 -110t-73 -61.5t-92 -19zM142 458q0 -74 41 -116.5t107 -42.5q73 0 115.5 41.5t42.5 107.5v24q0 81 -42.5 125t-115.5 44q-66 0 -107 -42.5t-41 -116.5v-24z" />
    <glyph glyph-name="colon" unicode=":" horiz-adv-x="300" 
d="M150 397q-24 0 -39.5 15.5t-15.5 39.5t15.5 39.5t39.5 15.5t39.5 -15.5t15.5 -39.5t-15.5 -39.5t-39.5 -15.5zM150 -7q-24 0 -39.5 15.5t-15.5 39.5t15.5 39.5t39.5 15.5t39.5 -15.5t15.5 -39.5t-15.5 -39.5t-39.5 -15.5z" />
    <glyph glyph-name="semicolon" unicode=";" horiz-adv-x="300" 
d="M116 85h80l-70 -235h-60zM150 397q-24 0 -39.5 15.5t-15.5 39.5t15.5 39.5t39.5 15.5t39.5 -15.5t15.5 -39.5t-15.5 -39.5t-39.5 -15.5z" />
    <glyph glyph-name="less" unicode="&#x3c;" 
d="M75 323v74l440 203v-72l-364 -168l364 -166v-74z" />
    <glyph glyph-name="equal" unicode="=" 
d="M75 492h440v-64h-440v64zM75 292h440v-64h-440v64z" />
    <glyph glyph-name="greater" unicode="&#x3e;" 
d="M515 397v-74l-440 -203v72l364 168l-364 166v74z" />
    <glyph glyph-name="question" unicode="?" horiz-adv-x="500" 
d="M210 190q0 56 13 92t33 60.5t43 41.5t43 35t33 41t13 60q0 54 -36.5 87.5t-106.5 33.5q-66 0 -102.5 -35t-40.5 -96h-72q4 91 59.5 144t155.5 53q52 0 92 -13.5t67.5 -38.5t41.5 -59t14 -76q0 -46 -13.5 -75.5t-33.5 -50.5t-43 -38t-43 -38.5t-33.5 -51.5t-13.5 -76h-70z
M245 -7q-24 0 -39.5 16t-15.5 39t15.5 39t39.5 16t39.5 -16t15.5 -39t-15.5 -39t-39.5 -16z" />
    <glyph glyph-name="at" unicode="@" horiz-adv-x="1050" 
d="M456 18q-70 0 -113.5 45t-43.5 124q0 16 3.5 36.5t8.5 48.5q8 46 27.5 84.5t48.5 66.5t66 43.5t79 15.5q45 0 79.5 -17t54.5 -53l11 63h66l-53 -302q-3 -14 -3 -25q0 -34 17 -51t49 -17q31 0 60.5 15t52.5 43t37 69t14 93q0 72 -27.5 135t-78.5 109.5t-123.5 73.5
t-162.5 27q-83 0 -154.5 -30.5t-124.5 -83.5t-83 -125t-30 -156t30 -156t82.5 -125.5t124.5 -83.5t155 -30q132 0 230 40v-66q-39 -16 -101 -26t-129 -10q-96 0 -180 35.5t-146.5 97.5t-98 145.5t-35.5 178.5t36 178t98 145t146 98t180 36q103 0 188 -32t145.5 -87.5
t93.5 -129.5t33 -158q0 -68 -18 -120.5t-49.5 -88.5t-74 -54.5t-90.5 -18.5q-54 0 -86.5 23t-42.5 63q-29 -41 -72 -63.5t-96 -22.5zM476 80q61 0 102 40t54 108q6 32 9.5 52t3.5 33q0 49 -31 78t-82 29q-60 0 -101 -40t-53 -108q-6 -34 -8.5 -53t-2.5 -32q0 -50 27.5 -78.5
t81.5 -28.5z" />
    <glyph glyph-name="A" unicode="A" horiz-adv-x="660" 
d="M290 700h80l260 -700h-76l-73 203h-306l-73 -203h-72zM458 267l-128 358h-2l-130 -358h260z" />
    <glyph glyph-name="B" unicode="B" horiz-adv-x="620" 
d="M90 700h220q120 0 175 -49.5t55 -136.5q0 -52 -24.5 -90t-70.5 -59v-2q57 -20 86 -62.5t29 -104.5q0 -95 -55 -145.5t-175 -50.5h-240v700zM160 636v-244h145q88 0 125.5 32.5t37.5 89.5t-37.5 89.5t-125.5 32.5h-145zM160 328v-264h165q88 0 125.5 33.5t37.5 98.5
t-37.5 98.5t-125.5 33.5h-165z" />
    <glyph glyph-name="C" unicode="C" horiz-adv-x="670" 
d="M350 -7q-63 0 -115 22t-90 64.5t-59 105t-21 143.5v54q0 77 21 137.5t59 102t90.5 63.5t114.5 22q57 0 102.5 -16.5t79.5 -44.5t54.5 -65.5t28.5 -80.5h-74q-8 30 -23.5 56t-39.5 45.5t-56 30.5t-72 11q-46 0 -85 -17t-67.5 -50t-44.5 -81.5t-16 -112.5v-54
q0 -67 16.5 -118t45 -85t67.5 -51t84 -17q81 0 128.5 43t62.5 110h74q-8 -47 -28.5 -86.5t-54.5 -68.5t-79.5 -45.5t-102.5 -16.5z" />
    <glyph glyph-name="D" unicode="D" horiz-adv-x="680" 
d="M90 700h215q150 0 230 -81t80 -237v-54q0 -163 -80.5 -245.5t-229.5 -82.5h-215v700zM300 64q118 0 180.5 65t62.5 199v54q0 126 -62.5 190t-180.5 64h-140v-572h140z" />
    <glyph glyph-name="E" unicode="E" horiz-adv-x="560" 
d="M90 700h420v-64h-350v-244h290v-64h-290v-264h350v-64h-420v700z" />
    <glyph glyph-name="F" unicode="F" horiz-adv-x="540" 
d="M90 700h420v-64h-350v-244h290v-64h-290v-328h-70v700z" />
    <glyph glyph-name="G" unicode="G" horiz-adv-x="690" 
d="M350 -7q-63 0 -115 22t-90 64.5t-59 105t-21 143.5v54q0 77 21 137.5t59 102t90.5 63.5t114.5 22q58 0 104.5 -16.5t80.5 -44.5t55 -66t29 -80h-74q-8 30 -23.5 56t-40 45.5t-57 30.5t-74.5 11q-46 0 -85 -17t-67.5 -50t-44.5 -82t-16 -112v-54q0 -67 16.5 -117.5
t45 -84.5t67.5 -51.5t84 -17.5q48 0 86 13t64.5 41t41.5 72t18 106h-210v64h275v-23q0 -86 -19.5 -149.5t-55 -105t-86.5 -62t-114 -20.5z" />
    <glyph glyph-name="H" unicode="H" horiz-adv-x="710" 
d="M90 700h70v-308h390v308h70v-700h-70v328h-390v-328h-70v700z" />
    <glyph glyph-name="I" unicode="I" horiz-adv-x="270" 
d="M100 700h70v-700h-70v700z" />
    <glyph glyph-name="J" unicode="J" horiz-adv-x="535" 
d="M240 -7q-92 0 -147 56t-63 161h70q8 -80 42.5 -116.5t97.5 -36.5q52 0 80 21.5t41.5 51.5t16 63t2.5 57v450h70v-455q0 -13 -1 -37t-7 -52t-19 -57t-36 -52.5t-59 -38.5t-88 -15z" />
    <glyph glyph-name="K" unicode="K" horiz-adv-x="635" 
d="M90 700h70v-390l336 390h84l-266 -310l286 -390h-86l-250 340l-104 -119v-221h-70v700z" />
    <glyph glyph-name="L" unicode="L" horiz-adv-x="515" 
d="M90 700h70v-636h330v-64h-400v700z" />
    <glyph glyph-name="M" unicode="M" horiz-adv-x="810" 
d="M90 700h104l212 -418h2l212 418h100v-700h-70v615h-2l-208 -410h-70l-208 410h-2v-615h-70v700z" />
    <glyph glyph-name="N" unicode="N" horiz-adv-x="710" 
d="M90 700h104l354 -610h2v610h70v-700h-98l-360 620h-2v-620h-70v700z" />
    <glyph glyph-name="O" unicode="O" horiz-adv-x="710" 
d="M355 -7q-65 0 -118 22t-91.5 64.5t-59.5 105t-21 143.5v54q0 77 21.5 137.5t59.5 102t91.5 63.5t117.5 22t117.5 -21.5t92 -63t59.5 -102t21 -138.5v-54q0 -81 -21.5 -143.5t-59.5 -105t-91.5 -64.5t-117.5 -22zM355 57q48 0 88 17t69 51t45 84.5t16 118.5v54
q0 63 -16.5 111.5t-45.5 82t-69 50.5t-87 17q-48 0 -88 -17t-69 -50t-45 -81.5t-16 -112.5v-54q0 -67 16.5 -117.5t45.5 -84.5t69 -51.5t87 -17.5z" />
    <glyph glyph-name="P" unicode="P" horiz-adv-x="600" 
d="M90 700h225q125 0 185 -57t60 -160q0 -102 -61 -159.5t-184 -57.5h-155v-266h-70v700zM160 636v-306h150q95 0 136.5 38.5t41.5 114.5q0 75 -42 114t-136 39h-150z" />
    <glyph glyph-name="Q" unicode="Q" horiz-adv-x="710" 
d="M501 29q-63 -36 -146 -36q-65 0 -118 22t-91.5 64.5t-59.5 105t-21 143.5v54q0 77 21.5 137.5t59.5 102t91.5 63.5t117.5 22t117.5 -21.5t92 -63t59.5 -102t21 -138.5v-54q0 -88 -24 -152.5t-68 -107.5l92 -118h-82zM355 57q60 0 104 25l-104 133h82l73 -92
q30 34 46.5 85t16.5 120v54q0 63 -16.5 111.5t-45.5 82t-69 50.5t-87 17q-48 0 -88 -17t-69 -50t-45 -81.5t-16 -112.5v-54q0 -67 16.5 -117.5t45.5 -84.5t69 -51.5t87 -17.5z" />
    <glyph glyph-name="R" unicode="R" horiz-adv-x="620" 
d="M90 700h225q124 0 184.5 -56t60.5 -151q0 -72 -35 -122t-105 -71l160 -300h-80l-150 287q-8 -1 -17 -1h-18h-155v-286h-70v700zM310 350q95 0 136.5 37t41.5 106q0 67 -42 105t-136 38h-150v-286h150z" />
    <glyph glyph-name="S" unicode="S" horiz-adv-x="610" 
d="M315 -7q-122 0 -184.5 58t-70.5 159h74q8 -75 50.5 -114t130.5 -39q86 0 124.5 34t38.5 92q0 35 -17.5 58t-46 38.5t-65.5 26.5t-75 22t-75 25t-65.5 35.5t-46 53.5t-17.5 80q0 39 15 73t44 59t72 39t99 14q117 0 177 -55.5t68 -151.5h-74q-9 72 -48 107.5t-123 35.5
q-41 0 -71 -10t-49.5 -26.5t-28.5 -38.5t-9 -46q0 -48 30 -74t75.5 -42t98.5 -28.5t98.5 -34t75.5 -58.5t30 -102q0 -84 -58.5 -137t-176.5 -53z" />
    <glyph glyph-name="T" unicode="T" horiz-adv-x="580" 
d="M255 636h-230v64h530v-64h-230v-636h-70v636z" />
    <glyph glyph-name="U" unicode="U" horiz-adv-x="690" 
d="M345 -7q-59 0 -107 18.5t-82 54t-52.5 87t-18.5 117.5v430h70v-425q0 -107 52 -162.5t138 -55.5q87 0 138.5 55t51.5 163v425h70v-430q0 -65 -19 -116t-53 -87t-82 -55t-106 -19z" />
    <glyph glyph-name="V" unicode="V" horiz-adv-x="660" 
d="M30 700h76l234 -620h2l216 620h72l-250 -700h-80z" />
    <glyph glyph-name="W" unicode="W" horiz-adv-x="970" 
d="M40 700h72l167 -620h2l158 620h92l168 -620h2l159 620h70l-184 -700h-92l-168 620h-2l-158 -620h-92z" />
    <glyph glyph-name="X" unicode="X" horiz-adv-x="650" 
d="M280 366l-225 334h86l185 -280l187 280h82l-225 -333l245 -367h-88l-203 310l-205 -310h-84z" />
    <glyph glyph-name="Y" unicode="Y" horiz-adv-x="650" 
d="M300 255l-270 445h78l228 -374l208 374h76l-250 -445v-255h-70v255z" />
    <glyph glyph-name="Z" unicode="Z" horiz-adv-x="585" 
d="M50 64l406 570v2h-396v64h480v-64l-406 -570v-2h406v-64h-490v64z" />
    <glyph glyph-name="bracketleft" unicode="[" horiz-adv-x="400" 
d="M120 700h230v-60h-164v-780h164v-60h-230v900z" />
    <glyph glyph-name="backslash" unicode="\" horiz-adv-x="450" 
d="M25 700h66l334 -900h-66z" />
    <glyph glyph-name="bracketright" unicode="]" horiz-adv-x="400" 
d="M280 -200h-230v60h164v780h-164v60h230v-900z" />
    <glyph glyph-name="asciicircum" unicode="^" 
d="M250 700h80l180 -300h-78l-141 241l-135 -241h-76z" />
    <glyph glyph-name="underscore" unicode="_" 
d="M0 -68h590v-64h-590v64z" />
    <glyph glyph-name="grave" unicode="`" horiz-adv-x="250" 
d="M25 715h88l112 -150h-72z" />
    <glyph glyph-name="a" unicode="a" horiz-adv-x="530" 
d="M215 -7q-83 0 -124 38.5t-41 106.5q0 71 49 113t156 42h129v37q0 60 -29 87.5t-95 27.5q-61 0 -89.5 -21t-32.5 -54h-68q2 27 15 52t36.5 44t58.5 30t80 11q97 0 143.5 -44.5t46.5 -132.5v-330h-52l-8 85h-2q-30 -45 -74.5 -68.5t-98.5 -23.5zM220 55q36 0 66 11.5t52 32
t34 49t12 62.5v27h-124q-77 0 -109.5 -27t-32.5 -72q0 -38 24.5 -60.5t77.5 -22.5z" />
    <glyph glyph-name="b" unicode="b" horiz-adv-x="570" 
d="M85 700h66v-270h2q53 77 161 77q44 0 81 -15.5t63.5 -46t41.5 -75.5t15 -103v-34q0 -58 -15 -102.5t-42 -75t-64 -46.5t-80 -16q-54 0 -94 19.5t-73 62.5h-2l-8 -75h-52v700zM299 53q66 0 107 44.5t41 135.5v34q0 89 -41.5 134.5t-106.5 45.5q-66 0 -107 -44.5
t-41 -135.5v-34q0 -89 41.5 -134.5t106.5 -45.5z" />
    <glyph glyph-name="c" unicode="c" horiz-adv-x="505" 
d="M265 -7q-47 0 -86 15.5t-66.5 46.5t-42.5 77t-15 106v34q0 56 15.5 99.5t43 73.5t66 46t85.5 16q44 0 79 -11.5t60 -32t40 -47t21 -56.5h-68q-11 37 -41 62t-86 25q-64 0 -105.5 -45t-41.5 -130v-34q0 -92 42 -138.5t105 -46.5q56 0 86 26t41 71h68q-6 -34 -21 -62.5
t-40 -49.5t-60 -33t-79 -12z" />
    <glyph glyph-name="d" unicode="d" horiz-adv-x="570" 
d="M256 -7q-44 0 -81 15.5t-63.5 46t-41.5 75t-15 103.5v34q0 58 15 102.5t42 75t64 46.5t80 16q108 0 161 -77h2v270h66v-700h-52q0 5 -1.5 15.5t-2.5 22t-2.5 22t-1.5 15.5h-2q-34 -42 -74 -62t-93 -20zM271 53q66 0 107 44.5t41 135.5v34q0 89 -41.5 134.5t-106.5 45.5
q-66 0 -107 -44.5t-41 -135.5v-34q0 -89 41.5 -134.5t106.5 -45.5z" />
    <glyph glyph-name="e" unicode="e" horiz-adv-x="540" 
d="M270 -7q-48 0 -88 16t-68 46.5t-43.5 75t-15.5 102.5v34q0 57 15.5 102t44 75.5t68 46.5t87.5 16t88 -16t68 -47t43.5 -76.5t15.5 -105.5v-30h-362q0 -87 38 -133t109 -46q107 0 142 87h68q-18 -72 -71.5 -109.5t-138.5 -37.5zM270 447q-64 0 -103 -40.5t-44 -118.5h294
q-5 81 -44.5 120t-102.5 39z" />
    <glyph glyph-name="f" unicode="f" horiz-adv-x="335" 
d="M120 440h-90v60h90v68q0 65 33.5 98.5t98.5 33.5h78v-60h-70q-38 0 -56 -19t-18 -61v-60h124v-60h-124v-440h-66v440z" />
    <glyph glyph-name="g" unicode="g" horiz-adv-x="570" 
d="M256 13q-44 0 -81 15.5t-63.5 45t-41.5 72t-15 97.5v34q0 54 15 96.5t42 72.5t64 45.5t80 15.5q54 0 94 -19.5t73 -62.5h2l8 75h52v-505q0 -97 -52.5 -149.5t-149.5 -52.5q-94 0 -139.5 41t-53.5 111h68q8 -45 35.5 -68.5t89.5 -23.5q69 0 102.5 35t33.5 112v90h-2
q-53 -77 -161 -77zM270 73q67 0 108 43.5t41 126.5v34q0 81 -41.5 125.5t-106.5 44.5q-66 0 -107 -43.5t-41 -126.5v-34q0 -81 41.5 -125.5t105.5 -44.5z" />
    <glyph glyph-name="h" unicode="h" horiz-adv-x="575" 
d="M85 700h66v-270h2q60 77 153 77q89 0 139 -52t50 -155v-300h-66v300q0 75 -34.5 111t-99.5 36q-32 0 -58.5 -10.5t-45.5 -30t-29.5 -46.5t-10.5 -60v-300h-66v700z" />
    <glyph glyph-name="i" unicode="i" horiz-adv-x="256" 
d="M95 500h66v-500h-66v500zM128 588q-20 0 -33.5 13.5t-13.5 33.5t13.5 33.5t33.5 13.5t33.5 -13.5t13.5 -33.5t-13.5 -33.5t-33.5 -13.5z" />
    <glyph glyph-name="j" unicode="j" horiz-adv-x="256" 
d="M-9 -140h24q30 0 46 11t23.5 26.5t9 34t1.5 33.5v535h66v-540q0 -21 -2.5 -48.5t-16 -52t-43.5 -42t-84 -17.5h-24v60zM128 588q-20 0 -33.5 13.5t-13.5 33.5t13.5 33.5t33.5 13.5t33.5 -13.5t13.5 -33.5t-13.5 -33.5t-33.5 -13.5z" />
    <glyph glyph-name="k" unicode="k" horiz-adv-x="510" 
d="M85 700h66v-481l232 281h82l-182 -219l202 -281h-82l-164 234l-88 -105v-129h-66v700z" />
    <glyph glyph-name="l" unicode="l" horiz-adv-x="290" 
d="M215 0q-48 0 -74.5 17t-39 39t-14.5 44t-2 32v568h66v-560q0 -80 72 -80h32v-60h-40v0z" />
    <glyph glyph-name="m" unicode="m" horiz-adv-x="875" 
d="M85 500h52l8 -75h2q29 40 67.5 61t84.5 21q54 0 94 -25t61 -75q23 48 66.5 74t100.5 26q39 0 71 -13t55 -39.5t35.5 -65t12.5 -89.5v-300h-66v300q0 74 -33 110.5t-90 36.5q-28 0 -52 -10.5t-42 -30t-28.5 -46.5t-10.5 -60v-300h-66v300q0 74 -33 110.5t-90 36.5
q-28 0 -52 -10.5t-42 -30t-28.5 -46.5t-10.5 -60v-300h-66v500z" />
    <glyph glyph-name="n" unicode="n" horiz-adv-x="575" 
d="M85 500h52l8 -75h2q60 82 159 82q89 0 139 -51.5t50 -150.5v-305h-66v300q0 75 -34.5 111t-99.5 36q-32 0 -58.5 -10.5t-45.5 -30t-29.5 -46.5t-10.5 -60v-300h-66v500z" />
    <glyph glyph-name="o" unicode="o" horiz-adv-x="550" 
d="M275 -7q-101 0 -160.5 62t-59.5 178v34q0 57 15.5 102t44.5 75.5t69.5 46.5t90.5 16q101 0 160.5 -62t59.5 -178v-34q0 -57 -15.5 -102t-44.5 -75.5t-69.5 -46.5t-90.5 -16zM275 53q69 0 110.5 45t41.5 135v34q0 89 -42 134.5t-110 45.5q-69 0 -110.5 -45t-41.5 -135v-34
q0 -89 42 -134.5t110 -45.5z" />
    <glyph glyph-name="p" unicode="p" horiz-adv-x="570" 
d="M85 500h52l8 -75h2q33 43 73 62.5t94 19.5q44 0 81 -15.5t63.5 -46t41.5 -75.5t15 -103v-34q0 -58 -15 -102.5t-42 -75t-64 -46.5t-80 -16q-108 0 -161 77h-2v-270h-66v700zM299 53q66 0 107 44.5t41 135.5v34q0 89 -41.5 134.5t-106.5 45.5q-66 0 -107 -44.5t-41 -135.5
v-34q0 -89 41.5 -134.5t106.5 -45.5z" />
    <glyph glyph-name="q" unicode="q" horiz-adv-x="570" 
d="M256 -7q-44 0 -81 15.5t-63.5 46t-41.5 75t-15 103.5v34q0 58 15 102.5t42 75t64 46.5t80 16q54 0 94 -19.5t73 -62.5h2l8 75h52v-700h-66v270h-2q-53 -77 -161 -77zM271 53q66 0 107 44.5t41 135.5v34q0 89 -41.5 134.5t-106.5 45.5q-66 0 -107 -44.5t-41 -135.5v-34
q0 -89 41.5 -134.5t106.5 -45.5z" />
    <glyph glyph-name="r" unicode="r" horiz-adv-x="375" 
d="M85 500h52l8 -75h2q55 82 159 82h49v-60h-50q-73 0 -113.5 -39.5t-40.5 -107.5v-300h-66v500z" />
    <glyph glyph-name="s" unicode="s" horiz-adv-x="490" 
d="M250 -7q-95 0 -141 40.5t-54 106.5h68q8 -41 36 -64t91 -23q64 0 90.5 22t26.5 58q0 32 -22.5 50t-56 29.5t-72.5 21t-72.5 25.5t-56 42t-22.5 71q0 57 44 96t131 39q46 0 80 -10.5t57 -28.5t36 -43t17 -55h-68q-8 35 -35 56t-87 21q-58 0 -82.5 -20.5t-24.5 -54.5
q0 -30 22.5 -46.5t56 -27t72.5 -20t72.5 -26t56 -44t22.5 -75.5q0 -30 -11.5 -55.5t-34.5 -44t-58 -29.5t-81 -11z" />
    <glyph glyph-name="t" unicode="t" horiz-adv-x="360" 
d="M247 0q-49 0 -76 17t-39.5 39.5t-14.5 44.5t-2 31v308h-90v60h90v140h66v-140h134v-60h-134v-300q0 -80 74 -80h70v-60h-78v0z" />
    <glyph glyph-name="u" unicode="u" horiz-adv-x="565" 
d="M259 -7q-81 0 -130 51.5t-49 150.5v305h66v-300q0 -75 33.5 -111t90.5 -36q32 0 58.5 10.5t45.5 30t29.5 46.5t10.5 60v300h66v-500h-52l-8 75h-2q-57 -82 -159 -82z" />
    <glyph glyph-name="v" unicode="v" horiz-adv-x="510" 
d="M25 500h72l163 -430h2l155 430h68l-186 -500h-78z" />
    <glyph glyph-name="w" unicode="w" horiz-adv-x="770" 
d="M35 500h70l120 -430h2l113 430h90l125 -430h2l112 430h66l-135 -500h-90l-125 430h-2l-113 -430h-90z" />
    <glyph glyph-name="x" unicode="x" horiz-adv-x="500" 
d="M211 260l-172 240h76l136 -191l136 191h74l-172 -239l186 -261h-78l-148 209l-148 -209h-76z" />
    <glyph glyph-name="y" unicode="y" horiz-adv-x="520" 
d="M234 0l-209 500h72l171 -418h2l157 418h68l-270 -700h-68z" />
    <glyph glyph-name="z" unicode="z" horiz-adv-x="455" 
d="M40 60l304 378v2h-294v60h370v-60l-304 -378v-2h304v-60h-380v60z" />
    <glyph glyph-name="braceleft" unicode="{" horiz-adv-x="400" 
d="M314 -200q-184 0 -184 184v130q0 53 -23.5 76.5t-56.5 28.5v62q33 5 56.5 28.5t23.5 76.5v130q0 184 184 184h46v-60h-46q-60 0 -89 -30t-29 -94v-130q0 -23 -2.5 -42.5t-10.5 -37t-22 -31.5t-37 -24v-2q23 -11 37 -24.5t22 -31t10.5 -37.5t2.5 -42v-130q0 -64 29 -94
t89 -30h46v-60h-46z" />
    <glyph glyph-name="bar" unicode="|" horiz-adv-x="300" 
d="M117 700h66v-900h-66v900z" />
    <glyph glyph-name="braceright" unicode="}" horiz-adv-x="400" 
d="M86 700q184 0 184 -184v-130q0 -53 23.5 -76.5t56.5 -28.5v-62q-33 -5 -56.5 -28.5t-23.5 -76.5v-130q0 -184 -184 -184h-46v60h46q60 0 89 30t29 94v130q0 22 2.5 42t10.5 37.5t22 31t37 24.5v2q-23 10 -37 24t-22 31.5t-10.5 37t-2.5 42.5v130q0 64 -29 94t-89 30h-46
v60h46z" />
    <glyph glyph-name="asciitilde" unicode="~" 
d="M403 270q-40 0 -69 18t-53 39t-46 39t-48 18q-30 0 -48.5 -19.5t-18.5 -54.5h-70q0 31 10 57t28.5 44.5t43.5 28.5t55 10q40 0 69 -18t53 -39t46 -39t48 -18q30 0 48.5 19.5t18.5 54.5h70q0 -31 -10 -57t-28.5 -44.5t-43.5 -28.5t-55 -10z" />
    <glyph glyph-name="uni00A0" unicode="&#xa0;" horiz-adv-x="250" 
 />
    <glyph glyph-name="exclamdown" unicode="&#xa1;" horiz-adv-x="300" 
d="M185.007 -199.957h-69.9951v499.969h69.9951v-499.969zM150.009 507q23.999 0 39.498 -15.999t15.499 -38.998t-15.499 -38.998t-39.498 -15.999q-23.998 0 -39.4971 15.999t-15.499 38.998t15.499 38.998t39.4971 15.999z" />
    <glyph glyph-name="cent" unicode="&#xa2;" horiz-adv-x="505" 
d="M239 -5q-85 8 -134.5 69t-49.5 174v34q0 104 50.5 164.5t133.5 68.5v95h62v-96q36 -5 64 -18t48.5 -32t33.5 -43t18 -51h-68q-11 37 -41 62t-86 25q-64 0 -105.5 -45t-41.5 -130v-34q0 -92 42 -138.5t105 -46.5q56 0 86 26t41 71h68q-11 -61 -51.5 -103.5t-112.5 -51.5
v-95h-62v95z" />
    <glyph glyph-name="sterling" unicode="&#xa3;" horiz-adv-x="580" 
d="M55 64q22 15 39 30.5t28 36t17 49t6 70.5v51h-90v58h90v151q0 42 15 78.5t41 62.5t61.5 41t77.5 15q87 0 139 -55t56 -147h-70q-4 66 -36 101t-89 35q-55 0 -90 -35.5t-35 -95.5v-151h185v-58h-185v-51q0 -39 -3.5 -67.5t-12 -50.5t-21 -38t-30.5 -30h387v-64h-480v64z
" />
    <glyph glyph-name="currency" unicode="&#xa4;" 
d="M50 160l86 86q-36 50 -36 114q0 32 9 60t26 52l-85 85l48 48l85 -85q24 17 52 26t60 9q64 0 114 -36l86 86l45 -45l-86 -86q36 -50 36 -114q0 -32 -9 -60t-26 -52l85 -85l-48 -48l-85 85q-24 -17 -52 -26t-60 -9q-64 0 -114 36l-86 -86zM295 229q26 0 49 10.5t40 28
t27 41.5t10 51t-10 51t-27 41.5t-40 28t-49 10.5t-49 -10.5t-40 -28t-27 -41.5t-10 -51t10 -51t27 -41.5t40 -28t49 -10.5z" />
    <glyph glyph-name="yen" unicode="&#xa5;" horiz-adv-x="650" 
d="M95 189h200v82h-200v58h158l-223 371h78l223 -371l213 371h76l-214 -371h159v-58h-200v-82h200v-58h-200v-131h-70v131h-200v58z" />
    <glyph glyph-name="brokenbar" unicode="&#xa6;" horiz-adv-x="300" 
d="M117 700h66v-370h-66v370zM117 170h66v-370h-66v370z" />
    <glyph glyph-name="section" unicode="&#xa7;" horiz-adv-x="480" 
d="M240 -207q-78 0 -124.5 43t-54.5 110h74q5 -38 32 -62t73 -24q53 0 80 24.5t27 62.5q0 32 -22 53.5t-55 40t-71.5 36.5t-71.5 42t-55 57.5t-22 83.5q0 49 27.5 88t78.5 70q-36 23 -60.5 56.5t-24.5 84.5q0 64 44.5 106t124.5 42q36 0 65.5 -11t51.5 -30t35 -45.5
t17 -56.5h-74q-5 33 -28.5 54.5t-66.5 21.5q-48 0 -72.5 -22.5t-24.5 -58.5q0 -34 21.5 -57t53 -42t69 -37.5t69 -42.5t53 -57.5t21.5 -82.5q0 -48 -26 -86t-75 -68q38 -23 64 -55.5t26 -83.5q0 -33 -12 -61t-35 -49t-56.5 -32.5t-75.5 -11.5zM122 260q0 -27 12 -47.5
t32.5 -36.5t46 -29.5t52.5 -26.5q46 26 69.5 53t23.5 67q0 27 -12 47.5t-31.5 37t-44.5 30t-52 27.5q-48 -27 -72 -54t-24 -68z" />
    <glyph glyph-name="dieresis" unicode="&#xa8;" horiz-adv-x="340" 
d="M72 588q-20 0 -33.5 13.5t-13.5 33.5t13.5 33.5t33.5 13.5t33.5 -13.5t13.5 -33.5t-13.5 -33.5t-33.5 -13.5zM268 588q-20 0 -33.5 13.5t-13.5 33.5t13.5 33.5t33.5 13.5t33.5 -13.5t13.5 -33.5t-13.5 -33.5t-33.5 -13.5z" />
    <glyph glyph-name="copyright" unicode="&#xa9;" horiz-adv-x="850" 
d="M425 -7q-75 0 -140.5 28t-114 76t-76.5 113t-28 140q0 74 28 139t77 113.5t114 76.5t140 28t140.5 -28t114 -76t76.5 -113t28 -140q0 -74 -28 -139t-77 -113.5t-114 -76.5t-140 -28zM425 54q62 0 116 23t93.5 62.5t62.5 93.5t23 117q0 62 -23 116t-62.5 94t-93.5 63
t-116 23t-116 -23t-93.5 -63t-62.5 -94t-23 -116t23 -116t62.5 -94t93.5 -63t116 -23zM425 143q-79 0 -126.5 49t-47.5 141v34q0 90 48 140t126 50q36 0 64.5 -10t49.5 -26t33.5 -36.5t16.5 -42.5h-66q-8 20 -32 38.5t-66 18.5q-51 0 -81 -33t-30 -99v-34q0 -65 31 -98.5
t80 -33.5q46 0 69.5 19t31.5 48h63q-4 -25 -17 -47.5t-34 -40t-49.5 -27.5t-63.5 -10z" />
    <glyph glyph-name="ordfeminine" unicode="&#xaa;" horiz-adv-x="350" 
d="M140 373q-55 0 -82.5 25.5t-27.5 69.5q0 48 33.5 75.5t117.5 27.5h69v22q0 34 -15.5 49t-54.5 15q-35 0 -51 -12.5t-20 -31.5h-61q4 41 35 67.5t97 26.5q68 0 99 -29t31 -85v-213h-48l-7 55q-36 -62 -115 -62zM149 423q46 0 73.5 26.5t27.5 66.5v13h-69
q-51 0 -69.5 -14.5t-18.5 -40.5q0 -51 56 -51z" />
    <glyph glyph-name="guillemotleft" unicode="&#xab;" horiz-adv-x="505" 
d="M372 460h73l-121 -198l121 -202h-76l-119 198zM167 460h73l-121 -198l121 -202h-76l-119 198z" />
    <glyph glyph-name="logicalnot" unicode="&#xac;" 
d="M75 392h440v-250h-69v186h-371v64z" />
    <glyph glyph-name="uni00AD" unicode="&#xad;" horiz-adv-x="450" 
d="M50 290h350v-60h-350v60z" />
    <glyph glyph-name="registered" unicode="&#xae;" horiz-adv-x="650" 
d="M325 143q-59 0 -110.5 22t-90 60.5t-61 89.5t-22.5 110q0 58 22.5 109.5t61 90t90 60.5t110.5 22t110.5 -22t90 -60.5t61 -90t22.5 -109.5q0 -59 -22.5 -110t-61 -89.5t-90 -60.5t-110.5 -22zM325 194q47 0 89 18t73 49.5t49 73.5t18 90t-18 90t-49 73.5t-73 49.5t-89 18
t-89 -18t-73 -49.5t-49 -73.5t-18 -90t18 -90t49 -73.5t73 -49.5t89 -18zM227 575h104q61 0 88.5 -25t27.5 -72q0 -71 -62 -90l58 -113h-55l-50 106h-58v-106h-53v300zM280 527v-98h51q34 0 47.5 13t13.5 36t-13.5 36t-47.5 13h-51z" />
    <glyph glyph-name="macron" unicode="&#xaf;" horiz-adv-x="300" 
d="M15 663h270v-56h-270v56z" />
    <glyph glyph-name="degree" unicode="&#xb0;" horiz-adv-x="360" 
d="M180 401q-32 0 -60.5 12t-49.5 33t-33 48.5t-12 59.5q0 31 12 59t33 49t49.5 33t60.5 12t60.5 -12t49.5 -33t33 -49t12 -59q0 -32 -12 -59.5t-33 -48.5t-49.5 -33t-60.5 -12zM180 459q19 0 36 7.5t30 20t20.5 30t7.5 37.5t-7.5 37.5t-20.5 30t-30 20t-36 7.5t-36 -7.5
t-30 -20t-20.5 -30t-7.5 -37.5t7.5 -37.5t20.5 -30t30 -20t36 -7.5z" />
    <glyph glyph-name="plusminus" unicode="&#xb1;" 
d="M260 375h-185v64h185v192h70v-192h185v-64h-185v-142h-70v142zM75 153h440v-64h-440v64z" />
    <glyph glyph-name="twosuperior" unicode="&#xb2;" horiz-adv-x="355" 
d="M26 436l151 146q25 24 40 41.5t23.5 32t11.5 26.5t3 26q0 31 -21 50.5t-61 19.5t-61 -19.5t-21 -50.5h-64q0 55 39 92t107 37t107 -37t39 -92q0 -21 -5 -40t-17 -38.5t-31 -41t-46 -47.5l-111 -105h211v-56h-294v56z" />
    <glyph glyph-name="threesuperior" unicode="&#xb3;" horiz-adv-x="370" 
d="M180 373q-74 0 -112.5 37t-42.5 107h64q9 -85 91 -85q45 0 68 21.5t23 54.5q0 31 -24 52.5t-66 21.5h-59v56h59q39 0 60 19.5t21 50.5q0 32 -20.5 51t-61.5 19q-39 0 -58.5 -18.5t-23.5 -52.5h-64q4 59 41 94.5t105 35.5q69 0 107.5 -35.5t38.5 -87.5q0 -35 -16 -61
t-48 -40q35 -15 54 -43.5t19 -63.5q0 -60 -39.5 -96.5t-115.5 -36.5z" />
    <glyph glyph-name="acute" unicode="&#xb4;" horiz-adv-x="250" 
d="M139 715h86l-130 -150h-70z" />
    <glyph glyph-name="mu" unicode="&#xb5;" horiz-adv-x="570" 
d="M85 500h66v-300q0 -73 33.5 -109t90.5 -36q64 0 104 40t40 105v300h66v-500h-51l-8 82q-25 -43 -66.5 -66t-94.5 -23q-70 0 -114 44v-237h-66v700z" />
    <glyph glyph-name="mu" unicode="&#x3bc;" horiz-adv-x="570" 
d="M85 500h66v-300q0 -73 33.5 -109t90.5 -36q64 0 104 40t40 105v300h66v-500h-51l-8 82q-25 -43 -66.5 -66t-94.5 -23q-70 0 -114 44v-237h-66v700z" />
    <glyph glyph-name="paragraph" unicode="&#xb6;" horiz-adv-x="660" 
d="M245 263q-39 6 -73 25.5t-59 48.5t-39 65.5t-14 77.5q0 45 17.5 85t47.5 70t70 47.5t85 17.5h350v-64h-89v-836h-69v836h-157v-836h-70v463z" />
    <glyph glyph-name="periodcentered" unicode="&#xb7;" horiz-adv-x="300" 
d="M150 205q-24 0 -39.5 15.5t-15.5 39.5t15.5 39.5t39.5 15.5t39.5 -15.5t15.5 -39.5t-15.5 -39.5t-39.5 -15.5z" />
    <glyph glyph-name="cedilla" unicode="&#xb8;" horiz-adv-x="190" 
d="M15 -152h55q27 0 38 9.5t11 27.5t-11 27.5t-38 9.5h-21l22 88h52l-14 -49q32 -5 49 -24.5t17 -50.5q0 -39 -24 -62.5t-66 -23.5h-70v48z" />
    <glyph glyph-name="onesuperior" unicode="&#xb9;" horiz-adv-x="260" 
d="M139 762l-119 -75v69l119 74h61v-450h-61v382z" />
    <glyph glyph-name="ordmasculine" unicode="&#xba;" horiz-adv-x="360" 
d="M180 373q-68 0 -109 41t-41 110v32q0 69 41 110t109 41t109 -41t41 -110v-32q0 -69 -41 -110t-109 -41zM180 431q39 0 62.5 24t23.5 69v32q0 45 -23.5 69t-62.5 24t-62.5 -24t-23.5 -69v-32q0 -45 23.5 -69t62.5 -24z" />
    <glyph glyph-name="guillemotright" unicode="&#xbb;" horiz-adv-x="505" 
d="M337 60h-73l121 198l-121 202h76l119 -198zM133 60h-73l121 198l-121 202h76l119 -198z" />
    <glyph glyph-name="onequarter" unicode="&#xbc;" horiz-adv-x="850" 
d="M591 700h74l-406 -700h-74zM160 632l-110 -68v69l110 67h60v-400h-60v332zM688 89h-198v54l175 258h83v-258h52v-54h-52v-88h-60v88zM688 143v196l-133 -196h133z" />
    <glyph glyph-name="onehalf" unicode="&#xbd;" horiz-adv-x="880" 
d="M591 700h74l-406 -700h-74zM160 632l-110 -68v69l110 67h60v-400h-60v332zM550 56l139 120q25 22 40.5 37.5t23.5 28.5t11 24t3 23q0 28 -18.5 44.5t-58.5 16.5t-58.5 -16.5t-18.5 -44.5h-63q0 54 35 86.5t105 32.5t105 -32.5t35 -86.5q0 -38 -21.5 -73t-77.5 -81
l-94 -79h193v-55h-280v55z" />
    <glyph glyph-name="threequarters" unicode="&#xbe;" horiz-adv-x="900" 
d="M641 700h74l-406 -700h-74zM738 89h-198v54l175 258h83v-258h52v-54h-52v-88h-60v88zM738 143v196l-133 -196h133zM200 293q-72 0 -109 34.5t-41 94.5h63q4 -34 24.5 -52.5t62.5 -18.5q46 0 66.5 17.5t20.5 46.5q0 26 -20.5 44.5t-65.5 18.5h-56v55h56q41 0 59 16t18 42
t-18.5 42t-59.5 16q-39 0 -56.5 -16t-22.5 -45h-62q4 54 38 86.5t103 32.5t105 -32t36 -80q0 -28 -14.5 -50t-43.5 -36q34 -14 50.5 -39.5t16.5 -58.5q0 -52 -37 -85t-113 -33z" />
    <glyph glyph-name="questiondown" unicode="&#xbf;" horiz-adv-x="500" 
d="M290.013 310.012q0 -55.9971 -12.999 -91.9941q-12.999 -35.998 -32.998 -60.4971q-19.999 -24.498 -42.9971 -41.4971q-22.999 -16.999 -42.998 -34.998q-19.998 -17.999 -32.998 -40.9971q-12.999 -22.999 -12.999 -59.9971q0 -53.9961 36.498 -87.4941
t106.493 -33.498q65.9961 0 102.494 34.998t40.4971 95.9941h71.9961q-4 -90.9941 -59.4961 -143.991q-55.4971 -52.9971 -155.491 -52.9971q-51.9961 0 -91.9941 13.499q-39.9971 13.499 -67.4961 38.498q-27.498 24.998 -41.4971 58.9961t-13.999 75.9951
q0 45.998 13.499 75.4961t33.498 50.4971q19.999 20.998 42.9971 37.9971q22.999 16.999 42.9971 38.498q19.999 21.498 33.498 51.4971q13.5 29.998 13.5 75.9951h69.9951zM255.015 507q23.999 0 39.498 -15.999t15.499 -38.998t-15.499 -38.998t-39.498 -15.999
q-23.998 0 -39.4971 15.999t-15.499 38.998t15.499 38.998t39.4971 15.999z" />
    <glyph glyph-name="Agrave" unicode="&#xc0;" horiz-adv-x="660" 
d="M290 700h80l260 -700h-76l-73 203h-306l-73 -203h-72zM458 267l-128 358h-2l-130 -358h260zM170 915h90l120 -150h-74z" />
    <glyph glyph-name="Aacute" unicode="&#xc1;" horiz-adv-x="660" 
d="M290 700h80l260 -700h-76l-73 203h-306l-73 -203h-72zM458 267l-128 358h-2l-130 -358h260zM406 915h88l-138 -150h-72z" />
    <glyph glyph-name="Acircumflex" unicode="&#xc2;" horiz-adv-x="660" 
d="M290 700h80l260 -700h-76l-73 203h-306l-73 -203h-72zM458 267l-128 358h-2l-130 -358h260zM291 915h78l121 -150h-72l-88 95l-88 -95h-72z" />
    <glyph glyph-name="Atilde" unicode="&#xc3;" horiz-adv-x="660" 
d="M290 700h80l260 -700h-76l-73 203h-306l-73 -203h-72zM458 267l-128 358h-2l-130 -358h260zM392 770q-28 0 -47 11t-34 24t-28.5 24t-30.5 11q-21 0 -33 -13t-12 -42h-50q0 59 25.5 87t69.5 28q28 0 47 -11t34 -24t28.5 -24t30.5 -11q21 0 33 13t12 42h50
q0 -59 -25.5 -87t-69.5 -28z" />
    <glyph glyph-name="Adieresis" unicode="&#xc4;" horiz-adv-x="660" 
d="M290 700h80l260 -700h-76l-73 203h-306l-73 -203h-72zM458 267l-128 358h-2l-130 -358h260zM222 788q-20 0 -33.5 13.5t-13.5 33.5t13.5 33.5t33.5 13.5t33.5 -13.5t13.5 -33.5t-13.5 -33.5t-33.5 -13.5zM438 788q-20 0 -33.5 13.5t-13.5 33.5t13.5 33.5t33.5 13.5
t33.5 -13.5t13.5 -33.5t-13.5 -33.5t-33.5 -13.5z" />
    <glyph glyph-name="Aring" unicode="&#xc5;" horiz-adv-x="660" 
d="M290 700h80l260 -700h-76l-73 203h-306l-73 -203h-72zM458 267l-128 358h-2l-130 -358h260zM330 733q-46 0 -75.5 29t-29.5 73t29.5 73t75.5 29t75.5 -29t29.5 -73t-29.5 -73t-75.5 -29zM330 783q23 0 38 14.5t15 37.5t-15 37.5t-38 14.5t-38 -14.5t-15 -37.5t15 -37.5
t38 -14.5z" />
    <glyph glyph-name="AE" unicode="&#xc6;" horiz-adv-x="930" 
d="M430 700h450v-64h-350v-244h290v-64h-290v-264h350v-64h-420v203h-246l-118 -203h-76zM460 267v361l-209 -361h209z" />
    <glyph glyph-name="Ccedilla" unicode="&#xc7;" horiz-adv-x="670" 
d="M270 -150h55q26 0 36.5 9t10.5 26t-10.5 26t-36.5 9h-22l18 74q-57 5 -104 29t-81 66.5t-52.5 102t-18.5 136.5v54q0 77 21 137.5t59 102t90.5 63.5t114.5 22q57 0 102.5 -16.5t79.5 -44.5t54.5 -65.5t28.5 -80.5h-74q-8 30 -23.5 56t-39.5 45.5t-56 30.5t-72 11
q-46 0 -85 -17t-67.5 -50t-44.5 -81.5t-16 -112.5v-54q0 -67 16.5 -118t45 -85t67.5 -51t84 -17q81 0 128.5 43t62.5 110h74q-7 -44 -26 -82t-49.5 -66.5t-72 -46.5t-93.5 -21l-9 -33q65 -11 65 -75q0 -39 -24 -62.5t-66 -23.5h-70v50z" />
    <glyph glyph-name="Egrave" unicode="&#xc8;" horiz-adv-x="560" 
d="M90 700h420v-64h-350v-244h290v-64h-290v-264h350v-64h-420v700zM140 915h90l120 -150h-74z" />
    <glyph glyph-name="Eacute" unicode="&#xc9;" horiz-adv-x="560" 
d="M90 700h420v-64h-350v-244h290v-64h-290v-264h350v-64h-420v700zM376 915h88l-138 -150h-72z" />
    <glyph glyph-name="Ecircumflex" unicode="&#xca;" horiz-adv-x="560" 
d="M90 700h420v-64h-350v-244h290v-64h-290v-264h350v-64h-420v700zM261 915h78l121 -150h-72l-88 95l-88 -95h-72z" />
    <glyph glyph-name="Edieresis" unicode="&#xcb;" horiz-adv-x="560" 
d="M90 700h420v-64h-350v-244h290v-64h-290v-264h350v-64h-420v700zM192 788q-20 0 -33.5 13.5t-13.5 33.5t13.5 33.5t33.5 13.5t33.5 -13.5t13.5 -33.5t-13.5 -33.5t-33.5 -13.5zM408 788q-20 0 -33.5 13.5t-13.5 33.5t13.5 33.5t33.5 13.5t33.5 -13.5t13.5 -33.5
t-13.5 -33.5t-33.5 -13.5z" />
    <glyph glyph-name="Igrave" unicode="&#xcc;" horiz-adv-x="270" 
d="M100 700h70v-700h-70v700zM-24 915h90l120 -150h-74z" />
    <glyph glyph-name="Iacute" unicode="&#xcd;" horiz-adv-x="270" 
d="M100 700h70v-700h-70v700zM211 915h88l-138 -150h-72z" />
    <glyph glyph-name="Icircumflex" unicode="&#xce;" horiz-adv-x="270" 
d="M100 700h70v-700h-70v700zM97 915h78l121 -150h-72l-88 95l-88 -95h-72z" />
    <glyph glyph-name="Idieresis" unicode="&#xcf;" horiz-adv-x="270" 
d="M100 700h70v-700h-70v700zM28 788q-20 0 -33.5 13.5t-13.5 33.5t13.5 33.5t33.5 13.5t33.5 -13.5t13.5 -33.5t-13.5 -33.5t-33.5 -13.5zM244 788q-20 0 -33.5 13.5t-13.5 33.5t13.5 33.5t33.5 13.5t33.5 -13.5t13.5 -33.5t-13.5 -33.5t-33.5 -13.5z" />
    <glyph glyph-name="Eth" unicode="&#xd0;" horiz-adv-x="700" 
d="M110 320h-90v60h90v320h215q150 0 230 -81t80 -237v-54q0 -163 -80.5 -245.5t-229.5 -82.5h-215v320zM320 64q118 0 180.5 65t62.5 199v54q0 126 -62.5 190t-180.5 64h-140v-256h190v-60h-190v-256h140z" />
    <glyph glyph-name="Ntilde" unicode="&#xd1;" horiz-adv-x="710" 
d="M90 700h104l354 -610h2v610h70v-700h-98l-360 620h-2v-620h-70v700zM417 770q-28 0 -47 11t-34 24t-28.5 24t-30.5 11q-21 0 -33 -13t-12 -42h-50q0 59 25.5 87t69.5 28q28 0 47 -11t34 -24t28.5 -24t30.5 -11q21 0 33 13t12 42h50q0 -59 -25.5 -87t-69.5 -28z" />
    <glyph glyph-name="Ograve" unicode="&#xd2;" horiz-adv-x="710" 
d="M355 -7q-65 0 -118 22t-91.5 64.5t-59.5 105t-21 143.5v54q0 77 21.5 137.5t59.5 102t91.5 63.5t117.5 22t117.5 -21.5t92 -63t59.5 -102t21 -138.5v-54q0 -81 -21.5 -143.5t-59.5 -105t-91.5 -64.5t-117.5 -22zM355 57q48 0 88 17t69 51t45 84.5t16 118.5v54
q0 63 -16.5 111.5t-45.5 82t-69 50.5t-87 17q-48 0 -88 -17t-69 -50t-45 -81.5t-16 -112.5v-54q0 -67 16.5 -117.5t45.5 -84.5t69 -51.5t87 -17.5zM195 915h90l120 -150h-74z" />
    <glyph glyph-name="Oacute" unicode="&#xd3;" horiz-adv-x="710" 
d="M355 -7q-65 0 -118 22t-91.5 64.5t-59.5 105t-21 143.5v54q0 77 21.5 137.5t59.5 102t91.5 63.5t117.5 22t117.5 -21.5t92 -63t59.5 -102t21 -138.5v-54q0 -81 -21.5 -143.5t-59.5 -105t-91.5 -64.5t-117.5 -22zM355 57q48 0 88 17t69 51t45 84.5t16 118.5v54
q0 63 -16.5 111.5t-45.5 82t-69 50.5t-87 17q-48 0 -88 -17t-69 -50t-45 -81.5t-16 -112.5v-54q0 -67 16.5 -117.5t45.5 -84.5t69 -51.5t87 -17.5zM431 915h88l-138 -150h-72z" />
    <glyph glyph-name="Ocircumflex" unicode="&#xd4;" horiz-adv-x="710" 
d="M355 -7q-65 0 -118 22t-91.5 64.5t-59.5 105t-21 143.5v54q0 77 21.5 137.5t59.5 102t91.5 63.5t117.5 22t117.5 -21.5t92 -63t59.5 -102t21 -138.5v-54q0 -81 -21.5 -143.5t-59.5 -105t-91.5 -64.5t-117.5 -22zM355 57q48 0 88 17t69 51t45 84.5t16 118.5v54
q0 63 -16.5 111.5t-45.5 82t-69 50.5t-87 17q-48 0 -88 -17t-69 -50t-45 -81.5t-16 -112.5v-54q0 -67 16.5 -117.5t45.5 -84.5t69 -51.5t87 -17.5zM316 915h78l121 -150h-72l-88 95l-88 -95h-72z" />
    <glyph glyph-name="Otilde" unicode="&#xd5;" horiz-adv-x="710" 
d="M355 -7q-65 0 -118 22t-91.5 64.5t-59.5 105t-21 143.5v54q0 77 21.5 137.5t59.5 102t91.5 63.5t117.5 22t117.5 -21.5t92 -63t59.5 -102t21 -138.5v-54q0 -81 -21.5 -143.5t-59.5 -105t-91.5 -64.5t-117.5 -22zM355 57q48 0 88 17t69 51t45 84.5t16 118.5v54
q0 63 -16.5 111.5t-45.5 82t-69 50.5t-87 17q-48 0 -88 -17t-69 -50t-45 -81.5t-16 -112.5v-54q0 -67 16.5 -117.5t45.5 -84.5t69 -51.5t87 -17.5zM417 770q-28 0 -47 11t-34 24t-28.5 24t-30.5 11q-21 0 -33 -13t-12 -42h-50q0 59 25.5 87t69.5 28q28 0 47 -11t34 -24
t28.5 -24t30.5 -11q21 0 33 13t12 42h50q0 -59 -25.5 -87t-69.5 -28z" />
    <glyph glyph-name="Odieresis" unicode="&#xd6;" horiz-adv-x="710" 
d="M355 -7q-65 0 -118 22t-91.5 64.5t-59.5 105t-21 143.5v54q0 77 21.5 137.5t59.5 102t91.5 63.5t117.5 22t117.5 -21.5t92 -63t59.5 -102t21 -138.5v-54q0 -81 -21.5 -143.5t-59.5 -105t-91.5 -64.5t-117.5 -22zM355 57q48 0 88 17t69 51t45 84.5t16 118.5v54
q0 63 -16.5 111.5t-45.5 82t-69 50.5t-87 17q-48 0 -88 -17t-69 -50t-45 -81.5t-16 -112.5v-54q0 -67 16.5 -117.5t45.5 -84.5t69 -51.5t87 -17.5zM247 788q-20 0 -33.5 13.5t-13.5 33.5t13.5 33.5t33.5 13.5t33.5 -13.5t13.5 -33.5t-13.5 -33.5t-33.5 -13.5zM463 788
q-20 0 -33.5 13.5t-13.5 33.5t13.5 33.5t33.5 13.5t33.5 -13.5t13.5 -33.5t-13.5 -33.5t-33.5 -13.5z" />
    <glyph glyph-name="multiply" unicode="&#xd7;" 
d="M110 222l138 138l-138 138l47 47l138 -138l138 138l47 -47l-138 -138l138 -138l-47 -47l-138 138l-138 -138z" />
    <glyph glyph-name="Oslash" unicode="&#xd8;" horiz-adv-x="710" 
d="M355 -7q-115 0 -192 69l-55 -69l-43 36l60 76q-29 42 -44.5 97.5t-15.5 125.5v54q0 77 21.5 137.5t59.5 102t91.5 63.5t117.5 22q117 0 193 -68l54 68l43 -36l-59 -75q29 -41 44 -94.5t15 -119.5v-54q0 -81 -21.5 -143.5t-59.5 -105t-91.5 -64.5t-117.5 -22zM504 583
q-58 60 -149 60q-48 0 -88 -17t-69 -50t-45 -81.5t-16 -112.5v-54q0 -50 9.5 -90.5t26.5 -72.5zM355 57q48 0 88 17t69 51t45 84.5t16 118.5v54q0 47 -9 85t-26 69l-331 -419q57 -60 148 -60z" />
    <glyph glyph-name="Ugrave" unicode="&#xd9;" horiz-adv-x="690" 
d="M345 -7q-59 0 -107 18.5t-82 54t-52.5 87t-18.5 117.5v430h70v-425q0 -107 52 -162.5t138 -55.5q87 0 138.5 55t51.5 163v425h70v-430q0 -65 -19 -116t-53 -87t-82 -55t-106 -19zM185 915h90l120 -150h-74z" />
    <glyph glyph-name="Uacute" unicode="&#xda;" horiz-adv-x="690" 
d="M345 -7q-59 0 -107 18.5t-82 54t-52.5 87t-18.5 117.5v430h70v-425q0 -107 52 -162.5t138 -55.5q87 0 138.5 55t51.5 163v425h70v-430q0 -65 -19 -116t-53 -87t-82 -55t-106 -19zM421 915h88l-138 -150h-72z" />
    <glyph glyph-name="Ucircumflex" unicode="&#xdb;" horiz-adv-x="690" 
d="M345 -7q-59 0 -107 18.5t-82 54t-52.5 87t-18.5 117.5v430h70v-425q0 -107 52 -162.5t138 -55.5q87 0 138.5 55t51.5 163v425h70v-430q0 -65 -19 -116t-53 -87t-82 -55t-106 -19zM306 915h78l121 -150h-72l-88 95l-88 -95h-72z" />
    <glyph glyph-name="Udieresis" unicode="&#xdc;" horiz-adv-x="690" 
d="M345 -7q-59 0 -107 18.5t-82 54t-52.5 87t-18.5 117.5v430h70v-425q0 -107 52 -162.5t138 -55.5q87 0 138.5 55t51.5 163v425h70v-430q0 -65 -19 -116t-53 -87t-82 -55t-106 -19zM237 788q-20 0 -33.5 13.5t-13.5 33.5t13.5 33.5t33.5 13.5t33.5 -13.5t13.5 -33.5
t-13.5 -33.5t-33.5 -13.5zM453 788q-20 0 -33.5 13.5t-13.5 33.5t13.5 33.5t33.5 13.5t33.5 -13.5t13.5 -33.5t-13.5 -33.5t-33.5 -13.5z" />
    <glyph glyph-name="Yacute" unicode="&#xdd;" horiz-adv-x="650" 
d="M300 255l-270 445h78l228 -374l208 374h76l-250 -445v-255h-70v255zM402 915h88l-138 -150h-72z" />
    <glyph glyph-name="Thorn" unicode="&#xde;" horiz-adv-x="600" 
d="M90 700h70v-123h155q125 0 185 -57t60 -160q0 -102 -61 -159.5t-184 -57.5h-155v-143h-70v700zM160 513v-306h150q95 0 136.5 38.5t41.5 114.5q0 75 -42 114t-136 39h-150z" />
    <glyph glyph-name="germandbls" unicode="&#xdf;" horiz-adv-x="560" 
d="M85 500q0 47 14.5 85t41.5 65t65 42t84 15q44 0 80 -13.5t61.5 -37.5t39.5 -57t14 -71q0 -100 -88 -151v-2q108 -37 108 -163v-24q0 -91 -49.5 -139.5t-145.5 -48.5h-70v60h65q64 0 98 33.5t34 94.5v24q0 61 -34 94.5t-98 33.5h-65v60h50q58 0 92.5 34t34.5 89
q0 56 -34.5 90t-92.5 34q-63 0 -101 -39.5t-38 -112.5v-495h-66v500z" />
    <glyph glyph-name="agrave" unicode="&#xe0;" horiz-adv-x="530" 
d="M215 -7q-83 0 -124 38.5t-41 106.5q0 71 49 113t156 42h129v37q0 60 -29 87.5t-95 27.5q-61 0 -89.5 -21t-32.5 -54h-68q2 27 15 52t36.5 44t58.5 30t80 11q97 0 143.5 -44.5t46.5 -132.5v-330h-52l-8 85h-2q-30 -45 -74.5 -68.5t-98.5 -23.5zM220 55q36 0 66 11.5t52 32
t34 49t12 62.5v27h-124q-77 0 -109.5 -27t-32.5 -72q0 -38 24.5 -60.5t77.5 -22.5zM105 715h88l112 -150h-72z" />
    <glyph glyph-name="aacute" unicode="&#xe1;" horiz-adv-x="530" 
d="M215 -7q-83 0 -124 38.5t-41 106.5q0 71 49 113t156 42h129v37q0 60 -29 87.5t-95 27.5q-61 0 -89.5 -21t-32.5 -54h-68q2 27 15 52t36.5 44t58.5 30t80 11q97 0 143.5 -44.5t46.5 -132.5v-330h-52l-8 85h-2q-30 -45 -74.5 -68.5t-98.5 -23.5zM220 55q36 0 66 11.5t52 32
t34 49t12 62.5v27h-124q-77 0 -109.5 -27t-32.5 -72q0 -38 24.5 -60.5t77.5 -22.5zM329 715h86l-130 -150h-70z" />
    <glyph glyph-name="acircumflex" unicode="&#xe2;" horiz-adv-x="530" 
d="M215 -7q-83 0 -124 38.5t-41 106.5q0 71 49 113t156 42h129v37q0 60 -29 87.5t-95 27.5q-61 0 -89.5 -21t-32.5 -54h-68q2 27 15 52t36.5 44t58.5 30t80 11q97 0 143.5 -44.5t46.5 -132.5v-330h-52l-8 85h-2q-30 -45 -74.5 -68.5t-98.5 -23.5zM220 55q36 0 66 11.5t52 32
t34 49t12 62.5v27h-124q-77 0 -109.5 -27t-32.5 -72q0 -38 24.5 -60.5t77.5 -22.5zM219 715h82l114 -150h-70l-85 95l-85 -95h-70z" />
    <glyph glyph-name="atilde" unicode="&#xe3;" horiz-adv-x="530" 
d="M215 -7q-83 0 -124 38.5t-41 106.5q0 71 49 113t156 42h129v37q0 60 -29 87.5t-95 27.5q-61 0 -89.5 -21t-32.5 -54h-68q2 27 15 52t36.5 44t58.5 30t80 11q97 0 143.5 -44.5t46.5 -132.5v-330h-52l-8 85h-2q-30 -45 -74.5 -68.5t-98.5 -23.5zM220 55q36 0 66 11.5t52 32
t34 49t12 62.5v27h-124q-77 0 -109.5 -27t-32.5 -72q0 -38 24.5 -60.5t77.5 -22.5zM325 570q-25 0 -43 11t-32 24.5t-27 25t-28 11.5q-17 0 -28.5 -13.5t-11.5 -43.5h-50q0 59 25 87t65 28q25 0 43 -11.5t32 -25t27 -24.5t28 -11q17 0 28.5 13.5t11.5 43.5h50q0 -59 -25 -87
t-65 -28z" />
    <glyph glyph-name="adieresis" unicode="&#xe4;" horiz-adv-x="530" 
d="M215 -7q-83 0 -124 38.5t-41 106.5q0 71 49 113t156 42h129v37q0 60 -29 87.5t-95 27.5q-61 0 -89.5 -21t-32.5 -54h-68q2 27 15 52t36.5 44t58.5 30t80 11q97 0 143.5 -44.5t46.5 -132.5v-330h-52l-8 85h-2q-30 -45 -74.5 -68.5t-98.5 -23.5zM220 55q36 0 66 11.5t52 32
t34 49t12 62.5v27h-124q-77 0 -109.5 -27t-32.5 -72q0 -38 24.5 -60.5t77.5 -22.5zM162 588q-20 0 -33.5 13.5t-13.5 33.5t13.5 33.5t33.5 13.5t33.5 -13.5t13.5 -33.5t-13.5 -33.5t-33.5 -13.5zM358 588q-20 0 -33.5 13.5t-13.5 33.5t13.5 33.5t33.5 13.5t33.5 -13.5
t13.5 -33.5t-13.5 -33.5t-33.5 -13.5z" />
    <glyph glyph-name="aring" unicode="&#xe5;" horiz-adv-x="530" 
d="M215 -7q-83 0 -124 38.5t-41 106.5q0 71 49 113t156 42h129v37q0 60 -29 87.5t-95 27.5q-61 0 -89.5 -21t-32.5 -54h-68q2 27 15 52t36.5 44t58.5 30t80 11q97 0 143.5 -44.5t46.5 -132.5v-330h-52l-8 85h-2q-30 -45 -74.5 -68.5t-98.5 -23.5zM220 55q36 0 66 11.5t52 32
t34 49t12 62.5v27h-124q-77 0 -109.5 -27t-32.5 -72q0 -38 24.5 -60.5t77.5 -22.5zM260 533q-46 0 -75.5 29t-29.5 73t29.5 73t75.5 29t75.5 -29t29.5 -73t-29.5 -73t-75.5 -29zM260 581q25 0 40 15t15 39t-15 39t-40 15t-40 -15t-15 -39t15 -39t40 -15z" />
    <glyph glyph-name="ae" unicode="&#xe6;" horiz-adv-x="855" 
d="M210 -7q-79 0 -119.5 38.5t-40.5 106.5q0 34 12 62t37.5 47.5t66.5 30.5t100 11h108v51q0 54 -26.5 79.5t-87.5 25.5q-55 0 -82.5 -21.5t-31.5 -58.5h-71q2 31 14 57t35 45t57 29.5t79 10.5q119 0 159 -85q27 42 70 63.5t98 21.5q48 0 87.5 -15.5t67 -45.5t43 -74
t15.5 -100v-41h-360q0 -90 39.5 -133t107.5 -43q61 0 93 26t47 65h68q-8 -32 -24 -60t-42 -48.5t-61.5 -32.5t-80.5 -12q-65 0 -112.5 29.5t-72.5 85.5q-26 -54 -76 -84.5t-116 -30.5zM589 445q-63 0 -103.5 -39.5t-45.5 -116.5h292q-5 78 -43.5 117t-99.5 39zM210 55
q34 0 64 12.5t52.5 34t35 51t12.5 62.5v16h-108q-44 0 -72.5 -7t-45.5 -19.5t-23.5 -29.5t-6.5 -37q0 -38 23.5 -60.5t68.5 -22.5z" />
    <glyph glyph-name="ccedilla" unicode="&#xe7;" horiz-adv-x="505" 
d="M190 -152h55q27 0 38 9.5t11 27.5t-11 27.5t-38 9.5h-21l18 72q-85 8 -136 69t-51 175v34q0 56 15.5 99.5t43 73.5t66 46t85.5 16q44 0 79 -11.5t60 -32t40 -47t21 -56.5h-68q-11 37 -41 62t-86 25q-64 0 -105.5 -45t-41.5 -130v-34q0 -92 42 -138.5t105 -46.5
q56 0 86 26t41 71h68q-11 -62 -53.5 -105t-117.5 -51l-10 -33q32 -5 49 -24.5t17 -50.5q0 -39 -24 -62.5t-66 -23.5h-70v48z" />
    <glyph glyph-name="egrave" unicode="&#xe8;" horiz-adv-x="540" 
d="M270 -7q-48 0 -88 16t-68 46.5t-43.5 75t-15.5 102.5v34q0 57 15.5 102t44 75.5t68 46.5t87.5 16t88 -16t68 -47t43.5 -76.5t15.5 -105.5v-30h-362q0 -87 38 -133t109 -46q107 0 142 87h68q-18 -72 -71.5 -109.5t-138.5 -37.5zM270 447q-64 0 -103 -40.5t-44 -118.5h294
q-5 81 -44.5 120t-102.5 39zM115 715h88l112 -150h-72z" />
    <glyph glyph-name="eacute" unicode="&#xe9;" horiz-adv-x="540" 
d="M270 -7q-48 0 -88 16t-68 46.5t-43.5 75t-15.5 102.5v34q0 57 15.5 102t44 75.5t68 46.5t87.5 16t88 -16t68 -47t43.5 -76.5t15.5 -105.5v-30h-362q0 -87 38 -133t109 -46q107 0 142 87h68q-18 -72 -71.5 -109.5t-138.5 -37.5zM270 447q-64 0 -103 -40.5t-44 -118.5h294
q-5 81 -44.5 120t-102.5 39zM339 715h86l-130 -150h-70z" />
    <glyph glyph-name="ecircumflex" unicode="&#xea;" horiz-adv-x="540" 
d="M270 -7q-48 0 -88 16t-68 46.5t-43.5 75t-15.5 102.5v34q0 57 15.5 102t44 75.5t68 46.5t87.5 16t88 -16t68 -47t43.5 -76.5t15.5 -105.5v-30h-362q0 -87 38 -133t109 -46q107 0 142 87h68q-18 -72 -71.5 -109.5t-138.5 -37.5zM270 447q-64 0 -103 -40.5t-44 -118.5h294
q-5 81 -44.5 120t-102.5 39zM229 715h82l114 -150h-70l-85 95l-85 -95h-70z" />
    <glyph glyph-name="edieresis" unicode="&#xeb;" horiz-adv-x="540" 
d="M270 -7q-48 0 -88 16t-68 46.5t-43.5 75t-15.5 102.5v34q0 57 15.5 102t44 75.5t68 46.5t87.5 16t88 -16t68 -47t43.5 -76.5t15.5 -105.5v-30h-362q0 -87 38 -133t109 -46q107 0 142 87h68q-18 -72 -71.5 -109.5t-138.5 -37.5zM270 447q-64 0 -103 -40.5t-44 -118.5h294
q-5 81 -44.5 120t-102.5 39zM172 588q-20 0 -33.5 13.5t-13.5 33.5t13.5 33.5t33.5 13.5t33.5 -13.5t13.5 -33.5t-13.5 -33.5t-33.5 -13.5zM368 588q-20 0 -33.5 13.5t-13.5 33.5t13.5 33.5t33.5 13.5t33.5 -13.5t13.5 -33.5t-13.5 -33.5t-33.5 -13.5z" />
    <glyph glyph-name="igrave" unicode="&#xec;" horiz-adv-x="256" 
d="M95 500h66v-500h-66v500zM-26 715h88l112 -150h-72z" />
    <glyph glyph-name="iacute" unicode="&#xed;" horiz-adv-x="256" 
d="M95 500h66v-500h-66v500zM197 715h86l-130 -150h-70z" />
    <glyph glyph-name="icircumflex" unicode="&#xee;" horiz-adv-x="256" 
d="M95 500h66v-500h-66v500zM88 715h82l114 -150h-70l-85 95l-85 -95h-70z" />
    <glyph glyph-name="idieresis" unicode="&#xef;" horiz-adv-x="256" 
d="M95 500h66v-500h-66v500zM31 588q-20 0 -33.5 13.5t-13.5 33.5t13.5 33.5t33.5 13.5t33.5 -13.5t13.5 -33.5t-13.5 -33.5t-33.5 -13.5zM227 588q-20 0 -33.5 13.5t-13.5 33.5t13.5 33.5t33.5 13.5t33.5 -13.5t13.5 -33.5t-13.5 -33.5t-33.5 -13.5z" />
    <glyph glyph-name="eth" unicode="&#xf0;" horiz-adv-x="545" 
d="M270 -7q-47 0 -86.5 16t-68 45.5t-44.5 71t-16 92.5v44q0 51 16 92.5t43.5 71t64.5 45.5t79 16q69 0 118 -37q-21 35 -48 69.5t-59 67.5l-104 -57v50l71 39q-22 21 -45.5 41t-46.5 40h87q28 -24 58 -52l96 52v-50l-64 -35q33 -34 62.5 -73t52 -83t36 -93.5t13.5 -103.5
v-44q0 -51 -16 -92.5t-44.5 -71t-68 -45.5t-86.5 -16zM123 218q0 -77 41 -120t106 -43q66 0 106.5 42.5t40.5 120.5v44q0 78 -40.5 120.5t-106.5 42.5t-106.5 -42.5t-40.5 -120.5v-44z" />
    <glyph glyph-name="ntilde" unicode="&#xf1;" horiz-adv-x="575" 
d="M85 500h52l8 -75h2q60 82 159 82q89 0 139 -51.5t50 -150.5v-305h-66v300q0 75 -34.5 111t-99.5 36q-32 0 -58.5 -10.5t-45.5 -30t-29.5 -46.5t-10.5 -60v-300h-66v500zM355 570q-25 0 -43 11t-32 24.5t-27 25t-28 11.5q-17 0 -28.5 -13.5t-11.5 -43.5h-50q0 59 25 87
t65 28q25 0 43 -11.5t32 -25t27 -24.5t28 -11q17 0 28.5 13.5t11.5 43.5h50q0 -59 -25 -87t-65 -28z" />
    <glyph glyph-name="ograve" unicode="&#xf2;" horiz-adv-x="550" 
d="M275 -7q-101 0 -160.5 62t-59.5 178v34q0 57 15.5 102t44.5 75.5t69.5 46.5t90.5 16q101 0 160.5 -62t59.5 -178v-34q0 -57 -15.5 -102t-44.5 -75.5t-69.5 -46.5t-90.5 -16zM275 53q69 0 110.5 45t41.5 135v34q0 89 -42 134.5t-110 45.5q-69 0 -110.5 -45t-41.5 -135v-34
q0 -89 42 -134.5t110 -45.5zM120 715h88l112 -150h-72z" />
    <glyph glyph-name="oacute" unicode="&#xf3;" horiz-adv-x="550" 
d="M275 -7q-101 0 -160.5 62t-59.5 178v34q0 57 15.5 102t44.5 75.5t69.5 46.5t90.5 16q101 0 160.5 -62t59.5 -178v-34q0 -57 -15.5 -102t-44.5 -75.5t-69.5 -46.5t-90.5 -16zM275 53q69 0 110.5 45t41.5 135v34q0 89 -42 134.5t-110 45.5q-69 0 -110.5 -45t-41.5 -135v-34
q0 -89 42 -134.5t110 -45.5zM344 715h86l-130 -150h-70z" />
    <glyph glyph-name="ocircumflex" unicode="&#xf4;" horiz-adv-x="550" 
d="M275 -7q-101 0 -160.5 62t-59.5 178v34q0 57 15.5 102t44.5 75.5t69.5 46.5t90.5 16q101 0 160.5 -62t59.5 -178v-34q0 -57 -15.5 -102t-44.5 -75.5t-69.5 -46.5t-90.5 -16zM275 53q69 0 110.5 45t41.5 135v34q0 89 -42 134.5t-110 45.5q-69 0 -110.5 -45t-41.5 -135v-34
q0 -89 42 -134.5t110 -45.5zM234 715h82l114 -150h-70l-85 95l-85 -95h-70z" />
    <glyph glyph-name="otilde" unicode="&#xf5;" horiz-adv-x="550" 
d="M275 -7q-101 0 -160.5 62t-59.5 178v34q0 57 15.5 102t44.5 75.5t69.5 46.5t90.5 16q101 0 160.5 -62t59.5 -178v-34q0 -57 -15.5 -102t-44.5 -75.5t-69.5 -46.5t-90.5 -16zM275 53q69 0 110.5 45t41.5 135v34q0 89 -42 134.5t-110 45.5q-69 0 -110.5 -45t-41.5 -135v-34
q0 -89 42 -134.5t110 -45.5zM340 570q-25 0 -43 11t-32 24.5t-27 25t-28 11.5q-17 0 -28.5 -13.5t-11.5 -43.5h-50q0 59 25 87t65 28q25 0 43 -11.5t32 -25t27 -24.5t28 -11q17 0 28.5 13.5t11.5 43.5h50q0 -59 -25 -87t-65 -28z" />
    <glyph glyph-name="odieresis" unicode="&#xf6;" horiz-adv-x="550" 
d="M275 -7q-101 0 -160.5 62t-59.5 178v34q0 57 15.5 102t44.5 75.5t69.5 46.5t90.5 16q101 0 160.5 -62t59.5 -178v-34q0 -57 -15.5 -102t-44.5 -75.5t-69.5 -46.5t-90.5 -16zM275 53q69 0 110.5 45t41.5 135v34q0 89 -42 134.5t-110 45.5q-69 0 -110.5 -45t-41.5 -135v-34
q0 -89 42 -134.5t110 -45.5zM177 588q-20 0 -33.5 13.5t-13.5 33.5t13.5 33.5t33.5 13.5t33.5 -13.5t13.5 -33.5t-13.5 -33.5t-33.5 -13.5zM373 588q-20 0 -33.5 13.5t-13.5 33.5t13.5 33.5t33.5 13.5t33.5 -13.5t13.5 -33.5t-13.5 -33.5t-33.5 -13.5z" />
    <glyph glyph-name="divide" unicode="&#xf7;" 
d="M75 392h440v-64h-440v64zM295 495q-24 0 -39.5 15.5t-15.5 39.5t15.5 39.5t39.5 15.5t39.5 -15.5t15.5 -39.5t-15.5 -39.5t-39.5 -15.5zM295 115q-24 0 -39.5 15.5t-15.5 39.5t15.5 39.5t39.5 15.5t39.5 -15.5t15.5 -39.5t-15.5 -39.5t-39.5 -15.5z" />
    <glyph glyph-name="oslash" unicode="&#xf8;" horiz-adv-x="550" 
d="M275 -7q-87 0 -142 45l-38 -45l-40 33l42 51q-20 29 -31 68.5t-11 87.5v34q0 57 15.5 102t44.5 75.5t69.5 46.5t90.5 16q86 0 142 -45l38 45l40 -33l-42 -51q20 -29 31 -68.5t11 -87.5v-34q0 -57 -15.5 -102t-44.5 -75.5t-69.5 -46.5t-90.5 -16zM375 411q-39 36 -100 36
q-69 0 -110.5 -45t-41.5 -135v-34q0 -59 20 -101zM275 53q69 0 110.5 45t41.5 135v34q0 59 -20 101l-232 -279q39 -36 100 -36z" />
    <glyph glyph-name="ugrave" unicode="&#xf9;" horiz-adv-x="565" 
d="M259 -7q-81 0 -130 51.5t-49 150.5v305h66v-300q0 -75 33.5 -111t90.5 -36q32 0 58.5 10.5t45.5 30t29.5 46.5t10.5 60v300h66v-500h-52l-8 75h-2q-57 -82 -159 -82zM125 715h88l112 -150h-72z" />
    <glyph glyph-name="uacute" unicode="&#xfa;" horiz-adv-x="565" 
d="M259 -7q-81 0 -130 51.5t-49 150.5v305h66v-300q0 -75 33.5 -111t90.5 -36q32 0 58.5 10.5t45.5 30t29.5 46.5t10.5 60v300h66v-500h-52l-8 75h-2q-57 -82 -159 -82zM349 715h86l-130 -150h-70z" />
    <glyph glyph-name="ucircumflex" unicode="&#xfb;" horiz-adv-x="565" 
d="M259 -7q-81 0 -130 51.5t-49 150.5v305h66v-300q0 -75 33.5 -111t90.5 -36q32 0 58.5 10.5t45.5 30t29.5 46.5t10.5 60v300h66v-500h-52l-8 75h-2q-57 -82 -159 -82zM239 715h82l114 -150h-70l-85 95l-85 -95h-70z" />
    <glyph glyph-name="udieresis" unicode="&#xfc;" horiz-adv-x="565" 
d="M259 -7q-81 0 -130 51.5t-49 150.5v305h66v-300q0 -75 33.5 -111t90.5 -36q32 0 58.5 10.5t45.5 30t29.5 46.5t10.5 60v300h66v-500h-52l-8 75h-2q-57 -82 -159 -82zM182 588q-20 0 -33.5 13.5t-13.5 33.5t13.5 33.5t33.5 13.5t33.5 -13.5t13.5 -33.5t-13.5 -33.5
t-33.5 -13.5zM378 588q-20 0 -33.5 13.5t-13.5 33.5t13.5 33.5t33.5 13.5t33.5 -13.5t13.5 -33.5t-13.5 -33.5t-33.5 -13.5z" />
    <glyph glyph-name="yacute" unicode="&#xfd;" horiz-adv-x="520" 
d="M234 0l-209 500h72l171 -418h2l157 418h68l-270 -700h-68zM331 715h86l-130 -150h-70z" />
    <glyph glyph-name="thorn" unicode="&#xfe;" horiz-adv-x="570" 
d="M85 700h66v-270h2q53 77 161 77q44 0 81 -15.5t63.5 -46t41.5 -75.5t15 -103v-34q0 -58 -15 -102.5t-42 -75t-64 -46.5t-80 -16q-108 0 -161 77h-2v-270h-66v900zM299 53q66 0 107 44.5t41 135.5v34q0 89 -41.5 134.5t-106.5 45.5q-66 0 -107 -44.5t-41 -135.5v-34
q0 -89 41.5 -134.5t106.5 -45.5z" />
    <glyph glyph-name="ydieresis" unicode="&#xff;" horiz-adv-x="520" 
d="M234 0l-209 500h72l171 -418h2l157 418h68l-270 -700h-68zM164 588q-20 0 -33.5 13.5t-13.5 33.5t13.5 33.5t33.5 13.5t33.5 -13.5t13.5 -33.5t-13.5 -33.5t-33.5 -13.5zM360 588q-20 0 -33.5 13.5t-13.5 33.5t13.5 33.5t33.5 13.5t33.5 -13.5t13.5 -33.5t-13.5 -33.5
t-33.5 -13.5z" />
    <glyph glyph-name="Amacron" unicode="&#x100;" horiz-adv-x="660" 
d="M290 700h80l260 -700h-76l-73 203h-306l-73 -203h-72zM458 267l-128 358h-2l-130 -358h260zM185 864h290v-58h-290v58z" />
    <glyph glyph-name="amacron" unicode="&#x101;" horiz-adv-x="530" 
d="M215 -7q-83 0 -124 38.5t-41 106.5q0 71 49 113t156 42h129v37q0 60 -29 87.5t-95 27.5q-61 0 -89.5 -21t-32.5 -54h-68q2 27 15 52t36.5 44t58.5 30t80 11q97 0 143.5 -44.5t46.5 -132.5v-330h-52l-8 85h-2q-30 -45 -74.5 -68.5t-98.5 -23.5zM220 55q36 0 66 11.5t52 32
t34 49t12 62.5v27h-124q-77 0 -109.5 -27t-32.5 -72q0 -38 24.5 -60.5t77.5 -22.5zM125 663h270v-56h-270v56z" />
    <glyph glyph-name="Abreve" unicode="&#x102;" horiz-adv-x="660" 
d="M290 700h80l260 -700h-76l-73 203h-306l-73 -203h-72zM458 267l-128 358h-2l-130 -358h260zM330 763q-68 0 -106.5 37.5t-38.5 99.5h60q2 -38 23 -58.5t62 -20.5t62 20.5t23 58.5h60q0 -62 -38.5 -99.5t-106.5 -37.5z" />
    <glyph glyph-name="abreve" unicode="&#x103;" horiz-adv-x="530" 
d="M215 -7q-83 0 -124 38.5t-41 106.5q0 71 49 113t156 42h129v37q0 60 -29 87.5t-95 27.5q-61 0 -89.5 -21t-32.5 -54h-68q2 27 15 52t36.5 44t58.5 30t80 11q97 0 143.5 -44.5t46.5 -132.5v-330h-52l-8 85h-2q-30 -45 -74.5 -68.5t-98.5 -23.5zM220 55q36 0 66 11.5t52 32
t34 49t12 62.5v27h-124q-77 0 -109.5 -27t-32.5 -72q0 -38 24.5 -60.5t77.5 -22.5zM260 563q-60 0 -97.5 37.5t-37.5 99.5h58q2 -39 22 -60t55 -21t55 21t22 60h58q0 -62 -37.5 -99.5t-97.5 -37.5z" />
    <glyph glyph-name="Aogonek" unicode="&#x104;" horiz-adv-x="660" 
d="M290 700h80l260 -700q-26 -25 -42.5 -42.5t-26.5 -30.5t-13.5 -23t-3.5 -20q0 -28 36 -28h50v-56h-60q-45 0 -67.5 21t-22.5 56q0 30 16.5 59t56.5 67l-72 200h-306l-73 -203h-72zM458 267l-128 358h-2l-130 -358h260z" />
    <glyph glyph-name="aogonek" unicode="&#x105;" horiz-adv-x="530" 
d="M215 -7q-83 0 -124 38.5t-41 106.5q0 71 49 113t156 42h129v37q0 60 -29 87.5t-95 27.5q-61 0 -89.5 -21t-32.5 -54h-68q2 27 15 52t36.5 44t58.5 30t80 11q97 0 143.5 -44.5t46.5 -132.5v-330h-5q-27 -26 -44 -43.5t-27 -30.5t-13.5 -22.5t-3.5 -19.5q0 -14 9 -22t29 -8
h50v-54h-60q-45 0 -67.5 21t-22.5 56q0 16 5 32t17 33.5t31 37.5t48 45l-6 60h-2q-30 -45 -74.5 -68.5t-98.5 -23.5zM220 55q36 0 66 11.5t52 32t34 49t12 62.5v27h-124q-77 0 -109.5 -27t-32.5 -72q0 -38 24.5 -60.5t77.5 -22.5z" />
    <glyph glyph-name="Cacute" unicode="&#x106;" horiz-adv-x="670" 
d="M350 -7q-63 0 -115 22t-90 64.5t-59 105t-21 143.5v54q0 77 21 137.5t59 102t90.5 63.5t114.5 22q57 0 102.5 -16.5t79.5 -44.5t54.5 -65.5t28.5 -80.5h-74q-8 30 -23.5 56t-39.5 45.5t-56 30.5t-72 11q-46 0 -85 -17t-67.5 -50t-44.5 -81.5t-16 -112.5v-54
q0 -67 16.5 -118t45 -85t67.5 -51t84 -17q81 0 128.5 43t62.5 110h74q-8 -47 -28.5 -86.5t-54.5 -68.5t-79.5 -45.5t-102.5 -16.5zM426 915h88l-138 -150h-72z" />
    <glyph glyph-name="cacute" unicode="&#x107;" horiz-adv-x="505" 
d="M265 -7q-47 0 -86 15.5t-66.5 46.5t-42.5 77t-15 106v34q0 56 15.5 99.5t43 73.5t66 46t85.5 16q44 0 79 -11.5t60 -32t40 -47t21 -56.5h-68q-11 37 -41 62t-86 25q-64 0 -105.5 -45t-41.5 -130v-34q0 -92 42 -138.5t105 -46.5q56 0 86 26t41 71h68q-6 -34 -21 -62.5
t-40 -49.5t-60 -33t-79 -12zM339 715h86l-130 -150h-70z" />
    <glyph glyph-name="Ccircumflex" unicode="&#x108;" horiz-adv-x="670" 
d="M350 -7q-63 0 -115 22t-90 64.5t-59 105t-21 143.5v54q0 77 21 137.5t59 102t90.5 63.5t114.5 22q57 0 102.5 -16.5t79.5 -44.5t54.5 -65.5t28.5 -80.5h-74q-8 30 -23.5 56t-39.5 45.5t-56 30.5t-72 11q-46 0 -85 -17t-67.5 -50t-44.5 -81.5t-16 -112.5v-54
q0 -67 16.5 -118t45 -85t67.5 -51t84 -17q81 0 128.5 43t62.5 110h74q-8 -47 -28.5 -86.5t-54.5 -68.5t-79.5 -45.5t-102.5 -16.5zM311 915h78l121 -150h-72l-88 95l-88 -95h-72z" />
    <glyph glyph-name="ccircumflex" unicode="&#x109;" horiz-adv-x="505" 
d="M265 -7q-47 0 -86 15.5t-66.5 46.5t-42.5 77t-15 106v34q0 56 15.5 99.5t43 73.5t66 46t85.5 16q44 0 79 -11.5t60 -32t40 -47t21 -56.5h-68q-11 37 -41 62t-86 25q-64 0 -105.5 -45t-41.5 -130v-34q0 -92 42 -138.5t105 -46.5q56 0 86 26t41 71h68q-6 -34 -21 -62.5
t-40 -49.5t-60 -33t-79 -12zM229 715h82l114 -150h-70l-85 95l-85 -95h-70z" />
    <glyph glyph-name="Cdotaccent" unicode="&#x10a;" horiz-adv-x="670" 
d="M350 -7q-63 0 -115 22t-90 64.5t-59 105t-21 143.5v54q0 77 21 137.5t59 102t90.5 63.5t114.5 22q57 0 102.5 -16.5t79.5 -44.5t54.5 -65.5t28.5 -80.5h-74q-8 30 -23.5 56t-39.5 45.5t-56 30.5t-72 11q-46 0 -85 -17t-67.5 -50t-44.5 -81.5t-16 -112.5v-54
q0 -67 16.5 -118t45 -85t67.5 -51t84 -17q81 0 128.5 43t62.5 110h74q-8 -47 -28.5 -86.5t-54.5 -68.5t-79.5 -45.5t-102.5 -16.5zM350 788q-20 0 -33.5 13.5t-13.5 33.5t13.5 33.5t33.5 13.5t33.5 -13.5t13.5 -33.5t-13.5 -33.5t-33.5 -13.5z" />
    <glyph glyph-name="cdotaccent" unicode="&#x10b;" horiz-adv-x="505" 
d="M265 -7q-47 0 -86 15.5t-66.5 46.5t-42.5 77t-15 106v34q0 56 15.5 99.5t43 73.5t66 46t85.5 16q44 0 79 -11.5t60 -32t40 -47t21 -56.5h-68q-11 37 -41 62t-86 25q-64 0 -105.5 -45t-41.5 -130v-34q0 -92 42 -138.5t105 -46.5q56 0 86 26t41 71h68q-6 -34 -21 -62.5
t-40 -49.5t-60 -33t-79 -12zM270 588q-20 0 -33.5 13.5t-13.5 33.5t13.5 33.5t33.5 13.5t33.5 -13.5t13.5 -33.5t-13.5 -33.5t-33.5 -13.5z" />
    <glyph glyph-name="Ccaron" unicode="&#x10c;" horiz-adv-x="670" 
d="M350 -7q-63 0 -115 22t-90 64.5t-59 105t-21 143.5v54q0 77 21 137.5t59 102t90.5 63.5t114.5 22q57 0 102.5 -16.5t79.5 -44.5t54.5 -65.5t28.5 -80.5h-74q-8 30 -23.5 56t-39.5 45.5t-56 30.5t-72 11q-46 0 -85 -17t-67.5 -50t-44.5 -81.5t-16 -112.5v-54
q0 -67 16.5 -118t45 -85t67.5 -51t84 -17q81 0 128.5 43t62.5 110h74q-8 -47 -28.5 -86.5t-54.5 -68.5t-79.5 -45.5t-102.5 -16.5zM190 915h72l88 -95l88 95h72l-121 -150h-78z" />
    <glyph glyph-name="ccaron" unicode="&#x10d;" horiz-adv-x="505" 
d="M265 -7q-47 0 -86 15.5t-66.5 46.5t-42.5 77t-15 106v34q0 56 15.5 99.5t43 73.5t66 46t85.5 16q44 0 79 -11.5t60 -32t40 -47t21 -56.5h-68q-11 37 -41 62t-86 25q-64 0 -105.5 -45t-41.5 -130v-34q0 -92 42 -138.5t105 -46.5q56 0 86 26t41 71h68q-6 -34 -21 -62.5
t-40 -49.5t-60 -33t-79 -12zM115 715h70l85 -95l85 95h70l-114 -150h-82z" />
    <glyph glyph-name="Dcaron" unicode="&#x10e;" horiz-adv-x="680" 
d="M90 700h215q150 0 230 -81t80 -237v-54q0 -163 -80.5 -245.5t-229.5 -82.5h-215v700zM300 64q118 0 180.5 65t62.5 199v54q0 126 -62.5 190t-180.5 64h-140v-572h140zM160 915h72l88 -95l88 95h72l-121 -150h-78z" />
    <glyph glyph-name="dcaron" unicode="&#x10f;" horiz-adv-x="570" 
d="M256 -7q-44 0 -81 15.5t-63.5 46t-41.5 75t-15 103.5v34q0 58 15 102.5t42 75t64 46.5t80 16q108 0 161 -77h2v270h66v-700h-52q0 5 -1.5 15.5t-2.5 22t-2.5 22t-1.5 15.5h-2q-34 -42 -74 -62t-93 -20zM271 53q66 0 107 44.5t41 135.5v34q0 89 -41.5 134.5t-106.5 45.5
q-66 0 -107 -44.5t-41 -135.5v-34q0 -89 41.5 -134.5t106.5 -45.5zM545 700h70l-18 -150h-52v150z" />
    <glyph glyph-name="Dcroat" unicode="&#x110;" horiz-adv-x="700" 
d="M110 320h-90v60h90v320h215q150 0 230 -81t80 -237v-54q0 -163 -80.5 -245.5t-229.5 -82.5h-215v320zM320 64q118 0 180.5 65t62.5 199v54q0 126 -62.5 190t-180.5 64h-140v-256h190v-60h-190v-256h140z" />
    <glyph glyph-name="dcroat" unicode="&#x111;" horiz-adv-x="570" 
d="M256 -7q-44 0 -81 15.5t-63.5 45t-41.5 72t-15 97.5v34q0 54 15 96.5t42 72.5t64 45.5t80 15.5q108 0 161 -77h2v134h-214v52h214v104h66v-104h80v-52h-80v-544h-52l-8 75h-2q-34 -42 -74 -62t-93 -20zM271 53q66 0 107 43.5t41 126.5v34q0 81 -41.5 125.5t-106.5 44.5
q-66 0 -107 -43.5t-41 -126.5v-34q0 -81 41.5 -125.5t106.5 -44.5z" />
    <glyph glyph-name="Emacron" unicode="&#x112;" horiz-adv-x="560" 
d="M90 700h420v-64h-350v-244h290v-64h-290v-264h350v-64h-420v700zM155 864h290v-58h-290v58z" />
    <glyph glyph-name="emacron" unicode="&#x113;" horiz-adv-x="540" 
d="M270 -7q-48 0 -88 16t-68 46.5t-43.5 75t-15.5 102.5v34q0 57 15.5 102t44 75.5t68 46.5t87.5 16t88 -16t68 -47t43.5 -76.5t15.5 -105.5v-30h-362q0 -87 38 -133t109 -46q107 0 142 87h68q-18 -72 -71.5 -109.5t-138.5 -37.5zM270 447q-64 0 -103 -40.5t-44 -118.5h294
q-5 81 -44.5 120t-102.5 39zM135 663h270v-56h-270v56z" />
    <glyph glyph-name="Ebreve" unicode="&#x114;" horiz-adv-x="560" 
d="M90 700h420v-64h-350v-244h290v-64h-290v-264h350v-64h-420v700zM300 763q-68 0 -106.5 37.5t-38.5 99.5h60q2 -38 23 -58.5t62 -20.5t62 20.5t23 58.5h60q0 -62 -38.5 -99.5t-106.5 -37.5z" />
    <glyph glyph-name="ebreve" unicode="&#x115;" horiz-adv-x="540" 
d="M270 -7q-48 0 -88 16t-68 46.5t-43.5 75t-15.5 102.5v34q0 57 15.5 102t44 75.5t68 46.5t87.5 16t88 -16t68 -47t43.5 -76.5t15.5 -105.5v-30h-362q0 -87 38 -133t109 -46q107 0 142 87h68q-18 -72 -71.5 -109.5t-138.5 -37.5zM270 447q-64 0 -103 -40.5t-44 -118.5h294
q-5 81 -44.5 120t-102.5 39zM270 563q-60 0 -97.5 37.5t-37.5 99.5h58q2 -39 22 -60t55 -21t55 21t22 60h58q0 -62 -37.5 -99.5t-97.5 -37.5z" />
    <glyph glyph-name="Edotaccent" unicode="&#x116;" horiz-adv-x="560" 
d="M90 700h420v-64h-350v-244h290v-64h-290v-264h350v-64h-420v700zM300 788q-20 0 -33.5 13.5t-13.5 33.5t13.5 33.5t33.5 13.5t33.5 -13.5t13.5 -33.5t-13.5 -33.5t-33.5 -13.5z" />
    <glyph glyph-name="edotaccent" unicode="&#x117;" horiz-adv-x="540" 
d="M270 -7q-48 0 -88 16t-68 46.5t-43.5 75t-15.5 102.5v34q0 57 15.5 102t44 75.5t68 46.5t87.5 16t88 -16t68 -47t43.5 -76.5t15.5 -105.5v-30h-362q0 -87 38 -133t109 -46q107 0 142 87h68q-18 -72 -71.5 -109.5t-138.5 -37.5zM270 447q-64 0 -103 -40.5t-44 -118.5h294
q-5 81 -44.5 120t-102.5 39zM270 588q-20 0 -33.5 13.5t-13.5 33.5t13.5 33.5t33.5 13.5t33.5 -13.5t13.5 -33.5t-13.5 -33.5t-33.5 -13.5z" />
    <glyph glyph-name="Eogonek" unicode="&#x118;" horiz-adv-x="560" 
d="M90 700h420v-64h-350v-244h290v-64h-290v-264h350v-64q-26 -25 -42.5 -42.5t-26.5 -30.5t-13.5 -23t-3.5 -20q0 -28 36 -28h50v-56h-60q-45 0 -67.5 21t-22.5 56q0 29 15.5 57.5t53.5 65.5h-339v700z" />
    <glyph glyph-name="eogonek" unicode="&#x119;" horiz-adv-x="540" 
d="M395 -200q-48 0 -71.5 21.5t-23.5 58.5q0 13 2 25.5t7.5 27t15 33t24.5 42.5q-19 -8 -38 -11.5t-41 -3.5q-98 0 -156.5 61t-58.5 174v44q0 113 58.5 174t156.5 61t156.5 -61t58.5 -174v-41h-362q0 -90 39.5 -133t107.5 -43q62 0 94.5 26t47.5 65h68q-7 -32 -27 -66
q-27 -46 -44.5 -75t-28 -49.5t-14.5 -36.5t-4 -34q0 -14 9.5 -22.5t28.5 -8.5h50v-54h-55zM270 445q-64 0 -103 -40.5t-44 -115.5h294q-5 78 -44.5 117t-102.5 39z" />
    <glyph glyph-name="Ecaron" unicode="&#x11a;" horiz-adv-x="560" 
d="M90 700h420v-64h-350v-244h290v-64h-290v-264h350v-64h-420v700zM140 915h72l88 -95l88 95h72l-121 -150h-78z" />
    <glyph glyph-name="ecaron" unicode="&#x11b;" horiz-adv-x="540" 
d="M270 -7q-48 0 -88 16t-68 46.5t-43.5 75t-15.5 102.5v34q0 57 15.5 102t44 75.5t68 46.5t87.5 16t88 -16t68 -47t43.5 -76.5t15.5 -105.5v-30h-362q0 -87 38 -133t109 -46q107 0 142 87h68q-18 -72 -71.5 -109.5t-138.5 -37.5zM270 447q-64 0 -103 -40.5t-44 -118.5h294
q-5 81 -44.5 120t-102.5 39zM115 715h70l85 -95l85 95h70l-114 -150h-82z" />
    <glyph glyph-name="Gcircumflex" unicode="&#x11c;" horiz-adv-x="690" 
d="M350 -7q-63 0 -115 22t-90 64.5t-59 105t-21 143.5v54q0 77 21 137.5t59 102t90.5 63.5t114.5 22q58 0 104.5 -16.5t80.5 -44.5t55 -66t29 -80h-74q-8 30 -23.5 56t-40 45.5t-57 30.5t-74.5 11q-46 0 -85 -17t-67.5 -50t-44.5 -82t-16 -112v-54q0 -67 16.5 -117.5
t45 -84.5t67.5 -51.5t84 -17.5q48 0 86 13t64.5 41t41.5 72t18 106h-210v64h275v-23q0 -86 -19.5 -149.5t-55 -105t-86.5 -62t-114 -20.5zM311 915h78l121 -150h-72l-88 95l-88 -95h-72z" />
    <glyph glyph-name="gcircumflex" unicode="&#x11d;" horiz-adv-x="570" 
d="M256 13q-44 0 -81 15.5t-63.5 45t-41.5 72t-15 97.5v34q0 54 15 96.5t42 72.5t64 45.5t80 15.5q54 0 94 -19.5t73 -62.5h2l8 75h52v-505q0 -97 -52.5 -149.5t-149.5 -52.5q-94 0 -139.5 41t-53.5 111h68q8 -45 35.5 -68.5t89.5 -23.5q69 0 102.5 35t33.5 112v90h-2
q-53 -77 -161 -77zM270 73q67 0 108 43.5t41 126.5v34q0 81 -41.5 125.5t-106.5 44.5q-66 0 -107 -43.5t-41 -126.5v-34q0 -81 41.5 -125.5t105.5 -44.5zM229 715h82l114 -150h-70l-85 95l-85 -95h-70z" />
    <glyph glyph-name="Gbreve" unicode="&#x11e;" horiz-adv-x="690" 
d="M350 -7q-63 0 -115 22t-90 64.5t-59 105t-21 143.5v54q0 77 21 137.5t59 102t90.5 63.5t114.5 22q58 0 104.5 -16.5t80.5 -44.5t55 -66t29 -80h-74q-8 30 -23.5 56t-40 45.5t-57 30.5t-74.5 11q-46 0 -85 -17t-67.5 -50t-44.5 -82t-16 -112v-54q0 -67 16.5 -117.5
t45 -84.5t67.5 -51.5t84 -17.5q48 0 86 13t64.5 41t41.5 72t18 106h-210v64h275v-23q0 -86 -19.5 -149.5t-55 -105t-86.5 -62t-114 -20.5zM350 763q-68 0 -106.5 37.5t-38.5 99.5h60q2 -38 23 -58.5t62 -20.5t62 20.5t23 58.5h60q0 -62 -38.5 -99.5t-106.5 -37.5z" />
    <glyph glyph-name="gbreve" unicode="&#x11f;" horiz-adv-x="570" 
d="M256 13q-44 0 -81 15.5t-63.5 45t-41.5 72t-15 97.5v34q0 54 15 96.5t42 72.5t64 45.5t80 15.5q54 0 94 -19.5t73 -62.5h2l8 75h52v-505q0 -97 -52.5 -149.5t-149.5 -52.5q-94 0 -139.5 41t-53.5 111h68q8 -45 35.5 -68.5t89.5 -23.5q69 0 102.5 35t33.5 112v90h-2
q-53 -77 -161 -77zM270 73q67 0 108 43.5t41 126.5v34q0 81 -41.5 125.5t-106.5 44.5q-66 0 -107 -43.5t-41 -126.5v-34q0 -81 41.5 -125.5t105.5 -44.5zM270 563q-60 0 -97.5 37.5t-37.5 99.5h58q2 -39 22 -60t55 -21t55 21t22 60h58q0 -62 -37.5 -99.5t-97.5 -37.5z" />
    <glyph glyph-name="Gdotaccent" unicode="&#x120;" horiz-adv-x="690" 
d="M350 -7q-63 0 -115 22t-90 64.5t-59 105t-21 143.5v54q0 77 21 137.5t59 102t90.5 63.5t114.5 22q58 0 104.5 -16.5t80.5 -44.5t55 -66t29 -80h-74q-8 30 -23.5 56t-40 45.5t-57 30.5t-74.5 11q-46 0 -85 -17t-67.5 -50t-44.5 -82t-16 -112v-54q0 -67 16.5 -117.5
t45 -84.5t67.5 -51.5t84 -17.5q48 0 86 13t64.5 41t41.5 72t18 106h-210v64h275v-23q0 -86 -19.5 -149.5t-55 -105t-86.5 -62t-114 -20.5zM350 788q-20 0 -33.5 13.5t-13.5 33.5t13.5 33.5t33.5 13.5t33.5 -13.5t13.5 -33.5t-13.5 -33.5t-33.5 -13.5z" />
    <glyph glyph-name="gdotaccent" unicode="&#x121;" horiz-adv-x="570" 
d="M256 13q-44 0 -81 15.5t-63.5 45t-41.5 72t-15 97.5v34q0 54 15 96.5t42 72.5t64 45.5t80 15.5q54 0 94 -19.5t73 -62.5h2l8 75h52v-505q0 -97 -52.5 -149.5t-149.5 -52.5q-94 0 -139.5 41t-53.5 111h68q8 -45 35.5 -68.5t89.5 -23.5q69 0 102.5 35t33.5 112v90h-2
q-53 -77 -161 -77zM270 73q67 0 108 43.5t41 126.5v34q0 81 -41.5 125.5t-106.5 44.5q-66 0 -107 -43.5t-41 -126.5v-34q0 -81 41.5 -125.5t105.5 -44.5zM270 588q-20 0 -33.5 13.5t-13.5 33.5t13.5 33.5t33.5 13.5t33.5 -13.5t13.5 -33.5t-13.5 -33.5t-33.5 -13.5z" />
    <glyph glyph-name="uni0122" unicode="&#x122;" horiz-adv-x="690" 
d="M350 -7q-63 0 -115 22t-90 64.5t-59 105t-21 143.5v54q0 77 21 137.5t59 102t90.5 63.5t114.5 22q58 0 104.5 -16.5t80.5 -44.5t55 -66t29 -80h-74q-8 30 -23.5 56t-40 45.5t-57 30.5t-74.5 11q-46 0 -85 -17t-67.5 -50t-44.5 -82t-16 -112v-54q0 -67 16.5 -117.5
t45 -84.5t67.5 -51.5t84 -17.5q48 0 86 13t64.5 41t41.5 72t18 106h-210v64h275v-23q0 -86 -19.5 -149.5t-55 -105t-86.5 -62t-114 -20.5zM321 -50h78l-88 -150h-62z" />
    <glyph glyph-name="uni0123" unicode="&#x123;" horiz-adv-x="560" 
d="M256 13q-44 0 -81 15.5t-63.5 45t-41.5 72t-15 97.5v34q0 54 15 96.5t42 72.5t64 45.5t80 15.5q54 0 94 -19.5t73 -62.5h2l8 75h52v-505q0 -97 -52.5 -149.5t-149.5 -52.5q-94 0 -139.5 41t-53.5 111h68q8 -45 35.5 -68.5t89.5 -23.5q69 0 102.5 35t33.5 112v90h-2
q-53 -77 -161 -77zM270 73q67 0 108 43.5t41 126.5v34q0 81 -41.5 125.5t-106.5 44.5q-66 0 -107 -43.5t-41 -126.5v-34q0 -81 41.5 -125.5t105.5 -44.5zM298.006 549.997h-75.9951l89.9941 149.991h59.9971z" />
    <glyph glyph-name="Hcircumflex" unicode="&#x124;" horiz-adv-x="710" 
d="M90 700h70v-308h390v308h70v-700h-70v328h-390v-328h-70v700zM316 915h78l121 -150h-72l-88 95l-88 -95h-72z" />
    <glyph glyph-name="hcircumflex" unicode="&#x125;" horiz-adv-x="575" 
d="M85 700h66v-270h2q60 77 153 77q89 0 139 -52t50 -155v-300h-66v300q0 75 -34.5 111t-99.5 36q-32 0 -58.5 -10.5t-45.5 -30t-29.5 -46.5t-10.5 -60v-300h-66v700zM78 915h82l114 -150h-70l-85 95l-85 -95h-70z" />
    <glyph glyph-name="Hbar" unicode="&#x126;" horiz-adv-x="750" 
d="M110 532h-90v56h90v112h70v-112h390v112h70v-112h90v-56h-90v-532h-70v328h-390v-328h-70v532zM570 392v140h-390v-140h390z" />
    <glyph glyph-name="hbar" unicode="&#x127;" horiz-adv-x="575" 
d="M85 544h-80v52h80v104h66v-104h164v-52h-164v-134h2q60 77 153 77q89 0 139 -52t50 -155v-280h-66v280q0 75 -34.5 111t-99.5 36q-32 0 -58.5 -10.5t-45.5 -30t-29.5 -46.5t-10.5 -60v-280h-66v544z" />
    <glyph glyph-name="Itilde" unicode="&#x128;" horiz-adv-x="270" 
d="M100 700h70v-700h-70v700zM198 770q-28 0 -47 11t-34 24t-28.5 24t-30.5 11q-21 0 -33 -13t-12 -42h-50q0 59 25.5 87t69.5 28q28 0 47 -11t34 -24t28.5 -24t30.5 -11q21 0 33 13t12 42h50q0 -59 -25.5 -87t-69.5 -28z" />
    <glyph glyph-name="itilde" unicode="&#x129;" horiz-adv-x="256" 
d="M95 500h66v-500h-66v500zM194 570q-25 0 -43 11t-32 24.5t-27 25t-28 11.5q-17 0 -28.5 -13.5t-11.5 -43.5h-50q0 59 25 87t65 28q25 0 43 -11.5t32 -25t27 -24.5t28 -11q17 0 28.5 13.5t11.5 43.5h50q0 -59 -25 -87t-65 -28z" />
    <glyph glyph-name="Imacron" unicode="&#x12a;" horiz-adv-x="270" 
d="M100 700h70v-700h-70v700zM-9 864h290v-58h-290v58z" />
    <glyph glyph-name="imacron" unicode="&#x12b;" horiz-adv-x="256" 
d="M95 500h66v-500h-66v500zM-6 663h270v-56h-270v56z" />
    <glyph glyph-name="Ibreve" unicode="&#x12c;" horiz-adv-x="270" 
d="M100 700h70v-700h-70v700zM136 763q-68 0 -106.5 37.5t-38.5 99.5h60q2 -38 23 -58.5t62 -20.5t62 20.5t23 58.5h60q0 -62 -38.5 -99.5t-106.5 -37.5z" />
    <glyph glyph-name="ibreve" unicode="&#x12d;" horiz-adv-x="256" 
d="M95 500h66v-500h-66v500zM129 563q-60 0 -97.5 37.5t-37.5 99.5h58q2 -39 22 -60t55 -21t55 21t22 60h58q0 -62 -37.5 -99.5t-97.5 -37.5z" />
    <glyph glyph-name="Iogonek" unicode="&#x12e;" horiz-adv-x="270" 
d="M100 700h70v-700q-26 -25 -42.5 -42.5t-26.5 -30.5t-13.5 -23t-3.5 -20q0 -28 36 -28h50v-56h-60q-45 0 -67.5 21t-22.5 56q0 31 18 61.5t62 71.5v690z" />
    <glyph glyph-name="iogonek" unicode="&#x12f;" horiz-adv-x="256" 
d="M128 588q-20 0 -33.5 13.5t-13.5 33.5t13.5 33.5t33.5 13.5t33.5 -13.5t13.5 -33.5t-13.5 -33.5t-33.5 -13.5zM95 500h66v-500q-27 -26 -44 -43.5t-27 -30.5t-13.5 -22.5t-3.5 -19.5q0 -14 9 -22t29 -8h50v-54h-60q-45 0 -67.5 21t-22.5 56q0 31 18.5 60.5t65.5 72.5v490
z" />
    <glyph glyph-name="Idotaccent" unicode="&#x130;" horiz-adv-x="270" 
d="M100 700h70v-700h-70v700zM135 788q-20 0 -33.5 13.5t-13.5 33.5t13.5 33.5t33.5 13.5t33.5 -13.5t13.5 -33.5t-13.5 -33.5t-33.5 -13.5z" />
    <glyph glyph-name="dotlessi" unicode="&#x131;" horiz-adv-x="256" 
d="M95 500h66v-500h-66v500z" />
    <glyph glyph-name="Jcircumflex" unicode="&#x134;" horiz-adv-x="535" 
d="M240 -7q-92 0 -147 56t-63 161h70q8 -80 42.5 -116.5t97.5 -36.5q52 0 80 21.5t41.5 51.5t16 63t2.5 57v450h70v-455q0 -13 -1 -37t-7 -52t-19 -57t-36 -52.5t-59 -38.5t-88 -15zM376 915h78l121 -150h-72l-88 95l-88 -95h-72z" />
    <glyph glyph-name="jcircumflex" unicode="&#x135;" horiz-adv-x="256" 
d="M-9 -140h24q30 0 46 11t23.5 26.5t9 34t1.5 33.5v535h66v-540q0 -21 -2.5 -48.5t-16 -52t-43.5 -42t-84 -17.5h-24v60zM88 715h82l114 -150h-70l-85 95l-85 -95h-70z" />
    <glyph glyph-name="uni0136" unicode="&#x136;" horiz-adv-x="635" 
d="M90 700h70v-390l336 390h84l-266 -310l286 -390h-86l-250 340l-104 -119v-221h-70v700zM286 -50h78l-88 -150h-62z" />
    <glyph glyph-name="uni0137" unicode="&#x137;" horiz-adv-x="510" 
d="M85 700h66v-481l232 281h82l-182 -219l202 -281h-82l-164 234l-88 -105v-129h-66v700zM227 -50h76l-90 -150h-60z" />
    <glyph glyph-name="kgreenlandic" unicode="&#x138;" horiz-adv-x="510" 
d="M85 500h66v-281l232 281h82l-182 -219l202 -281h-82l-164 234l-88 -105v-129h-66v500z" />
    <glyph glyph-name="Lacute" unicode="&#x139;" horiz-adv-x="515" 
d="M90 700h70v-636h330v-64h-400v700zM201 915h88l-138 -150h-72z" />
    <glyph glyph-name="lacute" unicode="&#x13a;" horiz-adv-x="290" 
d="M215 0q-48 0 -74.5 17t-39 39t-14.5 44t-2 32v568h66v-560q0 -80 72 -80h32v-60h-40v0zM187 915h86l-130 -150h-70z" />
    <glyph glyph-name="uni013B" unicode="&#x13b;" horiz-adv-x="515" 
d="M90 700h70v-636h330v-64h-400v700zM261 -50h78l-88 -150h-62z" />
    <glyph glyph-name="uni013C" unicode="&#x13c;" horiz-adv-x="290" 
d="M215 0q-48 0 -74.5 17t-39 39t-14.5 44t-2 32v568h66v-560q0 -80 72 -80h32v-60h-40v0zM152 -50h76l-90 -150h-60z" />
    <glyph glyph-name="Lcaron" unicode="&#x13d;" horiz-adv-x="515" 
d="M90 700h70v-636h330v-64h-400v700zM295 700h70l-18 -160h-52v160z" />
    <glyph glyph-name="lcaron" unicode="&#x13e;" horiz-adv-x="290" 
d="M215 0q-48 0 -74.5 17t-39 39t-14.5 44t-2 32v568h66v-560q0 -80 72 -80h32v-60h-40v0zM211 700h70l-18 -150h-52v150z" />
    <glyph glyph-name="Ldot" unicode="&#x13f;" horiz-adv-x="515" 
d="M90 700h70v-636h330v-64h-400v700zM382 344q-20 0 -33.5 13.5t-13.5 33.5t13.5 33.5t33.5 13.5t33.5 -13.5t13.5 -33.5t-13.5 -33.5t-33.5 -13.5z" />
    <glyph glyph-name="ldot" unicode="&#x140;" horiz-adv-x="325" 
d="M215 0q-48 0 -74.5 17t-39 39t-14.5 44t-2 32v568h66v-560q0 -80 72 -80h32v-60h-40v0zM280 324q-20 0 -33.5 13.5t-13.5 33.5t13.5 33.5t33.5 13.5t33.5 -13.5t13.5 -33.5t-13.5 -33.5t-33.5 -13.5z" />
    <glyph glyph-name="Lslash" unicode="&#x141;" horiz-adv-x="570" 
d="M145 304l-120 -72v66l120 72v330h70v-289l160 96v-66l-160 -96v-281h330v-64h-400v304z" />
    <glyph glyph-name="lslash" unicode="&#x142;" horiz-adv-x="310" 
d="M230 0q-48 0 -74.5 17t-39 39t-14.5 44t-2 32v209l-80 -48v64l80 48v295h66v-255l104 62v-64l-104 -62v-241q0 -80 72 -80h32v-60h-40v0z" />
    <glyph glyph-name="Nacute" unicode="&#x143;" horiz-adv-x="710" 
d="M90 700h104l354 -610h2v610h70v-700h-98l-360 620h-2v-620h-70v700zM431 915h88l-138 -150h-72z" />
    <glyph glyph-name="nacute" unicode="&#x144;" horiz-adv-x="575" 
d="M85 500h52l8 -75h2q60 82 159 82q89 0 139 -51.5t50 -150.5v-305h-66v300q0 75 -34.5 111t-99.5 36q-32 0 -58.5 -10.5t-45.5 -30t-29.5 -46.5t-10.5 -60v-300h-66v500zM359 715h86l-130 -150h-70z" />
    <glyph glyph-name="uni0145" unicode="&#x145;" horiz-adv-x="710" 
d="M90 700h104l354 -610h2v610h70v-700h-98l-360 620h-2v-620h-70v700zM326 -50h78l-88 -150h-62z" />
    <glyph glyph-name="uni0146" unicode="&#x146;" horiz-adv-x="575" 
d="M85 500h52l8 -75h2q60 82 159 82q89 0 139 -51.5t50 -150.5v-305h-66v300q0 75 -34.5 111t-99.5 36q-32 0 -58.5 -10.5t-45.5 -30t-29.5 -46.5t-10.5 -60v-300h-66v500zM262 -50h76l-90 -150h-60z" />
    <glyph glyph-name="Ncaron" unicode="&#x147;" horiz-adv-x="710" 
d="M90 700h104l354 -610h2v610h70v-700h-98l-360 620h-2v-620h-70v700zM195 915h72l88 -95l88 95h72l-121 -150h-78z" />
    <glyph glyph-name="ncaron" unicode="&#x148;" horiz-adv-x="575" 
d="M85 500h52l8 -75h2q60 82 159 82q89 0 139 -51.5t50 -150.5v-305h-66v300q0 75 -34.5 111t-99.5 36q-32 0 -58.5 -10.5t-45.5 -30t-29.5 -46.5t-10.5 -60v-300h-66v500zM135 715h70l85 -95l85 95h70l-114 -150h-82z" />
    <glyph glyph-name="napostrophe" unicode="&#x149;" horiz-adv-x="660" 
d="M170 500h52l8 -75h2q60 82 159 82q89 0 139 -51.5t50 -150.5v-305h-66v300q0 75 -34.5 111t-99.5 36q-32 0 -58.5 -10.5t-45.5 -30t-29.5 -46.5t-10.5 -60v-300h-66v500zM81 700h70l-78 -240h-62z" />
    <glyph glyph-name="Eng" unicode="&#x14a;" horiz-adv-x="710" 
d="M90 700h104l354 -567h2v567h70v-630q0 -140 -60.5 -205t-174.5 -65h-40v64h40q67 0 107.5 32.5t52.5 110.5l-383 613h-2v-620h-70v700z" />
    <glyph glyph-name="eng" unicode="&#x14b;" horiz-adv-x="575" 
d="M85 500h52l8 -75h2q60 82 159 82q89 0 139 -51.5t50 -150.5v-277q0 -122 -47 -175t-133 -53h-30v60h20q30 0 53 9t39 29t24 53.5t8 81.5v267q0 75 -34.5 111t-99.5 36q-32 0 -58.5 -10.5t-45.5 -30t-29.5 -46.5t-10.5 -60v-300h-66v500z" />
    <glyph glyph-name="Omacron" unicode="&#x14c;" horiz-adv-x="710" 
d="M355 -7q-65 0 -118 22t-91.5 64.5t-59.5 105t-21 143.5v54q0 77 21.5 137.5t59.5 102t91.5 63.5t117.5 22t117.5 -21.5t92 -63t59.5 -102t21 -138.5v-54q0 -81 -21.5 -143.5t-59.5 -105t-91.5 -64.5t-117.5 -22zM355 57q48 0 88 17t69 51t45 84.5t16 118.5v54
q0 63 -16.5 111.5t-45.5 82t-69 50.5t-87 17q-48 0 -88 -17t-69 -50t-45 -81.5t-16 -112.5v-54q0 -67 16.5 -117.5t45.5 -84.5t69 -51.5t87 -17.5zM210 864h290v-58h-290v58z" />
    <glyph glyph-name="omacron" unicode="&#x14d;" horiz-adv-x="550" 
d="M275 -7q-101 0 -160.5 62t-59.5 178v34q0 57 15.5 102t44.5 75.5t69.5 46.5t90.5 16q101 0 160.5 -62t59.5 -178v-34q0 -57 -15.5 -102t-44.5 -75.5t-69.5 -46.5t-90.5 -16zM275 53q69 0 110.5 45t41.5 135v34q0 89 -42 134.5t-110 45.5q-69 0 -110.5 -45t-41.5 -135v-34
q0 -89 42 -134.5t110 -45.5zM140 663h270v-56h-270v56z" />
    <glyph glyph-name="Obreve" unicode="&#x14e;" horiz-adv-x="710" 
d="M355 -7q-65 0 -118 22t-91.5 64.5t-59.5 105t-21 143.5v54q0 77 21.5 137.5t59.5 102t91.5 63.5t117.5 22t117.5 -21.5t92 -63t59.5 -102t21 -138.5v-54q0 -81 -21.5 -143.5t-59.5 -105t-91.5 -64.5t-117.5 -22zM355 57q48 0 88 17t69 51t45 84.5t16 118.5v54
q0 63 -16.5 111.5t-45.5 82t-69 50.5t-87 17q-48 0 -88 -17t-69 -50t-45 -81.5t-16 -112.5v-54q0 -67 16.5 -117.5t45.5 -84.5t69 -51.5t87 -17.5zM355 763q-68 0 -106.5 37.5t-38.5 99.5h60q2 -38 23 -58.5t62 -20.5t62 20.5t23 58.5h60q0 -62 -38.5 -99.5t-106.5 -37.5z
" />
    <glyph glyph-name="obreve" unicode="&#x14f;" horiz-adv-x="550" 
d="M275 -7q-101 0 -160.5 62t-59.5 178v34q0 57 15.5 102t44.5 75.5t69.5 46.5t90.5 16q101 0 160.5 -62t59.5 -178v-34q0 -57 -15.5 -102t-44.5 -75.5t-69.5 -46.5t-90.5 -16zM275 53q69 0 110.5 45t41.5 135v34q0 89 -42 134.5t-110 45.5q-69 0 -110.5 -45t-41.5 -135v-34
q0 -89 42 -134.5t110 -45.5zM275 563q-60 0 -97.5 37.5t-37.5 99.5h58q2 -39 22 -60t55 -21t55 21t22 60h58q0 -62 -37.5 -99.5t-97.5 -37.5z" />
    <glyph glyph-name="Ohungarumlaut" unicode="&#x150;" horiz-adv-x="710" 
d="M355 -7q-65 0 -118 22t-91.5 64.5t-59.5 105t-21 143.5v54q0 77 21.5 137.5t59.5 102t91.5 63.5t117.5 22t117.5 -21.5t92 -63t59.5 -102t21 -138.5v-54q0 -81 -21.5 -143.5t-59.5 -105t-91.5 -64.5t-117.5 -22zM355 57q48 0 88 17t69 51t45 84.5t16 118.5v54
q0 63 -16.5 111.5t-45.5 82t-69 50.5t-87 17q-48 0 -88 -17t-69 -50t-45 -81.5t-16 -112.5v-54q0 -67 16.5 -117.5t45.5 -84.5t69 -51.5t87 -17.5zM345 915h84l-122 -150h-68zM501 915h88l-138 -150h-72z" />
    <glyph glyph-name="ohungarumlaut" unicode="&#x151;" horiz-adv-x="550" 
d="M275 -7q-101 0 -160.5 62t-59.5 178v34q0 57 15.5 102t44.5 75.5t69.5 46.5t90.5 16q101 0 160.5 -62t59.5 -178v-34q0 -57 -15.5 -102t-44.5 -75.5t-69.5 -46.5t-90.5 -16zM275 53q69 0 110.5 45t41.5 135v34q0 89 -42 134.5t-110 45.5q-69 0 -110.5 -45t-41.5 -135v-34
q0 -89 42 -134.5t110 -45.5zM258 715h82l-114 -150h-66zM414 715h86l-130 -150h-70z" />
    <glyph glyph-name="OE" unicode="&#x152;" horiz-adv-x="960" 
d="M360 -7q-65 0 -119 22t-93 64t-61 102t-22 137v64q0 76 22 136t61 102t93.5 64.5t119.5 22.5q45 0 79.5 -10t59.5 -24v27h420v-64h-350v-244h290v-64h-290v-264h350v-64h-420v27q-25 -14 -60 -24t-80 -10zM137 318q0 -62 17 -110t46.5 -81t70.5 -50.5t89 -17.5
q45 0 80 13t60 31v494q-25 18 -59.5 31t-79.5 13q-49 0 -90 -17.5t-71 -50.5t-46.5 -81t-16.5 -110v-64z" />
    <glyph glyph-name="oe" unicode="&#x153;" horiz-adv-x="910" 
d="M275 -7q-50 0 -90.5 16t-69 46.5t-44.5 74t-16 98.5v44q0 55 16 98.5t44.5 74t69 46.5t90.5 16q63 0 110.5 -26.5t74.5 -77.5q26 51 72.5 77.5t108.5 26.5q97 0 155.5 -61t58.5 -174v-41h-360q0 -90 39.5 -133t106.5 -43q62 0 94 26t47 65h68q-8 -32 -24 -60t-42 -48.5
t-61.5 -32.5t-81.5 -12q-62 0 -108.5 27t-72.5 78q-27 -51 -74.5 -78t-110.5 -27zM641 445q-63 0 -102 -40.5t-44 -115.5h292q-5 78 -44 117t-102 39zM275 55q68 0 110 44.5t42 128.5v44q0 84 -42 128.5t-110 44.5t-110 -44.5t-42 -128.5v-44q0 -84 42 -128.5t110 -44.5z
" />
    <glyph glyph-name="Racute" unicode="&#x154;" horiz-adv-x="620" 
d="M90 700h225q124 0 184.5 -56t60.5 -151q0 -72 -35 -122t-105 -71l160 -300h-80l-150 287q-8 -1 -17 -1h-18h-155v-286h-70v700zM310 350q95 0 136.5 37t41.5 106q0 67 -42 105t-136 38h-150v-286h150zM366 915h88l-138 -150h-72z" />
    <glyph glyph-name="racute" unicode="&#x155;" horiz-adv-x="375" 
d="M85 500h52l8 -75h2q55 82 159 82h49v-60h-50q-73 0 -113.5 -39.5t-40.5 -107.5v-300h-66v500zM289 715h86l-130 -150h-70z" />
    <glyph glyph-name="uni0156" unicode="&#x156;" horiz-adv-x="620" 
d="M90 700h225q124 0 184.5 -56t60.5 -151q0 -72 -35 -122t-105 -71l160 -300h-80l-150 287q-8 -1 -17 -1h-18h-155v-286h-70v700zM310 350q95 0 136.5 37t41.5 106q0 67 -42 105t-136 38h-150v-286h150zM301 -50h78l-88 -150h-62z" />
    <glyph glyph-name="uni0157" unicode="&#x157;" horiz-adv-x="375" 
d="M85 500h52l8 -75h2q55 82 159 82h49v-60h-50q-73 0 -113.5 -39.5t-40.5 -107.5v-300h-66v500zM91 -50h76l-90 -150h-60z" />
    <glyph glyph-name="Rcaron" unicode="&#x158;" horiz-adv-x="620" 
d="M90 700h225q124 0 184.5 -56t60.5 -151q0 -72 -35 -122t-105 -71l160 -300h-80l-150 287q-8 -1 -17 -1h-18h-155v-286h-70v700zM310 350q95 0 136.5 37t41.5 106q0 67 -42 105t-136 38h-150v-286h150zM130 915h72l88 -95l88 95h72l-121 -150h-78z" />
    <glyph glyph-name="rcaron" unicode="&#x159;" horiz-adv-x="375" 
d="M85 500h52l8 -75h2q55 82 159 82h49v-60h-50q-73 0 -113.5 -39.5t-40.5 -107.5v-300h-66v500zM65 715h70l85 -95l85 95h70l-114 -150h-82z" />
    <glyph glyph-name="Sacute" unicode="&#x15a;" horiz-adv-x="610" 
d="M315 -7q-122 0 -184.5 58t-70.5 159h74q8 -75 50.5 -114t130.5 -39q86 0 124.5 34t38.5 92q0 35 -17.5 58t-46 38.5t-65.5 26.5t-75 22t-75 25t-65.5 35.5t-46 53.5t-17.5 80q0 39 15 73t44 59t72 39t99 14q117 0 177 -55.5t68 -151.5h-74q-9 72 -48 107.5t-123 35.5
q-41 0 -71 -10t-49.5 -26.5t-28.5 -38.5t-9 -46q0 -48 30 -74t75.5 -42t98.5 -28.5t98.5 -34t75.5 -58.5t30 -102q0 -84 -58.5 -137t-176.5 -53zM376 915h88l-138 -150h-72z" />
    <glyph glyph-name="sacute" unicode="&#x15b;" horiz-adv-x="490" 
d="M250 -7q-95 0 -141 40.5t-54 106.5h68q8 -41 36 -64t91 -23q64 0 90.5 22t26.5 58q0 32 -22.5 50t-56 29.5t-72.5 21t-72.5 25.5t-56 42t-22.5 71q0 57 44 96t131 39q46 0 80 -10.5t57 -28.5t36 -43t17 -55h-68q-8 35 -35 56t-87 21q-58 0 -82.5 -20.5t-24.5 -54.5
q0 -30 22.5 -46.5t56 -27t72.5 -20t72.5 -26t56 -44t22.5 -75.5q0 -30 -11.5 -55.5t-34.5 -44t-58 -29.5t-81 -11zM314 715h86l-130 -150h-70z" />
    <glyph glyph-name="Scircumflex" unicode="&#x15c;" horiz-adv-x="610" 
d="M315 -7q-122 0 -184.5 58t-70.5 159h74q8 -75 50.5 -114t130.5 -39q86 0 124.5 34t38.5 92q0 35 -17.5 58t-46 38.5t-65.5 26.5t-75 22t-75 25t-65.5 35.5t-46 53.5t-17.5 80q0 39 15 73t44 59t72 39t99 14q117 0 177 -55.5t68 -151.5h-74q-9 72 -48 107.5t-123 35.5
q-41 0 -71 -10t-49.5 -26.5t-28.5 -38.5t-9 -46q0 -48 30 -74t75.5 -42t98.5 -28.5t98.5 -34t75.5 -58.5t30 -102q0 -84 -58.5 -137t-176.5 -53zM261 915h78l121 -150h-72l-88 95l-88 -95h-72z" />
    <glyph glyph-name="scircumflex" unicode="&#x15d;" horiz-adv-x="490" 
d="M250 -7q-95 0 -141 40.5t-54 106.5h68q8 -41 36 -64t91 -23q64 0 90.5 22t26.5 58q0 32 -22.5 50t-56 29.5t-72.5 21t-72.5 25.5t-56 42t-22.5 71q0 57 44 96t131 39q46 0 80 -10.5t57 -28.5t36 -43t17 -55h-68q-8 35 -35 56t-87 21q-58 0 -82.5 -20.5t-24.5 -54.5
q0 -30 22.5 -46.5t56 -27t72.5 -20t72.5 -26t56 -44t22.5 -75.5q0 -30 -11.5 -55.5t-34.5 -44t-58 -29.5t-81 -11zM204 715h82l114 -150h-70l-85 95l-85 -95h-70z" />
    <glyph glyph-name="Scedilla" unicode="&#x15e;" horiz-adv-x="610" 
d="M235 -150h55q26 0 36.5 9t10.5 26t-10.5 26t-36.5 9h-22l18 74q-108 7 -163.5 64t-62.5 152h74q8 -75 50.5 -114t130.5 -39q86 0 124.5 34t38.5 92q0 35 -17.5 58t-46 38.5t-65.5 26.5t-75 22t-75 25t-65.5 35.5t-46 53.5t-17.5 80q0 39 15 73t44 59t72 39t99 14
q117 0 177 -55.5t68 -151.5h-74q-9 72 -48 107.5t-123 35.5q-41 0 -71 -10t-49.5 -26.5t-28.5 -38.5t-9 -46q0 -48 30 -74t75.5 -42t98.5 -28.5t98.5 -34t75.5 -58.5t30 -102q0 -80 -52.5 -131.5t-158.5 -57.5l-9 -33q65 -11 65 -75q0 -39 -24 -62.5t-66 -23.5h-70v50z" />
    <glyph glyph-name="scedilla" unicode="&#x15f;" horiz-adv-x="490" 
d="M165 -152h55q27 0 38 9.5t11 27.5t-11 27.5t-38 9.5h-21l18 72q-78 8 -116.5 47t-45.5 99h68q8 -41 36 -64t91 -23q64 0 90.5 22t26.5 58q0 32 -22.5 50t-56 29.5t-72.5 21t-72.5 25.5t-56 42t-22.5 71q0 57 44 96t131 39q46 0 80 -10.5t57 -28.5t36 -43t17 -55h-68
q-8 35 -35 56t-87 21q-58 0 -82.5 -20.5t-24.5 -54.5q0 -30 22.5 -46.5t56 -27t72.5 -20t72.5 -26t56 -44t22.5 -75.5q0 -57 -41 -96t-126 -44l-9 -32q32 -5 49 -24.5t17 -50.5q0 -39 -24 -62.5t-66 -23.5h-70v48z" />
    <glyph glyph-name="Scaron" unicode="&#x160;" horiz-adv-x="610" 
d="M315 -7q-122 0 -184.5 58t-70.5 159h74q8 -75 50.5 -114t130.5 -39q86 0 124.5 34t38.5 92q0 35 -17.5 58t-46 38.5t-65.5 26.5t-75 22t-75 25t-65.5 35.5t-46 53.5t-17.5 80q0 39 15 73t44 59t72 39t99 14q117 0 177 -55.5t68 -151.5h-74q-9 72 -48 107.5t-123 35.5
q-41 0 -71 -10t-49.5 -26.5t-28.5 -38.5t-9 -46q0 -48 30 -74t75.5 -42t98.5 -28.5t98.5 -34t75.5 -58.5t30 -102q0 -84 -58.5 -137t-176.5 -53zM140 915h72l88 -95l88 95h72l-121 -150h-78z" />
    <glyph glyph-name="scaron" unicode="&#x161;" horiz-adv-x="490" 
d="M250 -7q-95 0 -141 40.5t-54 106.5h68q8 -41 36 -64t91 -23q64 0 90.5 22t26.5 58q0 32 -22.5 50t-56 29.5t-72.5 21t-72.5 25.5t-56 42t-22.5 71q0 57 44 96t131 39q46 0 80 -10.5t57 -28.5t36 -43t17 -55h-68q-8 35 -35 56t-87 21q-58 0 -82.5 -20.5t-24.5 -54.5
q0 -30 22.5 -46.5t56 -27t72.5 -20t72.5 -26t56 -44t22.5 -75.5q0 -30 -11.5 -55.5t-34.5 -44t-58 -29.5t-81 -11zM90 715h70l85 -95l85 95h70l-114 -150h-82z" />
    <glyph glyph-name="uni0162" unicode="&#x162;" horiz-adv-x="580" 
d="M255 636h-230v64h530v-64h-230v-636h-9l-11 -39q65 -11 65 -75q0 -39 -24 -62.5t-66 -23.5h-70v50h55q26 0 36.5 9t10.5 26t-10.5 26t-36.5 9h-22l20 80h-8v636z" />
    <glyph glyph-name="uni0163" unicode="&#x163;" horiz-adv-x="360" 
d="M150 -152h55q27 0 38 9.5t11 27.5t-11 27.5t-38 9.5h-21l21 82q-33 7 -51.5 25t-27 38t-10 38.5t-1.5 26.5v308h-90v60h90v140h66v-140h134v-60h-134v-300q0 -80 74 -80h70v-60h-70l-11 -39q32 -5 49 -24.5t17 -50.5q0 -39 -24 -62.5t-66 -23.5h-70v48z" />
    <glyph glyph-name="Tcaron" unicode="&#x164;" horiz-adv-x="580" 
d="M255 636h-230v64h530v-64h-230v-636h-70v636zM130 915h72l88 -95l88 95h72l-121 -150h-78z" />
    <glyph glyph-name="tcaron" unicode="&#x165;" horiz-adv-x="360" 
d="M247 0q-49 0 -76 17t-39.5 39.5t-14.5 44.5t-2 31v308h-90v60h90v140h66v-140h134v-60h-134v-300q0 -80 74 -80h70v-60h-78v0zM241 710h70l-18 -150h-52v150z" />
    <glyph glyph-name="Tbar" unicode="&#x166;" horiz-adv-x="580" 
d="M255 320h-140v60h140v256h-230v64h530v-64h-230v-256h140v-60h-140v-320h-70v320z" />
    <glyph glyph-name="tbar" unicode="&#x167;" horiz-adv-x="370" 
d="M30 290h90v150h-90v60h90v140h66v-140h134v-60h-134v-150h134v-60h-134v-90q0 -80 74 -80h70v-60h-78q-49 0 -76 17t-39.5 39.5t-14.5 44.5t-2 31v98h-90v60z" />
    <glyph glyph-name="Utilde" unicode="&#x168;" horiz-adv-x="690" 
d="M345 -7q-59 0 -107 18.5t-82 54t-52.5 87t-18.5 117.5v430h70v-425q0 -107 52 -162.5t138 -55.5q87 0 138.5 55t51.5 163v425h70v-430q0 -65 -19 -116t-53 -87t-82 -55t-106 -19zM407 770q-28 0 -47 11t-34 24t-28.5 24t-30.5 11q-21 0 -33 -13t-12 -42h-50q0 59 25.5 87
t69.5 28q28 0 47 -11t34 -24t28.5 -24t30.5 -11q21 0 33 13t12 42h50q0 -59 -25.5 -87t-69.5 -28z" />
    <glyph glyph-name="utilde" unicode="&#x169;" horiz-adv-x="565" 
d="M259 -7q-81 0 -130 51.5t-49 150.5v305h66v-300q0 -75 33.5 -111t90.5 -36q32 0 58.5 10.5t45.5 30t29.5 46.5t10.5 60v300h66v-500h-52l-8 75h-2q-57 -82 -159 -82zM345 570q-25 0 -43 11t-32 24.5t-27 25t-28 11.5q-17 0 -28.5 -13.5t-11.5 -43.5h-50q0 59 25 87t65 28
q25 0 43 -11.5t32 -25t27 -24.5t28 -11q17 0 28.5 13.5t11.5 43.5h50q0 -59 -25 -87t-65 -28z" />
    <glyph glyph-name="Umacron" unicode="&#x16a;" horiz-adv-x="690" 
d="M345 -7q-59 0 -107 18.5t-82 54t-52.5 87t-18.5 117.5v430h70v-425q0 -107 52 -162.5t138 -55.5q87 0 138.5 55t51.5 163v425h70v-430q0 -65 -19 -116t-53 -87t-82 -55t-106 -19zM200 864h290v-58h-290v58z" />
    <glyph glyph-name="umacron" unicode="&#x16b;" horiz-adv-x="565" 
d="M259 -7q-81 0 -130 51.5t-49 150.5v305h66v-300q0 -75 33.5 -111t90.5 -36q32 0 58.5 10.5t45.5 30t29.5 46.5t10.5 60v300h66v-500h-52l-8 75h-2q-57 -82 -159 -82zM145 663h270v-56h-270v56z" />
    <glyph glyph-name="Ubreve" unicode="&#x16c;" horiz-adv-x="690" 
d="M345 -7q-59 0 -107 18.5t-82 54t-52.5 87t-18.5 117.5v430h70v-425q0 -107 52 -162.5t138 -55.5q87 0 138.5 55t51.5 163v425h70v-430q0 -65 -19 -116t-53 -87t-82 -55t-106 -19zM345 763q-68 0 -106.5 37.5t-38.5 99.5h60q2 -38 23 -58.5t62 -20.5t62 20.5t23 58.5h60
q0 -62 -38.5 -99.5t-106.5 -37.5z" />
    <glyph glyph-name="ubreve" unicode="&#x16d;" horiz-adv-x="565" 
d="M259 -7q-81 0 -130 51.5t-49 150.5v305h66v-300q0 -75 33.5 -111t90.5 -36q32 0 58.5 10.5t45.5 30t29.5 46.5t10.5 60v300h66v-500h-52l-8 75h-2q-57 -82 -159 -82zM280 563q-60 0 -97.5 37.5t-37.5 99.5h58q2 -39 22 -60t55 -21t55 21t22 60h58q0 -62 -37.5 -99.5
t-97.5 -37.5z" />
    <glyph glyph-name="Uring" unicode="&#x16e;" horiz-adv-x="690" 
d="M345 -7q-59 0 -107 18.5t-82 54t-52.5 87t-18.5 117.5v430h70v-425q0 -107 52 -162.5t138 -55.5q87 0 138.5 55t51.5 163v425h70v-430q0 -65 -19 -116t-53 -87t-82 -55t-106 -19zM345 733q-46 0 -75.5 29t-29.5 73t29.5 73t75.5 29t75.5 -29t29.5 -73t-29.5 -73
t-75.5 -29zM345 783q23 0 38 14.5t15 37.5t-15 37.5t-38 14.5t-38 -14.5t-15 -37.5t15 -37.5t38 -14.5z" />
    <glyph glyph-name="uring" unicode="&#x16f;" horiz-adv-x="565" 
d="M259 -7q-81 0 -130 51.5t-49 150.5v305h66v-300q0 -75 33.5 -111t90.5 -36q32 0 58.5 10.5t45.5 30t29.5 46.5t10.5 60v300h66v-500h-52l-8 75h-2q-57 -82 -159 -82zM280 533q-46 0 -75.5 29t-29.5 73t29.5 73t75.5 29t75.5 -29t29.5 -73t-29.5 -73t-75.5 -29zM280 581
q25 0 40 15t15 39t-15 39t-40 15t-40 -15t-15 -39t15 -39t40 -15z" />
    <glyph glyph-name="Uhungarumlaut" unicode="&#x170;" horiz-adv-x="690" 
d="M345 -7q-59 0 -107 18.5t-82 54t-52.5 87t-18.5 117.5v430h70v-425q0 -107 52 -162.5t138 -55.5q87 0 138.5 55t51.5 163v425h70v-430q0 -65 -19 -116t-53 -87t-82 -55t-106 -19zM335 915h84l-122 -150h-68zM491 915h88l-138 -150h-72z" />
    <glyph glyph-name="uhungarumlaut" unicode="&#x171;" horiz-adv-x="565" 
d="M259 -7q-81 0 -130 51.5t-49 150.5v305h66v-300q0 -75 33.5 -111t90.5 -36q32 0 58.5 10.5t45.5 30t29.5 46.5t10.5 60v300h66v-500h-52l-8 75h-2q-57 -82 -159 -82zM263 715h82l-114 -150h-66zM419 715h86l-130 -150h-70z" />
    <glyph glyph-name="Uogonek" unicode="&#x172;" horiz-adv-x="690" 
d="M345 -7q-59 0 -107 18.5t-82 54t-52.5 87t-18.5 117.5v430h70v-425q0 -107 52 -162.5t138 -55.5q87 0 138.5 55t51.5 163v425h70v-430q0 -76 -25.5 -133.5t-71.5 -92.5q-27 -25 -50.5 -46t-40.5 -39.5t-26.5 -35t-9.5 -33.5q0 -32 34 -32h50v-58h-55q-48 0 -71.5 21.5
t-23.5 58.5q0 13 2 25.5t8.5 26t18.5 28.5t31 35q-8 -1 -15 -1.5t-15 -0.5z" />
    <glyph glyph-name="uogonek" unicode="&#x173;" horiz-adv-x="565" 
d="M259 -7q-81 0 -130 51.5t-49 150.5v305h66v-300q0 -75 33.5 -111t90.5 -36q32 0 58.5 10.5t45.5 30t29.5 46.5t10.5 60v300h66v-500q-27 -26 -44 -43.5t-27 -30.5t-13.5 -22.5t-3.5 -19.5q0 -14 9 -22t29 -8h50v-54h-60q-45 0 -67.5 21t-22.5 56q0 32 21 64t75 79l-6 55
h-2q-57 -82 -159 -82z" />
    <glyph glyph-name="Wcircumflex" unicode="&#x174;" horiz-adv-x="970" 
d="M40 700h72l167 -620h2l158 620h92l168 -620h2l159 620h70l-184 -700h-92l-168 620h-2l-158 -620h-92zM446 915h78l121 -150h-72l-88 95l-88 -95h-72z" />
    <glyph glyph-name="wcircumflex" unicode="&#x175;" horiz-adv-x="770" 
d="M35 500h70l120 -430h2l113 430h90l125 -430h2l112 430h66l-135 -500h-90l-125 430h-2l-113 -430h-90zM344 715h82l114 -150h-70l-85 95l-85 -95h-70z" />
    <glyph glyph-name="Ycircumflex" unicode="&#x176;" horiz-adv-x="650" 
d="M300 255l-270 445h78l228 -374l208 374h76l-250 -445v-255h-70v255zM287 915h78l121 -150h-72l-88 95l-88 -95h-72z" />
    <glyph glyph-name="ycircumflex" unicode="&#x177;" horiz-adv-x="520" 
d="M234 0l-209 500h72l171 -418h2l157 418h68l-270 -700h-68zM221 715h82l114 -150h-70l-85 95l-85 -95h-70z" />
    <glyph glyph-name="Ydieresis" unicode="&#x178;" horiz-adv-x="650" 
d="M300 255l-270 445h78l228 -374l208 374h76l-250 -445v-255h-70v255zM218 788q-20 0 -33.5 13.5t-13.5 33.5t13.5 33.5t33.5 13.5t33.5 -13.5t13.5 -33.5t-13.5 -33.5t-33.5 -13.5zM434 788q-20 0 -33.5 13.5t-13.5 33.5t13.5 33.5t33.5 13.5t33.5 -13.5t13.5 -33.5
t-13.5 -33.5t-33.5 -13.5z" />
    <glyph glyph-name="Zacute" unicode="&#x179;" horiz-adv-x="585" 
d="M50 64l406 570v2h-396v64h480v-64l-406 -570v-2h406v-64h-490v64zM376 915h88l-138 -150h-72z" />
    <glyph glyph-name="zacute" unicode="&#x17a;" horiz-adv-x="455" 
d="M40 60l304 378v2h-294v60h370v-60l-304 -378v-2h304v-60h-380v60zM304 715h86l-130 -150h-70z" />
    <glyph glyph-name="Zdotaccent" unicode="&#x17b;" horiz-adv-x="585" 
d="M50 64l406 570v2h-396v64h480v-64l-406 -570v-2h406v-64h-490v64zM300 788q-20 0 -33.5 13.5t-13.5 33.5t13.5 33.5t33.5 13.5t33.5 -13.5t13.5 -33.5t-13.5 -33.5t-33.5 -13.5z" />
    <glyph glyph-name="zdotaccent" unicode="&#x17c;" horiz-adv-x="455" 
d="M40 60l304 378v2h-294v60h370v-60l-304 -378v-2h304v-60h-380v60zM235 588q-20 0 -33.5 13.5t-13.5 33.5t13.5 33.5t33.5 13.5t33.5 -13.5t13.5 -33.5t-13.5 -33.5t-33.5 -13.5z" />
    <glyph glyph-name="Zcaron" unicode="&#x17d;" horiz-adv-x="585" 
d="M50 64l406 570v2h-396v64h480v-64l-406 -570v-2h406v-64h-490v64zM140 915h72l88 -95l88 95h72l-121 -150h-78z" />
    <glyph glyph-name="zcaron" unicode="&#x17e;" horiz-adv-x="455" 
d="M40 60l304 378v2h-294v60h370v-60l-304 -378v-2h304v-60h-380v60zM80 715h70l85 -95l85 95h70l-114 -150h-82z" />
    <glyph glyph-name="longs" unicode="&#x17f;" horiz-adv-x="305" 
d="M120 440h-90v60h90v68q0 65 33.5 98.5t98.5 33.5h78v-60h-70q-38 0 -56 -19t-18 -61v-560h-66v440z" />
    <glyph glyph-name="uni018E" unicode="&#x18e;" horiz-adv-x="560" 
d="M470 0h-420v64h350v264h-290v64h290v244h-350v64h420v-700z" />
    <glyph glyph-name="uni018F" unicode="&#x18f;" horiz-adv-x="710" 
d="M355 -7q-63 0 -116.5 22t-92 63.5t-60 102t-21.5 137.5v60l510 -1q0 64 -16.5 113t-46 82.5t-69.5 51t-88 17.5q-43 0 -76 -12.5t-57 -32t-40 -43.5t-24 -48h-76q9 33 28.5 69t52.5 65.5t80.5 48.5t111.5 19q63 0 116.5 -22t92 -63.5t60 -102t21.5 -137.5v-64
q0 -76 -21.5 -136.5t-60.5 -102.5t-92 -64t-116 -22zM355 59q48 0 88.5 17t69.5 49.5t45.5 79.5t16.5 108h-440q1 -61 18 -108t46.5 -79.5t69.5 -49.5t86 -17z" />
    <glyph glyph-name="florin" unicode="&#x192;" horiz-adv-x="480" 
d="M6 -90h37q37 0 59.5 21t30.5 69l77 444h-111l10 56h110l9 50q14 78 53 114t122 36h52l-11 -60h-52q-41 0 -63.5 -21t-30.5 -69l-9 -50h131l-10 -56h-130l-77 -444q-14 -78 -52.5 -114t-118.5 -36h-37z" />
    <glyph glyph-name="uni01CD" unicode="&#x1cd;" horiz-adv-x="660" 
d="M290 700h80l260 -700h-76l-73 203h-306l-73 -203h-72zM458 267l-128 358h-2l-130 -358h260zM170 915h72l88 -95l88 95h72l-121 -150h-78z" />
    <glyph glyph-name="uni01CE" unicode="&#x1ce;" horiz-adv-x="530" 
d="M215 -7q-83 0 -124 38.5t-41 106.5q0 71 49 113t156 42h129v37q0 60 -29 87.5t-95 27.5q-61 0 -89.5 -21t-32.5 -54h-68q2 27 15 52t36.5 44t58.5 30t80 11q97 0 143.5 -44.5t46.5 -132.5v-330h-52l-8 85h-2q-30 -45 -74.5 -68.5t-98.5 -23.5zM220 55q36 0 66 11.5t52 32
t34 49t12 62.5v27h-124q-77 0 -109.5 -27t-32.5 -72q0 -38 24.5 -60.5t77.5 -22.5zM105 715h70l85 -95l85 95h70l-114 -150h-82z" />
    <glyph glyph-name="uni01CF" unicode="&#x1cf;" horiz-adv-x="270" 
d="M100 700h70v-700h-70v700zM-24 915h72l88 -95l88 95h72l-121 -150h-78z" />
    <glyph glyph-name="uni01D0" unicode="&#x1d0;" horiz-adv-x="256" 
d="M95 500h66v-500h-66v500zM-26 715h70l85 -95l85 95h70l-114 -150h-82z" />
    <glyph glyph-name="uni01DD" unicode="&#x1dd;" horiz-adv-x="540" 
d="M270 -7q-98 0 -156.5 61t-58.5 174v41h362q0 90 -40 133t-112 43q-61 0 -91.5 -23.5t-45.5 -56.5h-68q7 28 23.5 54t42 45.5t60.5 31t79 11.5q102 0 161 -61t59 -174v-44q0 -113 -58.5 -174t-156.5 -61zM270 55q64 0 103 40.5t44 115.5h-294q5 -78 44.5 -117t102.5 -39z
" />
    <glyph glyph-name="Gcaron" unicode="&#x1e6;" horiz-adv-x="690" 
d="M350 -7q-63 0 -115 22t-90 64.5t-59 105t-21 143.5v54q0 77 21 137.5t59 102t90.5 63.5t114.5 22q58 0 104.5 -16.5t80.5 -44.5t55 -66t29 -80h-74q-8 30 -23.5 56t-40 45.5t-57 30.5t-74.5 11q-46 0 -85 -17t-67.5 -50t-44.5 -82t-16 -112v-54q0 -67 16.5 -117.5
t45 -84.5t67.5 -51.5t84 -17.5q48 0 86 13t64.5 41t41.5 72t18 106h-210v64h275v-23q0 -86 -19.5 -149.5t-55 -105t-86.5 -62t-114 -20.5zM190 915h72l88 -95l88 95h72l-121 -150h-78z" />
    <glyph glyph-name="gcaron" unicode="&#x1e7;" horiz-adv-x="570" 
d="M256 13q-44 0 -81 15.5t-63.5 45t-41.5 72t-15 97.5v34q0 54 15 96.5t42 72.5t64 45.5t80 15.5q54 0 94 -19.5t73 -62.5h2l8 75h52v-505q0 -97 -52.5 -149.5t-149.5 -52.5q-94 0 -139.5 41t-53.5 111h68q8 -45 35.5 -68.5t89.5 -23.5q69 0 102.5 35t33.5 112v90h-2
q-53 -77 -161 -77zM270 73q67 0 108 43.5t41 126.5v34q0 81 -41.5 125.5t-106.5 44.5q-66 0 -107 -43.5t-41 -126.5v-34q0 -81 41.5 -125.5t105.5 -44.5zM115 715h70l85 -95l85 95h70l-114 -150h-82z" />
    <glyph glyph-name="Aringacute" unicode="&#x1fa;" horiz-adv-x="660" 
d="M392 990h100l-124 -100h-76zM276 663q-23 13 -37 36.5t-14 52.5q0 44 29.5 73t75.5 29t75.5 -29t29.5 -73q0 -29 -14 -52.5t-37 -36.5l246 -663h-76l-73 203h-306l-73 -203h-72zM330 700q23 0 38 14.5t15 37.5t-15 37.5t-38 14.5t-38 -14.5t-15 -37.5t15 -37.5t38 -14.5z
M458 267l-128 358h-2l-130 -358h260z" />
    <glyph glyph-name="aringacute" unicode="&#x1fb;" horiz-adv-x="530" 
d="M329 900h86l-130 -135h-70zM215 -7q-83 0 -124 38.5t-41 106.5q0 71 49 113t156 42h129v37q0 60 -29 87.5t-95 27.5q-61 0 -89.5 -21t-32.5 -54h-68q2 27 15 52t36.5 44t58.5 30t80 11q97 0 143.5 -44.5t46.5 -132.5v-330h-52l-8 85h-2q-30 -45 -74.5 -68.5t-98.5 -23.5z
M220 55q36 0 66 11.5t52 32t34 49t12 62.5v27h-124q-77 0 -109.5 -27t-32.5 -72q0 -38 24.5 -60.5t77.5 -22.5zM260 533q-46 0 -75.5 29t-29.5 73t29.5 73t75.5 29t75.5 -29t29.5 -73t-29.5 -73t-75.5 -29zM260 581q25 0 40 15t15 39t-15 39t-40 15t-40 -15t-15 -39t15 -39
t40 -15z" />
    <glyph glyph-name="AEacute" unicode="&#x1fc;" horiz-adv-x="930" 
d="M430 700h450v-64h-350v-244h290v-64h-290v-264h350v-64h-420v203h-246l-118 -203h-76zM460 267v361l-209 -361h209zM741 915h88l-138 -150h-72z" />
    <glyph glyph-name="aeacute" unicode="&#x1fd;" horiz-adv-x="855" 
d="M210 -7q-79 0 -119.5 38.5t-40.5 106.5q0 34 12 62t37.5 47.5t66.5 30.5t100 11h108v51q0 54 -26.5 79.5t-87.5 25.5q-55 0 -82.5 -21.5t-31.5 -58.5h-71q2 31 14 57t35 45t57 29.5t79 10.5q119 0 159 -85q27 42 70 63.5t98 21.5q48 0 87.5 -15.5t67 -45.5t43 -74
t15.5 -100v-41h-360q0 -90 39.5 -133t107.5 -43q61 0 93 26t47 65h68q-8 -32 -24 -60t-42 -48.5t-61.5 -32.5t-80.5 -12q-65 0 -112.5 29.5t-72.5 85.5q-26 -54 -76 -84.5t-116 -30.5zM589 445q-63 0 -103.5 -39.5t-45.5 -116.5h292q-5 78 -43.5 117t-99.5 39zM210 55
q34 0 64 12.5t52.5 34t35 51t12.5 62.5v16h-108q-44 0 -72.5 -7t-45.5 -19.5t-23.5 -29.5t-6.5 -37q0 -38 23.5 -60.5t68.5 -22.5zM504 715h86l-130 -150h-70z" />
    <glyph glyph-name="Oslashacute" unicode="&#x1fe;" horiz-adv-x="710" 
d="M355 -7q-115 0 -192 69l-55 -69l-43 36l60 76q-29 42 -44.5 97.5t-15.5 125.5v54q0 77 21.5 137.5t59.5 102t91.5 63.5t117.5 22q117 0 193 -68l54 68l43 -36l-59 -75q29 -41 44 -94.5t15 -119.5v-54q0 -81 -21.5 -143.5t-59.5 -105t-91.5 -64.5t-117.5 -22zM504 583
q-58 60 -149 60q-48 0 -88 -17t-69 -50t-45 -81.5t-16 -112.5v-54q0 -50 9.5 -90.5t26.5 -72.5zM355 57q48 0 88 17t69 51t45 84.5t16 118.5v54q0 47 -9 85t-26 69l-331 -419q57 -60 148 -60zM441 915h88l-138 -150h-72z" />
    <glyph glyph-name="oslashacute" unicode="&#x1ff;" horiz-adv-x="550" 
d="M275 -7q-87 0 -142 45l-38 -45l-40 33l42 51q-20 29 -31 68.5t-11 87.5v34q0 57 15.5 102t44.5 75.5t69.5 46.5t90.5 16q86 0 142 -45l38 45l40 -33l-42 -51q20 -29 31 -68.5t11 -87.5v-34q0 -57 -15.5 -102t-44.5 -75.5t-69.5 -46.5t-90.5 -16zM375 411q-39 36 -100 36
q-69 0 -110.5 -45t-41.5 -135v-34q0 -59 20 -101zM275 53q69 0 110.5 45t41.5 135v34q0 59 -20 101l-232 -279q39 -36 100 -36zM354 715h86l-130 -150h-70z" />
    <glyph glyph-name="uni0218" unicode="&#x218;" horiz-adv-x="610" 
d="M315 -7q-122 0 -184.5 58t-70.5 159h74q8 -75 50.5 -114t130.5 -39q86 0 124.5 34t38.5 92q0 35 -17.5 58t-46 38.5t-65.5 26.5t-75 22t-75 25t-65.5 35.5t-46 53.5t-17.5 80q0 39 15 73t44 59t72 39t99 14q117 0 177 -55.5t68 -151.5h-74q-9 72 -48 107.5t-123 35.5
q-41 0 -71 -10t-49.5 -26.5t-28.5 -38.5t-9 -46q0 -48 30 -74t75.5 -42t98.5 -28.5t98.5 -34t75.5 -58.5t30 -102q0 -84 -58.5 -137t-176.5 -53zM286 -50h78l-88 -150h-62z" />
    <glyph glyph-name="uni0219" unicode="&#x219;" horiz-adv-x="490" 
d="M250 -7q-95 0 -141 40.5t-54 106.5h68q8 -41 36 -64t91 -23q64 0 90.5 22t26.5 58q0 32 -22.5 50t-56 29.5t-72.5 21t-72.5 25.5t-56 42t-22.5 71q0 57 44 96t131 39q46 0 80 -10.5t57 -28.5t36 -43t17 -55h-68q-8 35 -35 56t-87 21q-58 0 -82.5 -20.5t-24.5 -54.5
q0 -30 22.5 -46.5t56 -27t72.5 -20t72.5 -26t56 -44t22.5 -75.5q0 -30 -11.5 -55.5t-34.5 -44t-58 -29.5t-81 -11zM217 -50h76l-90 -150h-60z" />
    <glyph glyph-name="uni021A" unicode="&#x21a;" horiz-adv-x="580" 
d="M255 636h-230v64h530v-64h-230v-636h-70v636zM261 -50h78l-88 -150h-62z" />
    <glyph glyph-name="uni021B" unicode="&#x21b;" horiz-adv-x="360" 
d="M247 0q-49 0 -76 17t-39.5 39.5t-14.5 44.5t-2 31v308h-90v60h90v140h66v-140h134v-60h-134v-300q0 -80 74 -80h70v-60h-78v0zM202 -50h76l-90 -150h-60z" />
    <glyph glyph-name="uni0237" unicode="&#x237;" horiz-adv-x="256" 
d="M-9 -140h24q30 0 46 11t23.5 26.5t9 34t1.5 33.5v535h66v-540q0 -21 -2.5 -48.5t-16 -52t-43.5 -42t-84 -17.5h-24v60z" />
    <glyph glyph-name="uni0259" unicode="&#x259;" horiz-adv-x="540" 
d="M270 -7q-98 0 -156.5 61t-58.5 174v41h362q0 90 -40 133t-112 43q-61 0 -91.5 -23.5t-45.5 -56.5h-68q7 28 23.5 54t42 45.5t60.5 31t79 11.5q102 0 161 -61t59 -174v-44q0 -113 -58.5 -174t-156.5 -61zM270 55q64 0 103 40.5t44 115.5h-294q5 -78 44.5 -117t102.5 -39z
" />
    <glyph glyph-name="uni027C" unicode="&#x27c;" horiz-adv-x="375" 
d="M85 500h52l8 -75h2q55 82 159 82h49v-60h-50q-73 0 -113.5 -39.5t-40.5 -107.5v-500h-66v700z" />
    <glyph glyph-name="uni02BC" unicode="&#x2bc;" horiz-adv-x="190" 
d="M95 700h70l-78 -240h-62z" />
    <glyph glyph-name="circumflex" unicode="&#x2c6;" horiz-adv-x="360" 
d="M139 715h82l114 -150h-70l-85 95l-85 -95h-70z" />
    <glyph glyph-name="caron" unicode="&#x2c7;" horiz-adv-x="360" 
d="M25 715h70l85 -95l85 95h70l-114 -150h-82z" />
    <glyph glyph-name="breve" unicode="&#x2d8;" horiz-adv-x="300" 
d="M150 563q-60 0 -97.5 37.5t-37.5 99.5h58q2 -39 22 -60t55 -21t55 21t22 60h58q0 -62 -37.5 -99.5t-97.5 -37.5z" />
    <glyph glyph-name="dotaccent" unicode="&#x2d9;" horiz-adv-x="160" 
d="M80 588q-20 0 -33.5 13.5t-13.5 33.5t13.5 33.5t33.5 13.5t33.5 -13.5t13.5 -33.5t-13.5 -33.5t-33.5 -13.5z" />
    <glyph glyph-name="ring" unicode="&#x2da;" horiz-adv-x="240" 
d="M120 533q-46 0 -75.5 29t-29.5 73t29.5 73t75.5 29t75.5 -29t29.5 -73t-29.5 -73t-75.5 -29zM120 581q25 0 40 15t15 39t-15 39t-40 15t-40 -15t-15 -39t15 -39t40 -15z" />
    <glyph glyph-name="ogonek" unicode="&#x2db;" horiz-adv-x="180" 
d="M105 -200q-45 0 -67.5 21t-22.5 56q0 18 5.5 34.5t19 35t35.5 40.5t54 49l36 -36q-27 -26 -44 -43.5t-27 -30.5t-13.5 -22.5t-3.5 -19.5q0 -14 9 -22t29 -8h50v-54h-60z" />
    <glyph glyph-name="tilde" unicode="&#x2dc;" horiz-adv-x="340" 
d="M235 570q-25 0 -43 11t-32 24.5t-27 25t-28 11.5q-17 0 -28.5 -13.5t-11.5 -43.5h-50q0 59 25 87t65 28q25 0 43 -11.5t32 -25t27 -24.5t28 -11q17 0 28.5 13.5t11.5 43.5h50q0 -59 -25 -87t-65 -28z" />
    <glyph glyph-name="hungarumlaut" unicode="&#x2dd;" horiz-adv-x="390" 
d="M123 715h82l-114 -150h-66zM279 715h86l-130 -150h-70z" />
    <glyph glyph-name="acutecomb" unicode="&#x301;" horiz-adv-x="0" 
d="M-195 715h86l-130 -150h-70z" />
    <glyph glyph-name="uni0326" unicode="&#x326;" horiz-adv-x="0" 
d="M99 -50h76l-90 -150h-60z" />
    <glyph glyph-name="Delta" unicode="&#x394;" horiz-adv-x="650" 
d="M285 700h80l260 -700h-600zM528 64l-204 557l-204 -557h408z" />
    <glyph glyph-name="Delta" unicode="&#x2206;" horiz-adv-x="650" 
d="M285 700h80l260 -700h-600zM528 64l-204 557l-204 -557h408z" />
    <glyph glyph-name="Xi" unicode="&#x39e;" horiz-adv-x="510" 
d="M45 700h420v-64h-420v64zM125 392h260v-64h-260v64zM45 64h420v-64h-420v64z" />
    <glyph glyph-name="uni03A9" unicode="&#x3a9;" horiz-adv-x="710" 
d="M65 62h109q-52 39 -80.5 103.5t-28.5 152.5v64q0 76 22 136t60.5 102t91.5 64.5t116 22.5t116 -22t92 -64t60.5 -102.5t21.5 -136.5v-64q0 -88 -29 -152.5t-81 -103.5h110v-62h-240v62q78 16 123 83t45 173v64q0 61 -17 109.5t-46 81.5t-69 50.5t-86 17.5q-47 0 -87 -17
t-69 -50t-45.5 -81.5t-16.5 -110.5v-64q0 -106 45.5 -173t122.5 -83v-62h-240v62z" />
    <glyph glyph-name="uni03A9" unicode="&#x2126;" horiz-adv-x="710" 
d="M65 62h109q-52 39 -80.5 103.5t-28.5 152.5v64q0 76 22 136t60.5 102t91.5 64.5t116 22.5t116 -22t92 -64t60.5 -102.5t21.5 -136.5v-64q0 -88 -29 -152.5t-81 -103.5h110v-62h-240v62q78 16 123 83t45 173v64q0 61 -17 109.5t-46 81.5t-69 50.5t-86 17.5q-47 0 -87 -17
t-69 -50t-45.5 -81.5t-16.5 -110.5v-64q0 -106 45.5 -173t122.5 -83v-62h-240v62z" />
    <glyph glyph-name="pi" unicode="&#x3c0;" horiz-adv-x="620" 
d="M120 440h-90v60h560v-60h-90v-300q0 -80 72 -80h28v-60h-36q-63 0 -96.5 33.5t-33.5 98.5v308h-248v-440h-66v440z" />
    <glyph glyph-name="uni0400" unicode="&#x400;" horiz-adv-x="560" 
d="M90 700h420v-64h-350v-244h290v-64h-290v-264h350v-64h-420v700zM140 915h90l120 -150h-74z" />
    <glyph glyph-name="uni0401" unicode="&#x401;" horiz-adv-x="560" 
d="M90 700h420v-64h-350v-244h290v-64h-290v-264h350v-64h-420v700zM192 788q-20 0 -33.5 13.5t-13.5 33.5t13.5 33.5t33.5 13.5t33.5 -13.5t13.5 -33.5t-13.5 -33.5t-33.5 -13.5zM408 788q-20 0 -33.5 13.5t-13.5 33.5t13.5 33.5t33.5 13.5t33.5 -13.5t13.5 -33.5
t-13.5 -33.5t-33.5 -13.5z" />
    <glyph glyph-name="uni0402" unicode="&#x402;" horiz-adv-x="735" 
d="M190 636h-165v64h530v-64h-295v-214q42 11 80 15.5t75 4.5q130 0 192.5 -65t62.5 -209v-44q0 -143 -60.5 -208.5t-174.5 -65.5h-40v64h40q80 0 122.5 48t42.5 162v44q0 58 -11 98t-34.5 65t-60.5 36t-89 11q-33 0 -66.5 -4.5t-78.5 -16.5v-357h-70v636z" />
    <glyph glyph-name="uni0403" unicode="&#x403;" horiz-adv-x="515" 
d="M90 700h400v-64h-330v-636h-70v700zM366 915h88l-138 -150h-72z" />
    <glyph glyph-name="uni0404" unicode="&#x404;" horiz-adv-x="670" 
d="M350 -7q-63 0 -115 22t-90 64.5t-59 105t-21 143.5v54q0 77 21 137.5t59 102t90.5 63.5t114.5 22q57 0 102.5 -16.5t79.5 -44.5t54.5 -65.5t28.5 -80.5h-74q-8 30 -23.5 56t-39.5 45.5t-56 30.5t-72 11q-46 0 -85 -17t-67.5 -50t-44.5 -80.5t-16 -108.5h298v-64h-298
q0 -65 16.5 -115t45 -83.5t67.5 -50.5t84 -17q81 0 128.5 43t62.5 110h74q-8 -47 -28.5 -86.5t-54.5 -68.5t-79.5 -45.5t-102.5 -16.5z" />
    <glyph glyph-name="uni0405" unicode="&#x405;" horiz-adv-x="610" 
d="M315 -7q-122 0 -184.5 58t-70.5 159h74q8 -75 50.5 -114t130.5 -39q86 0 124.5 34t38.5 92q0 35 -17.5 58t-46 38.5t-65.5 26.5t-75 22t-75 25t-65.5 35.5t-46 53.5t-17.5 80q0 39 15 73t44 59t72 39t99 14q117 0 177 -55.5t68 -151.5h-74q-9 72 -48 107.5t-123 35.5
q-41 0 -71 -10t-49.5 -26.5t-28.5 -38.5t-9 -46q0 -48 30 -74t75.5 -42t98.5 -28.5t98.5 -34t75.5 -58.5t30 -102q0 -84 -58.5 -137t-176.5 -53z" />
    <glyph glyph-name="uni0406" unicode="&#x406;" horiz-adv-x="270" 
d="M100 700h70v-700h-70v700z" />
    <glyph glyph-name="uni0407" unicode="&#x407;" horiz-adv-x="270" 
d="M100 700h70v-700h-70v700zM28 788q-20 0 -33.5 13.5t-13.5 33.5t13.5 33.5t33.5 13.5t33.5 -13.5t13.5 -33.5t-13.5 -33.5t-33.5 -13.5zM244 788q-20 0 -33.5 13.5t-13.5 33.5t13.5 33.5t33.5 13.5t33.5 -13.5t13.5 -33.5t-13.5 -33.5t-33.5 -13.5z" />
    <glyph glyph-name="uni0408" unicode="&#x408;" horiz-adv-x="535" 
d="M240 -7q-92 0 -147 56t-63 161h70q8 -80 42.5 -116.5t97.5 -36.5q52 0 80 21.5t41.5 51.5t16 63t2.5 57v450h70v-455q0 -13 -1 -37t-7 -52t-19 -57t-36 -52.5t-59 -38.5t-88 -15z" />
    <glyph glyph-name="uni0409" unicode="&#x409;" horiz-adv-x="995" 
d="M25 57h10q44 0 68.5 27t36 74.5t13.5 112t2 139.5v290h420v-286h150q113 0 171.5 -55.5t58.5 -151.5q0 -94 -59 -150.5t-171 -56.5h-220v636h-280v-226q0 -83 -3.5 -158t-21.5 -133t-56.5 -92t-108.5 -34h-10v64zM720 64q84 0 123.5 37t39.5 106t-39.5 106t-123.5 37
h-145v-286h145z" />
    <glyph glyph-name="uni040A" unicode="&#x40a;" horiz-adv-x="1010" 
d="M90 700h70v-288h355v288h70v-286h155q113 0 171.5 -55.5t58.5 -151.5q0 -94 -59 -150.5t-171 -56.5h-225v348h-355v-348h-70v700zM735 64q84 0 123.5 37t39.5 106t-39.5 106t-123.5 37h-150v-286h150z" />
    <glyph glyph-name="uni040B" unicode="&#x40b;" horiz-adv-x="740" 
d="M195 636h-170v64h530v-64h-290v-218q43 12 86.5 18t83.5 6q60 0 101 -12t67.5 -31t41 -44t21.5 -51.5t8 -52t1 -46.5v-205h-70v200q0 28 -3 59t-19 57.5t-50.5 44t-97.5 17.5q-89 0 -170 -26v-352h-70v636z" />
    <glyph glyph-name="uni040C" unicode="&#x40c;" horiz-adv-x="635" 
d="M90 700h70v-308h110l228 308h82l-252 -338l272 -362h-86l-244 328h-110v-328h-70v700zM386 915h88l-138 -150h-72z" />
    <glyph glyph-name="uni040D" unicode="&#x40d;" horiz-adv-x="710" 
d="M90 700h70v-620h2l358 620h100v-700h-70v620h-2l-358 -620h-100v700zM195 915h90l120 -150h-74z" />
    <glyph glyph-name="uni040E" unicode="&#x40e;" horiz-adv-x="610" 
d="M286 200l-256 500h80l212 -420h2l180 420h76l-305 -700h-76zM307 763q-71 0 -108 36t-37 101h66q0 -83 79 -83t79 83h66q0 -65 -37 -101t-108 -36z" />
    <glyph glyph-name="uni040F" unicode="&#x40f;" horiz-adv-x="700" 
d="M90 700h70v-636h380v636h70v-700h-226v-150h-68v150h-226v700z" />
    <glyph glyph-name="uni0410" unicode="&#x410;" horiz-adv-x="660" 
d="M290 700h80l260 -700h-76l-73 203h-306l-73 -203h-72zM458 267l-128 358h-2l-130 -358h260z" />
    <glyph glyph-name="uni0411" unicode="&#x411;" horiz-adv-x="610" 
d="M90 700h420v-64h-350v-222h165q117 0 176 -55.5t59 -151.5q0 -94 -60 -150.5t-175 -56.5h-235v700zM160 350v-286h160q88 0 128 37t40 106t-40 106t-128 37h-160z" />
    <glyph glyph-name="uni0412" unicode="&#x412;" horiz-adv-x="620" 
d="M90 700h220q120 0 175 -49.5t55 -136.5q0 -52 -24.5 -90t-70.5 -59v-2q57 -20 86 -62.5t29 -104.5q0 -95 -55 -145.5t-175 -50.5h-240v700zM160 636v-244h145q88 0 125.5 32.5t37.5 89.5t-37.5 89.5t-125.5 32.5h-145zM160 328v-264h165q88 0 125.5 33.5t37.5 98.5
t-37.5 98.5t-125.5 33.5h-165z" />
    <glyph glyph-name="uni0413" unicode="&#x413;" horiz-adv-x="515" 
d="M90 700h400v-64h-330v-636h-70v700z" />
    <glyph glyph-name="uni0414" unicode="&#x414;" horiz-adv-x="700" 
d="M25 64h62q22 32 36 65.5t22.5 79t11.5 108.5t3 153v230h435v-636h75v-214h-68v150h-509v-150h-68v214zM525 64v572h-295v-166q0 -87 -3 -149.5t-10 -109.5t-18.5 -81.5t-29.5 -65.5h356z" />
    <glyph glyph-name="uni0415" unicode="&#x415;" horiz-adv-x="560" 
d="M90 700h420v-64h-350v-244h290v-64h-290v-264h350v-64h-420v700z" />
    <glyph glyph-name="uni0416" unicode="&#x416;" horiz-adv-x="920" 
d="M258 362l-208 338h78l187 -308h110v308h70v-308h110l187 308h78l-209 -338l224 -362h-82l-198 328h-110v-328h-70v328h-110l-198 -328h-82z" />
    <glyph glyph-name="uni0417" unicode="&#x417;" horiz-adv-x="595" 
d="M300 -7q-115 0 -176 58t-69 159h72q8 -74 50 -113.5t123 -39.5t122 37.5t41 100.5q0 59 -41 96t-122 37h-85v64h85q74 0 111 34t37 90q0 58 -37 92.5t-111 34.5t-112 -36.5t-46 -106.5h-72q8 97 65.5 152t164.5 55t163.5 -53t56.5 -138q0 -51 -25.5 -91t-71.5 -62v-2
q55 -22 83.5 -64t28.5 -102q0 -45 -15.5 -82t-45 -63.5t-73.5 -41.5t-101 -15z" />
    <glyph glyph-name="uni0418" unicode="&#x418;" horiz-adv-x="710" 
d="M90 700h70v-620h2l358 620h100v-700h-70v620h-2l-358 -620h-100v700z" />
    <glyph glyph-name="uni0419" unicode="&#x419;" horiz-adv-x="710" 
d="M90 700h70v-620h2l358 620h100v-700h-70v620h-2l-358 -620h-100v700zM355 763q-71 0 -108 36t-37 101h66q0 -83 79 -83t79 83h66q0 -65 -37 -101t-108 -36z" />
    <glyph glyph-name="uni041A" unicode="&#x41a;" horiz-adv-x="635" 
d="M90 700h70v-308h110l228 308h82l-252 -338l272 -362h-86l-244 328h-110v-328h-70v700z" />
    <glyph glyph-name="uni041B" unicode="&#x41b;" horiz-adv-x="685" 
d="M25 57h10q44 0 68.5 27t36 74.5t13.5 112t2 139.5v290h440v-700h-70v636h-300v-226q0 -83 -3.5 -158t-21.5 -133t-56.5 -92t-108.5 -34h-10v64z" />
    <glyph glyph-name="uni041C" unicode="&#x41c;" horiz-adv-x="810" 
d="M90 700h104l212 -418h2l212 418h100v-700h-70v615h-2l-208 -410h-70l-208 410h-2v-615h-70v700z" />
    <glyph glyph-name="uni041D" unicode="&#x41d;" horiz-adv-x="710" 
d="M90 700h70v-308h390v308h70v-700h-70v328h-390v-328h-70v700z" />
    <glyph glyph-name="uni041E" unicode="&#x41e;" horiz-adv-x="710" 
d="M355 -7q-65 0 -118 22t-91.5 64.5t-59.5 105t-21 143.5v54q0 77 21.5 137.5t59.5 102t91.5 63.5t117.5 22t117.5 -21.5t92 -63t59.5 -102t21 -138.5v-54q0 -81 -21.5 -143.5t-59.5 -105t-91.5 -64.5t-117.5 -22zM355 57q48 0 88 17t69 51t45 84.5t16 118.5v54
q0 63 -16.5 111.5t-45.5 82t-69 50.5t-87 17q-48 0 -88 -17t-69 -50t-45 -81.5t-16 -112.5v-54q0 -67 16.5 -117.5t45.5 -84.5t69 -51.5t87 -17.5z" />
    <glyph glyph-name="uni041F" unicode="&#x41f;" horiz-adv-x="700" 
d="M90 700h520v-700h-70v636h-380v-636h-70v700z" />
    <glyph glyph-name="uni0420" unicode="&#x420;" horiz-adv-x="600" 
d="M90 700h225q125 0 185 -57t60 -160q0 -102 -61 -159.5t-184 -57.5h-155v-266h-70v700zM160 636v-306h150q95 0 136.5 38.5t41.5 114.5q0 75 -42 114t-136 39h-150z" />
    <glyph glyph-name="uni0421" unicode="&#x421;" horiz-adv-x="670" 
d="M350 -7q-63 0 -115 22t-90 64.5t-59 105t-21 143.5v54q0 77 21 137.5t59 102t90.5 63.5t114.5 22q57 0 102.5 -16.5t79.5 -44.5t54.5 -65.5t28.5 -80.5h-74q-8 30 -23.5 56t-39.5 45.5t-56 30.5t-72 11q-46 0 -85 -17t-67.5 -50t-44.5 -81.5t-16 -112.5v-54
q0 -67 16.5 -118t45 -85t67.5 -51t84 -17q81 0 128.5 43t62.5 110h74q-8 -47 -28.5 -86.5t-54.5 -68.5t-79.5 -45.5t-102.5 -16.5z" />
    <glyph glyph-name="uni0422" unicode="&#x422;" horiz-adv-x="580" 
d="M255 636h-230v64h530v-64h-230v-636h-70v636z" />
    <glyph glyph-name="uni0423" unicode="&#x423;" horiz-adv-x="610" 
d="M286 200l-256 500h80l212 -420h2l180 420h76l-305 -700h-76z" />
    <glyph glyph-name="uni0424" unicode="&#x424;" horiz-adv-x="840" 
d="M385 48q-82 0 -143.5 20t-103 57.5t-62.5 90t-21 117.5v34q0 64 21 116.5t63 90t103.5 58t142.5 20.5v55h70v-55q82 0 143.5 -20t103 -57.5t62.5 -90t21 -117.5v-34q0 -64 -21 -116.5t-63 -90t-103.5 -58t-142.5 -20.5v-55h-70v55zM713 367q0 101 -64.5 161t-193.5 60
v-476q134 0 196 57.5t62 163.5v34zM127 333q0 -101 64.5 -161t193.5 -60v476q-131 0 -194.5 -59t-63.5 -162v-34z" />
    <glyph glyph-name="uni0425" unicode="&#x425;" horiz-adv-x="650" 
d="M280 366l-225 334h86l185 -280l187 280h82l-225 -333l245 -367h-88l-203 310l-205 -310h-84z" />
    <glyph glyph-name="uni0426" unicode="&#x426;" horiz-adv-x="725" 
d="M90 700h70v-636h380v636h70v-636h85v-214h-68v150h-537v700z" />
    <glyph glyph-name="uni0427" unicode="&#x427;" horiz-adv-x="630" 
d="M300 258q-60 0 -101 12t-67.5 31t-41 44t-21.5 51.5t-8 52t-1 46.5v205h70v-200q0 -28 3 -59t19 -57.5t50.5 -44t97.5 -17.5q89 0 170 26v352h70v-700h-70v282q-43 -12 -86.5 -18t-83.5 -6z" />
    <glyph glyph-name="uni0428" unicode="&#x428;" horiz-adv-x="940" 
d="M90 700h70v-636h275v636h70v-636h275v636h70v-700h-760v700z" />
    <glyph glyph-name="uni0429" unicode="&#x429;" horiz-adv-x="965" 
d="M90 700h70v-636h275v636h70v-636h275v636h70v-636h85v-214h-68v150h-777v700z" />
    <glyph glyph-name="uni042A" unicode="&#x42a;" horiz-adv-x="715" 
d="M205 636h-180v64h250v-266h155q125 0 185 -57t60 -160q0 -102 -61 -159.5t-184 -57.5h-225v636zM425 64q95 0 136.5 38.5t41.5 114.5t-41.5 114.5t-136.5 38.5h-150v-306h150z" />
    <glyph glyph-name="uni042B" unicode="&#x42b;" horiz-adv-x="830" 
d="M670 700h70v-700h-70v700zM90 700h70v-266h149q123 0 184 -57.5t61 -159.5q0 -103 -60 -160t-185 -57h-219v700zM304 64q94 0 136 39t42 114q0 76 -41.5 114.5t-136.5 38.5h-144v-306h144z" />
    <glyph glyph-name="uni042C" unicode="&#x42c;" horiz-adv-x="600" 
d="M90 700h70v-266h155q125 0 185 -57t60 -160q0 -102 -61 -159.5t-184 -57.5h-225v700zM310 64q95 0 136.5 38.5t41.5 114.5t-41.5 114.5t-136.5 38.5h-150v-306h150z" />
    <glyph glyph-name="uni042D" unicode="&#x42d;" horiz-adv-x="670" 
d="M320 -7q-57 0 -102.5 16.5t-79.5 45.5t-55 68.5t-28 86.5h74q15 -67 62.5 -110t128.5 -43q45 0 84 17t67.5 50.5t45 83.5t16.5 115h-298v64h298q0 61 -16 108.5t-44.5 80.5t-67.5 50t-85 17q-40 0 -72 -11t-56 -30.5t-40 -45.5t-23 -56h-74q7 43 28 80.5t55 65.5
t79.5 44.5t102.5 16.5q62 0 114.5 -22t90.5 -63.5t59 -102t21 -137.5v-54q0 -81 -21 -143.5t-59 -105t-90 -64.5t-115 -22z" />
    <glyph glyph-name="uni042E" unicode="&#x42e;" horiz-adv-x="915" 
d="M90 700h70v-308h140q0 76 20 135t56.5 99t87 60.5t111.5 20.5t111.5 -21t87 -61.5t56.5 -100t20 -137.5v-54q0 -85 -20 -149t-56.5 -106.5t-87 -63.5t-111.5 -21q-62 0 -112.5 21t-86.5 62.5t-56 104.5t-20 147h-140v-328h-70v700zM575 57q44 0 81 16.5t64 50.5t42.5 86
t15.5 123v54q0 64 -15.5 112t-42.5 80t-64 48t-81 16t-81 -16t-64 -48t-42.5 -80t-15.5 -112v-54q0 -71 15.5 -123t42.5 -86t64 -50.5t81 -16.5z" />
    <glyph glyph-name="uni042F" unicode="&#x42f;" horiz-adv-x="620" 
d="M460 0v286h-155q-7 0 -13.5 0.5t-12.5 0.5l-159 -287h-80l168 298q-75 20 -111.5 71t-36.5 124q0 95 60.5 151t184.5 56h225v-700h-70zM460 636h-150q-94 0 -136 -38t-42 -105q0 -69 41.5 -106t136.5 -37h150v286z" />
    <glyph glyph-name="uni0430" unicode="&#x430;" horiz-adv-x="530" 
d="M215 -7q-83 0 -124 38.5t-41 106.5q0 71 49 113t156 42h129v37q0 60 -29 87.5t-95 27.5q-61 0 -89.5 -21t-32.5 -54h-68q2 27 15 52t36.5 44t58.5 30t80 11q97 0 143.5 -44.5t46.5 -132.5v-330h-52l-8 85h-2q-30 -45 -74.5 -68.5t-98.5 -23.5zM220 55q36 0 66 11.5t52 32
t34 49t12 62.5v27h-124q-77 0 -109.5 -27t-32.5 -72q0 -38 24.5 -60.5t77.5 -22.5z" />
    <glyph glyph-name="uni0431" unicode="&#x431;" horiz-adv-x="555" 
d="M281 -7q-102 0 -161.5 65.5t-59.5 204.5v54q0 57 5 108t17.5 93t34.5 74.5t57 53.5q31 18 61.5 24.5t64.5 9.5t73 7.5t87 19.5v-61q-38 -14 -73.5 -18t-68 -7t-61.5 -8t-53 -20q-37 -24 -55.5 -68t-24.5 -115h2q26 42 68.5 64.5t98.5 22.5q45 0 83 -16t65.5 -46t43 -74
t15.5 -99v-34q0 -55 -16 -98.5t-44.5 -74t-69 -46.5t-89.5 -16zM281 53q68 0 109.5 44.5t41.5 130.5v34q0 86 -41.5 130.5t-109.5 44.5q-70 0 -111.5 -44t-41.5 -131v-34q0 -85 42 -130t111 -45z" />
    <glyph glyph-name="uni0432" unicode="&#x432;" horiz-adv-x="520" 
d="M85 500h190q88 0 129 -37t41 -100q0 -33 -16.5 -60t-46.5 -42v-2q41 -16 62 -46t21 -70q0 -67 -41 -105t-129 -38h-210v500zM377 362q0 37 -24 57.5t-83 20.5h-119v-157h119q59 0 83 20.5t24 58.5zM397 144q0 41 -24 62t-83 21h-139v-167h139q59 0 83 21t24 63z" />
    <glyph glyph-name="uni0433" unicode="&#x433;" horiz-adv-x="425" 
d="M85 500h320v-60h-254v-440h-66v500z" />
    <glyph glyph-name="uni0434" unicode="&#x434;" horiz-adv-x="560" 
d="M20 60h55q16 25 26.5 51t17 59t9 76.5t2.5 103.5v150h340v-440h65v-190h-64v130h-387v-130h-64v190zM404 60v380h-210v-90q0 -54 -2 -95t-7 -74.5t-14 -62t-22 -56.5v-2h255z" />
    <glyph glyph-name="uni0435" unicode="&#x435;" horiz-adv-x="540" 
d="M270 -7q-48 0 -88 16t-68 46.5t-43.5 75t-15.5 102.5v34q0 57 15.5 102t44 75.5t68 46.5t87.5 16t88 -16t68 -47t43.5 -76.5t15.5 -105.5v-30h-362q0 -87 38 -133t109 -46q107 0 142 87h68q-18 -72 -71.5 -109.5t-138.5 -37.5zM270 447q-64 0 -103 -40.5t-44 -118.5h294
q-5 81 -44.5 120t-102.5 39z" />
    <glyph glyph-name="uni0436" unicode="&#x436;" horiz-adv-x="710" 
d="M179 263l-144 237h74l123 -210h90v210h66v-210h90l123 210h74l-144 -237l154 -263h-76l-131 230h-90v-230h-66v230h-90l-131 -230h-76z" />
    <glyph glyph-name="uni0437" unicode="&#x437;" horiz-adv-x="485" 
d="M240 -7q-97 0 -144.5 42.5t-55.5 114.5h68q8 -48 37 -72.5t95 -24.5t94 23.5t28 63.5q0 38 -28 61.5t-94 23.5h-55v60h55q57 0 82 22t25 58q0 38 -25 60t-82 22t-83 -22.5t-34 -64.5h-68q8 66 52.5 106.5t132.5 40.5q87 0 131 -40t44 -102q0 -68 -65 -106v-2
q80 -33 80 -117q0 -65 -46.5 -106t-143.5 -41z" />
    <glyph glyph-name="uni0438" unicode="&#x438;" horiz-adv-x="580" 
d="M85 500h66v-425h2l250 425h92v-500h-66v425h-2l-250 -425h-92v500z" />
    <glyph glyph-name="uni0439" unicode="&#x439;" horiz-adv-x="580" 
d="M85 500h66v-425h2l250 425h92v-500h-66v425h-2l-250 -425h-92v500zM290 563q-63 0 -99 36t-36 101h64q0 -45 18.5 -65t52.5 -20t52.5 20t18.5 65h64q0 -65 -36 -101t-99 -36z" />
    <glyph glyph-name="uni043A" unicode="&#x43a;" horiz-adv-x="510" 
d="M85 500h66v-210h90l146 210h78l-171 -238l191 -262h-80l-164 230h-90v-230h-66v500z" />
    <glyph glyph-name="uni043B" unicode="&#x43b;" horiz-adv-x="545" 
d="M20 53h15q31 0 48 21t25.5 61t10 97t1.5 128v140h340v-500h-66v440h-208v-80q0 -81 -2.5 -148t-17 -116t-45 -76t-86.5 -27h-15v60z" />
    <glyph glyph-name="uni043C" unicode="&#x43c;" horiz-adv-x="680" 
d="M85 500h96l160 -308h2l160 308h92v-500h-66v415h-2l-154 -295h-66l-154 295h-2v-415h-66v500z" />
    <glyph glyph-name="uni043D" unicode="&#x43d;" horiz-adv-x="580" 
d="M85 500h66v-215h278v215h66v-500h-66v225h-278v-225h-66v500z" />
    <glyph glyph-name="uni043E" unicode="&#x43e;" horiz-adv-x="550" 
d="M275 -7q-101 0 -160.5 62t-59.5 178v34q0 57 15.5 102t44.5 75.5t69.5 46.5t90.5 16q101 0 160.5 -62t59.5 -178v-34q0 -57 -15.5 -102t-44.5 -75.5t-69.5 -46.5t-90.5 -16zM275 53q69 0 110.5 45t41.5 135v34q0 89 -42 134.5t-110 45.5q-69 0 -110.5 -45t-41.5 -135v-34
q0 -89 42 -134.5t110 -45.5z" />
    <glyph glyph-name="uni043F" unicode="&#x43f;" horiz-adv-x="560" 
d="M85 500h390v-500h-66v440h-258v-440h-66v500z" />
    <glyph glyph-name="uni0440" unicode="&#x440;" horiz-adv-x="570" 
d="M85 500h52l8 -75h2q33 43 73 62.5t94 19.5q44 0 81 -15.5t63.5 -46t41.5 -75.5t15 -103v-34q0 -58 -15 -102.5t-42 -75t-64 -46.5t-80 -16q-108 0 -161 77h-2v-270h-66v700zM299 53q66 0 107 44.5t41 135.5v34q0 89 -41.5 134.5t-106.5 45.5q-66 0 -107 -44.5t-41 -135.5
v-34q0 -89 41.5 -134.5t106.5 -45.5z" />
    <glyph glyph-name="uni0441" unicode="&#x441;" horiz-adv-x="505" 
d="M265 -7q-47 0 -86 15.5t-66.5 46.5t-42.5 77t-15 106v34q0 56 15.5 99.5t43 73.5t66 46t85.5 16q44 0 79 -11.5t60 -32t40 -47t21 -56.5h-68q-11 37 -41 62t-86 25q-64 0 -105.5 -45t-41.5 -130v-34q0 -92 42 -138.5t105 -46.5q56 0 86 26t41 71h68q-6 -34 -21 -62.5
t-40 -49.5t-60 -33t-79 -12z" />
    <glyph glyph-name="uni0442" unicode="&#x442;" horiz-adv-x="440" 
d="M187 440h-167v60h400v-60h-167v-440h-66v440z" />
    <glyph glyph-name="uni0443" unicode="&#x443;" horiz-adv-x="520" 
d="M234 0l-209 500h72l171 -418h2l157 418h68l-270 -700h-68z" />
    <glyph glyph-name="uni0444" unicode="&#x444;" horiz-adv-x="700" 
d="M317 -7h-37q-51 0 -92.5 16.5t-71 48t-45.5 75.5t-16 100v34q0 55 16.5 99.5t46 75.5t71 48t91.5 17h37v193h66v-193h37q51 0 92.5 -16.5t71 -48t45.5 -76t16 -99.5v-34q0 -55 -16.5 -99.5t-46 -75.5t-71 -48t-91.5 -17h-37v-193h-66v193zM577 267q0 86 -42.5 132
t-114.5 46h-37v-390h37q72 0 114.5 45.5t42.5 132.5v34zM123 233q0 -86 42.5 -132t114.5 -46h37v390h-37q-72 0 -114.5 -45.5t-42.5 -132.5v-34z" />
    <glyph glyph-name="uni0445" unicode="&#x445;" horiz-adv-x="500" 
d="M211 260l-172 240h76l136 -191l136 191h74l-172 -239l186 -261h-78l-148 209l-148 -209h-76z" />
    <glyph glyph-name="uni0446" unicode="&#x446;" horiz-adv-x="570" 
d="M479 0h-394v500h66v-440h253v440h66v-440h75v-190h-66v130z" />
    <glyph glyph-name="uni0447" unicode="&#x447;" horiz-adv-x="520" 
d="M245 170q-100 0 -145 43t-45 133v154h66v-150q0 -66 27.5 -93t96.5 -27q38 0 70 5.5t54 10.5v254h66v-500h-66v186q-22 -5 -54 -10.5t-70 -5.5z" />
    <glyph glyph-name="uni0448" unicode="&#x448;" horiz-adv-x="760" 
d="M85 500h66v-440h196v440h66v-440h196v440h66v-500h-590v500z" />
    <glyph glyph-name="uni0449" unicode="&#x449;" horiz-adv-x="775" 
d="M684 0h-599v500h66v-440h196v440h66v-440h196v440h66v-440h75v-190h-66v130z" />
    <glyph glyph-name="uni044A" unicode="&#x44a;" horiz-adv-x="570" 
d="M165 440h-145v60h211v-180h114q97 0 143.5 -43t46.5 -117q0 -73 -47 -116.5t-143 -43.5h-180v440zM231 260v-200h109q69 0 98 26t29 74t-29.5 74t-97.5 26h-109z" />
    <glyph glyph-name="uni044B" unicode="&#x44b;" horiz-adv-x="710" 
d="M559 500h66v-500h-66v500zM85 500h66v-180h114q97 0 143.5 -43t46.5 -117q0 -73 -47 -116.5t-143 -43.5h-180v500zM151 260v-200h109q69 0 98 26t29 74t-29.5 74t-97.5 26h-109z" />
    <glyph glyph-name="uni044C" unicode="&#x44c;" horiz-adv-x="490" 
d="M85 500h66v-180h114q97 0 143.5 -43t46.5 -117q0 -73 -47 -116.5t-143 -43.5h-180v500zM151 260v-200h109q69 0 98 26t29 74t-29.5 74t-97.5 26h-109z" />
    <glyph glyph-name="uni044D" unicode="&#x44d;" horiz-adv-x="510" 
d="M245 -7q-44 0 -79 12t-60 33t-40 49.5t-21 62.5h68q11 -45 41.5 -71t90.5 -26q63 0 101 46t41 126h-202v60h202q-3 75 -41 118.5t-101 43.5q-59 0 -90 -25t-42 -62h-68q6 30 21 56.5t40 47t60 32t79 11.5q46 0 85 -16t66.5 -46t43 -73.5t15.5 -99.5v-34q0 -59 -15.5 -105
t-43.5 -77t-66.5 -47t-84.5 -16z" />
    <glyph glyph-name="uni044E" unicode="&#x44e;" horiz-adv-x="740" 
d="M85 500h66v-215h112q2 52 18 93.5t44 70t66 43.5t83 15q47 0 86 -16t66.5 -46.5t43 -75t15.5 -102.5v-34q0 -57 -15.5 -102t-43.5 -75.5t-67 -46.5t-85 -16q-47 0 -85.5 15.5t-66 45t-43.5 72.5t-16 99h-112v-225h-66v500zM474 53q62 0 102.5 45t40.5 135v34
q0 45 -11 78.5t-30 56t-45 34t-57 11.5q-63 0 -103 -44t-40 -131v-34q0 -93 40.5 -139t102.5 -46z" />
    <glyph glyph-name="uni044F" unicode="&#x44f;" horiz-adv-x="505" 
d="M157 200q-51 17 -74 53t-23 90q0 75 46.5 116t153.5 41h160v-500h-66v186h-94h-19.5t-18.5 1l-106 -187h-76zM128 343q0 -47 30 -72t107 -25h89v194h-89q-77 0 -107 -25t-30 -72z" />
    <glyph glyph-name="uni0450" unicode="&#x450;" horiz-adv-x="540" 
d="M270 -7q-48 0 -88 16t-68 46.5t-43.5 75t-15.5 102.5v34q0 57 15.5 102t44 75.5t68 46.5t87.5 16t88 -16t68 -47t43.5 -76.5t15.5 -105.5v-30h-362q0 -87 38 -133t109 -46q107 0 142 87h68q-18 -72 -71.5 -109.5t-138.5 -37.5zM270 447q-64 0 -103 -40.5t-44 -118.5h294
q-5 81 -44.5 120t-102.5 39zM115 715h88l112 -150h-72z" />
    <glyph glyph-name="uni0451" unicode="&#x451;" horiz-adv-x="540" 
d="M270 -7q-48 0 -88 16t-68 46.5t-43.5 75t-15.5 102.5v34q0 57 15.5 102t44 75.5t68 46.5t87.5 16t88 -16t68 -47t43.5 -76.5t15.5 -105.5v-30h-362q0 -87 38 -133t109 -46q107 0 142 87h68q-18 -72 -71.5 -109.5t-138.5 -37.5zM270 447q-64 0 -103 -40.5t-44 -118.5h294
q-5 81 -44.5 120t-102.5 39zM172 588q-20 0 -33.5 13.5t-13.5 33.5t13.5 33.5t33.5 13.5t33.5 -13.5t13.5 -33.5t-13.5 -33.5t-33.5 -13.5zM368 588q-20 0 -33.5 13.5t-13.5 33.5t13.5 33.5t33.5 13.5t33.5 -13.5t13.5 -33.5t-13.5 -33.5t-33.5 -13.5z" />
    <glyph glyph-name="uni0452" unicode="&#x452;" horiz-adv-x="575" 
d="M85 544h-80v52h80v104h66v-104h164v-52h-164v-134h2q60 77 153 77q89 0 139 -52t50 -155v-252q0 -122 -47 -175t-133 -53h-30v60h20q30 0 53 9t39 29t24 53.5t8 81.5v247q0 75 -34.5 111t-99.5 36q-32 0 -58.5 -10.5t-45.5 -30t-29.5 -46.5t-10.5 -60v-280h-66v544z" />
    <glyph glyph-name="uni0453" unicode="&#x453;" horiz-adv-x="425" 
d="M85 500h320v-60h-254v-440h-66v500zM314 715h86l-130 -150h-70z" />
    <glyph glyph-name="uni0454" unicode="&#x454;" horiz-adv-x="510" 
d="M265 -7q-47 0 -86 15.5t-66.5 46.5t-42.5 77t-15 106v34q0 56 15.5 99.5t43 73.5t66 46t85.5 16q44 0 79 -11.5t60 -32t40 -47t21 -56.5h-68q-11 37 -41 62t-86 25q-67 0 -105.5 -41.5t-41.5 -120.5h202v-60h-202q3 -87 42 -129.5t105 -42.5q56 0 86 26t41 71h68
q-6 -34 -21 -62.5t-40 -49.5t-60 -33t-79 -12z" />
    <glyph glyph-name="uni0455" unicode="&#x455;" horiz-adv-x="490" 
d="M250 -7q-95 0 -141 40.5t-54 106.5h68q8 -41 36 -64t91 -23q64 0 90.5 22t26.5 58q0 32 -22.5 50t-56 29.5t-72.5 21t-72.5 25.5t-56 42t-22.5 71q0 57 44 96t131 39q46 0 80 -10.5t57 -28.5t36 -43t17 -55h-68q-8 35 -35 56t-87 21q-58 0 -82.5 -20.5t-24.5 -54.5
q0 -30 22.5 -46.5t56 -27t72.5 -20t72.5 -26t56 -44t22.5 -75.5q0 -30 -11.5 -55.5t-34.5 -44t-58 -29.5t-81 -11z" />
    <glyph glyph-name="uni0456" unicode="&#x456;" horiz-adv-x="256" 
d="M95 500h66v-500h-66v500zM128 588q-20 0 -33.5 13.5t-13.5 33.5t13.5 33.5t33.5 13.5t33.5 -13.5t13.5 -33.5t-13.5 -33.5t-33.5 -13.5z" />
    <glyph glyph-name="uni0457" unicode="&#x457;" horiz-adv-x="256" 
d="M95 500h66v-500h-66v500zM31 588q-20 0 -33.5 13.5t-13.5 33.5t13.5 33.5t33.5 13.5t33.5 -13.5t13.5 -33.5t-13.5 -33.5t-33.5 -13.5zM227 588q-20 0 -33.5 13.5t-13.5 33.5t13.5 33.5t33.5 13.5t33.5 -13.5t13.5 -33.5t-13.5 -33.5t-33.5 -13.5z" />
    <glyph glyph-name="uni0458" unicode="&#x458;" horiz-adv-x="256" 
d="M-9 -140h24q30 0 46 11t23.5 26.5t9 34t1.5 33.5v535h66v-540q0 -21 -2.5 -48.5t-16 -52t-43.5 -42t-84 -17.5h-24v60zM128 588q-20 0 -33.5 13.5t-13.5 33.5t13.5 33.5t33.5 13.5t33.5 -13.5t13.5 -33.5t-13.5 -33.5t-33.5 -13.5z" />
    <glyph glyph-name="uni0459" unicode="&#x459;" horiz-adv-x="770" 
d="M20 53h15q31 0 48 21t25.5 61t10 97t1.5 128v140h330v-195h110q85 0 130 -42t45 -110t-45 -110.5t-130 -42.5h-176v440h-198v-80q0 -81 -2.5 -148t-17 -116t-45 -76t-86.5 -27h-15v60zM555 60q58 0 85 24.5t27 68.5q0 42 -27.5 67t-84.5 25h-105v-185h105z" />
    <glyph glyph-name="uni045A" unicode="&#x45a;" horiz-adv-x="795" 
d="M85 500h66v-195h257v195h66v-195h111q85 0 130 -42t45 -110t-45 -110.5t-130 -42.5h-177v245h-257v-245h-66v500zM580 60q58 0 85 24.5t27 68.5q0 42 -27.5 67t-84.5 25h-106v-185h106z" />
    <glyph glyph-name="uni045B" unicode="&#x45b;" horiz-adv-x="575" 
d="M85 544h-80v52h80v104h66v-104h164v-52h-164v-134h2q60 77 153 77q89 0 139 -52t50 -155v-280h-66v280q0 75 -34.5 111t-99.5 36q-32 0 -58.5 -10.5t-45.5 -30t-29.5 -46.5t-10.5 -60v-280h-66v544z" />
    <glyph glyph-name="uni045C" unicode="&#x45c;" horiz-adv-x="510" 
d="M85 500h66v-210h90l146 210h78l-171 -238l191 -262h-80l-164 230h-90v-230h-66v500zM319 715h86l-130 -150h-70z" />
    <glyph glyph-name="uni045D" unicode="&#x45d;" horiz-adv-x="565" 
d="M259 -7q-81 0 -130 51.5t-49 150.5v305h66v-300q0 -75 33.5 -111t90.5 -36q32 0 58.5 10.5t45.5 30t29.5 46.5t10.5 60v300h66v-500h-52l-8 75h-2q-57 -82 -159 -82zM125 715h88l112 -150h-72z" />
    <glyph glyph-name="uni045E" unicode="&#x45e;" horiz-adv-x="520" 
d="M234 0l-209 500h72l171 -418h2l157 418h68l-270 -700h-68zM262 563q-63 0 -99 36t-36 101h64q0 -45 18.5 -65t52.5 -20t52.5 20t18.5 65h64q0 -65 -36 -101t-99 -36z" />
    <glyph glyph-name="uni045F" unicode="&#x45f;" horiz-adv-x="560" 
d="M249 0h-164v500h66v-440h258v440h66v-500h-162v-130h-64v130z" />
    <glyph glyph-name="uni0462" unicode="&#x462;" horiz-adv-x="635" 
d="M15 589h110v111h70v-111h175v-58h-175v-97h155q125 0 185 -57t60 -160q0 -102 -61 -159.5t-184 -57.5h-225v531h-110v58zM345 64q95 0 136.5 38.5t41.5 114.5t-41.5 114.5t-136.5 38.5h-150v-306h150z" />
    <glyph glyph-name="uni0463" unicode="&#x463;" horiz-adv-x="540" 
d="M125 440h-110v60h110v200h66v-200h159v-60h-159v-120h111q107 0 155 -42.5t48 -117.5q0 -73 -49 -116.5t-154 -43.5h-177v440zM191 260v-200h111q74 0 104.5 26.5t30.5 73.5q0 48 -30.5 74t-104.5 26h-111z" />
    <glyph glyph-name="uni0472" unicode="&#x472;" horiz-adv-x="710" 
d="M355 -7q-63 0 -116 22t-92 64t-60.5 102t-21.5 137v64q0 76 22 136t60.5 102t91.5 64.5t116 22.5t116 -22t92 -64t60.5 -102.5t21.5 -136.5v-64q0 -76 -22 -136t-60.5 -102t-91.5 -64.5t-116 -22.5zM573 382q0 61 -17 109.5t-46 81.5t-69 50.5t-86 17.5q-47 0 -86.5 -17
t-68.5 -49t-45.5 -79.5t-17.5 -108.5q6 3 17 8t25.5 9.5t31 8t34.5 3.5q39 0 67 -10.5t52 -22.5t47.5 -22.5t53.5 -10.5q35 0 65.5 12t42.5 19v1zM355 59q46 0 86 17t69 49t45.5 79.5t17.5 108.5q-6 -3 -17 -8t-25.5 -9.5t-31 -8t-34.5 -3.5q-39 0 -67 10.5t-52 22.5
t-47.5 22.5t-53.5 10.5q-35 0 -65.5 -12t-42.5 -19v-1q0 -62 17 -110t46 -81t69 -50.5t86 -17.5z" />
    <glyph glyph-name="uni0473" unicode="&#x473;" horiz-adv-x="550" 
d="M275 -7q-50 0 -90.5 16t-69.5 46t-44.5 73.5t-15.5 99.5v44q0 55 16 98.5t44.5 74t69 46.5t90.5 16t90.5 -16t69.5 -46t44.5 -74t15.5 -99v-44q0 -55 -16 -98.5t-44.5 -74t-69.5 -46.5t-90 -16zM123 285q9 5 29 12t46 7q28 0 48 -7t37 -16t33 -16t36 -7q26 0 46 8t29 13
q-1 40 -12.5 71t-32 52t-47.5 32t-60 11q-65 0 -106.5 -41t-45.5 -119zM275 55q65 0 106.5 41t45.5 119q-9 -5 -29 -12t-46 -7q-28 0 -48 7t-37 16t-33 16t-36 7q-26 0 -46 -8t-29 -13q2 -80 44.5 -123t107.5 -43z" />
    <glyph glyph-name="uni0474" unicode="&#x474;" horiz-adv-x="710" 
d="M30 700h76l233 -613l147 473q15 47 30.5 76t35.5 44.5t47.5 21t65.5 5.5h45v-64h-45q-26 0 -43 -4t-29 -13.5t-20 -25.5t-15 -40l-178 -560h-80z" />
    <glyph glyph-name="uni0475" unicode="&#x475;" horiz-adv-x="555" 
d="M25 500h74l161 -420l89 280q15 46 30 75t34.5 45t45.5 21.5t61 5.5h35v-61h-35q-23 0 -39.5 -4t-28.5 -13.5t-21 -26.5t-17 -42l-114 -360h-80z" />
    <glyph glyph-name="uni0490" unicode="&#x490;" horiz-adv-x="515" 
d="M90 700h332v120h68v-184h-330v-636h-70v700z" />
    <glyph glyph-name="uni0491" unicode="&#x491;" horiz-adv-x="425" 
d="M85 500h256v100h64v-160h-254v-440h-66v500z" />
    <glyph glyph-name="uni0492" unicode="&#x492;" horiz-adv-x="535" 
d="M110 300h-90v60h90v340h400v-64h-330v-276h190v-60h-190v-300h-70v300z" />
    <glyph glyph-name="uni0493" unicode="&#x493;" horiz-adv-x="435" 
d="M95 204h-80v52h80v244h320v-60h-254v-184h134v-52h-134v-204h-66v204z" />
    <glyph glyph-name="uni0494" unicode="&#x494;" horiz-adv-x="630" 
d="M90 700h400v-64h-330v-264q42 11 80 15.5t75 4.5q130 0 192.5 -65t62.5 -209v-44q0 -143 -60.5 -208.5t-174.5 -65.5h-40v64h40q80 0 122.5 48t42.5 162v44q0 58 -11 98t-34.5 65t-60.5 36t-89 11q-33 0 -66.5 -4.5t-78.5 -16.5v-307h-70v700z" />
    <glyph glyph-name="uni0495" unicode="&#x495;" horiz-adv-x="500" 
d="M85 500h320v-60h-254v-163q29 7 58 10t56 3q93 0 141.5 -54t48.5 -179v-24q0 -126 -47 -179.5t-133 -53.5h-30v60h20q30 0 53 9t39 29t24 53.5t8 81.5v24q0 95 -34 134t-100 39q-24 0 -50 -3t-54 -10v-217h-66v500z" />
    <glyph glyph-name="uni0496" unicode="&#x496;" horiz-adv-x="945" 
d="M258 362l-208 338h78l187 -308h110v308h70v-308h110l187 308h78l-209 -338l184 -298h85v-214h-68v150h-59l-198 328h-110v-328h-70v328h-110l-198 -328h-82z" />
    <glyph glyph-name="uni0497" unicode="&#x497;" horiz-adv-x="755" 
d="M179 263l-144 237h74l123 -210h90v210h66v-210h90l123 210h74l-144 -237l119 -203h90v-190h-66v130h-65l-131 230h-90v-230h-66v230h-90l-131 -230h-76z" />
    <glyph glyph-name="uni0498" unicode="&#x498;" horiz-adv-x="595" 
d="M266 -6q-98 9 -151 65.5t-60 150.5h72q8 -74 50 -113.5t123 -39.5t122 37.5t41 100.5q0 59 -41 96t-122 37h-85v64h85q74 0 111 34t37 90q0 58 -37 92.5t-111 34.5t-112 -36.5t-46 -106.5h-72q8 97 65.5 152t164.5 55t163.5 -53t56.5 -138q0 -51 -25.5 -91t-71.5 -62v-2
q55 -22 83.5 -64t28.5 -102q0 -83 -51.5 -137.5t-149.5 -63.5v-144h-68v144z" />
    <glyph glyph-name="uni0499" unicode="&#x499;" horiz-adv-x="485" 
d="M208 -6q-81 7 -121 48.5t-47 107.5h68q8 -48 37 -72.5t95 -24.5t94 23.5t28 63.5q0 38 -28 61.5t-94 23.5h-55v60h55q57 0 82 22t25 58q0 38 -25 60t-82 22t-83 -22.5t-34 -64.5h-68q8 66 52.5 106.5t132.5 40.5q87 0 131 -40t44 -102q0 -68 -65 -106v-2q80 -33 80 -117
q0 -60 -38.5 -99.5t-119.5 -46.5v-124h-64v124z" />
    <glyph glyph-name="uni049A" unicode="&#x49a;" horiz-adv-x="655" 
d="M90 700h70v-308h110l228 308h82l-252 -338l224 -298h88v-214h-68v150h-58l-244 328h-110v-328h-70v700z" />
    <glyph glyph-name="uni049B" unicode="&#x49b;" horiz-adv-x="545" 
d="M85 500h66v-210h90l146 210h78l-171 -238l147 -202h89v-190h-66v130h-59l-164 230h-90v-230h-66v500z" />
    <glyph glyph-name="uni049C" unicode="&#x49c;" horiz-adv-x="715" 
d="M90 700h70v-308h79v138h62v-138h49l228 308h82l-252 -338l272 -362h-86l-244 328h-49v-138h-62v138h-79v-328h-70v700z" />
    <glyph glyph-name="uni049D" unicode="&#x49d;" 
d="M85 500h66v-210h70v120h58v-120h42l146 210h78l-171 -238l191 -262h-80l-164 230h-42v-120h-58v120h-70v-230h-66v500z" />
    <glyph glyph-name="uni04A0" unicode="&#x4a0;" horiz-adv-x="750" 
d="M205 636h-180v64h250v-308h110l228 308h82l-252 -338l272 -362h-86l-244 328h-110v-328h-70v636z" />
    <glyph glyph-name="uni04A1" unicode="&#x4a1;" 
d="M165 440h-145v60h211v-210h90l146 210h78l-171 -238l191 -262h-80l-164 230h-90v-230h-66v440z" />
    <glyph glyph-name="uni04A2" unicode="&#x4a2;" horiz-adv-x="735" 
d="M90 700h70v-308h390v308h70v-636h85v-214h-68v150h-87v328h-390v-328h-70v700z" />
    <glyph glyph-name="uni04A3" unicode="&#x4a3;" horiz-adv-x="595" 
d="M85 500h66v-215h278v215h66v-440h75v-190h-66v130h-75v225h-278v-225h-66v500z" />
    <glyph glyph-name="uni04A4" unicode="&#x4a4;" horiz-adv-x="970" 
d="M90 700h70v-308h390v308h395v-64h-325v-636h-70v328h-390v-328h-70v700z" />
    <glyph glyph-name="uni04A5" unicode="&#x4a5;" horiz-adv-x="765" 
d="M85 500h66v-215h278v215h316v-60h-250v-440h-66v225h-278v-225h-66v500z" />
    <glyph glyph-name="uni04AA" unicode="&#x4aa;" horiz-adv-x="670" 
d="M316 -5q-56 6 -102 30t-79 66t-51.5 101.5t-18.5 135.5v54q0 77 21 137.5t59 102t90.5 63.5t114.5 22q57 0 102.5 -16.5t79.5 -44.5t54.5 -65.5t28.5 -80.5h-74q-8 30 -23.5 56t-39.5 45.5t-56 30.5t-72 11q-46 0 -85 -17t-67.5 -50t-44.5 -81.5t-16 -112.5v-54
q0 -67 16.5 -118t45 -85t67.5 -51t84 -17q81 0 128.5 43t62.5 110h74q-7 -43 -25.5 -80t-47.5 -65.5t-69 -46.5t-89 -23v-145h-68v145z" />
    <glyph glyph-name="uni04AB" unicode="&#x4ab;" horiz-adv-x="505" 
d="M221 -3q-76 14 -121 74.5t-45 166.5v34q0 56 15.5 99.5t43 73.5t66 46t85.5 16q44 0 79 -11.5t60 -32t40 -47t21 -56.5h-68q-11 37 -41 62t-86 25q-64 0 -105.5 -45t-41.5 -130v-34q0 -92 42 -138.5t105 -46.5q56 0 86 26t41 71h68q-11 -64 -55.5 -107.5t-124.5 -48.5
v-124h-64v127z" />
    <glyph glyph-name="uni04AE" unicode="&#x4ae;" horiz-adv-x="650" 
d="M300 255l-270 445h78l228 -374l208 374h76l-250 -445v-255h-70v255z" />
    <glyph glyph-name="uni04AF" unicode="&#x4af;" horiz-adv-x="510" 
d="M25 500h74l162 -412l154 412h70l-192 -500v-200h-66v200z" />
    <glyph glyph-name="uni04B0" unicode="&#x4b0;" horiz-adv-x="650" 
d="M135 255h165l-270 445h78l228 -374l208 374h76l-250 -445h145v-58h-145v-197h-70v197h-165v58z" />
    <glyph glyph-name="uni04B1" unicode="&#x4b1;" horiz-adv-x="510" 
d="M100 0h127l-202 500h74l162 -412l154 412h70l-192 -500h127v-52h-127v-148h-66v148h-127v52z" />
    <glyph glyph-name="uni04B2" unicode="&#x4b2;" horiz-adv-x="675" 
d="M280 366l-225 334h86l185 -280l187 280h82l-225 -333l202 -303h88v-214h-68v150h-65l-203 310l-205 -310h-84z" />
    <glyph glyph-name="uni04B3" unicode="&#x4b3;" horiz-adv-x="535" 
d="M211 260l-172 240h76l136 -191l136 191h74l-172 -239l143 -201h88v-190h-66v130h-57l-148 209l-148 -209h-76z" />
    <glyph glyph-name="uni04B6" unicode="&#x4b6;" horiz-adv-x="655" 
d="M300 258q-60 0 -101 12t-67.5 31t-41 44t-21.5 51.5t-8 52t-1 46.5v205h70v-200q0 -28 3 -59t19 -57.5t50.5 -44t97.5 -17.5q89 0 170 26v352h70v-636h85v-214h-68v150h-87v282q-43 -12 -86.5 -18t-83.5 -6z" />
    <glyph glyph-name="uni04B7" unicode="&#x4b7;" horiz-adv-x="535" 
d="M245 170q-100 0 -145 43t-45 133v154h66v-150q0 -66 27.5 -93t96.5 -27q38 0 70 5.5t54 10.5v254h66v-440h75v-190h-66v130h-75v186q-22 -5 -54 -10.5t-70 -5.5z" />
    <glyph glyph-name="uni04B8" unicode="&#x4b8;" horiz-adv-x="630" 
d="M269 259q-78 5 -120.5 31.5t-62 62t-23 74t-3.5 68.5v205h70v-200q0 -26 2.5 -55t15.5 -54.5t41 -44.5t80 -23v137h62v-137q75 5 139 25v352h70v-700h-70v282q-71 -20 -139 -23v-139h-62v139z" />
    <glyph glyph-name="uni04B9" unicode="&#x4b9;" horiz-adv-x="520" 
d="M216 171q-85 6 -123 49t-38 126v154h66v-150q0 -59 21 -86.5t74 -32.5v119h58v-119q29 2 53.5 6t41.5 9v254h66v-500h-66v186q-17 -5 -41.5 -9t-53.5 -6v-121h-58v121z" />
    <glyph glyph-name="uni04BA" unicode="&#x4ba;" horiz-adv-x="630" 
d="M90 700h70v-282q43 12 86.5 18t83.5 6q60 0 101 -12t67.5 -31t41 -44t21.5 -51.5t8 -52t1 -46.5v-205h-70v200q0 28 -3 59t-19 57.5t-50.5 44t-97.5 17.5q-89 0 -170 -26v-352h-70v700z" />
    <glyph glyph-name="uni04BB" unicode="&#x4bb;" horiz-adv-x="575" 
d="M85 700h66v-270h2q60 77 153 77q89 0 139 -52t50 -155v-300h-66v300q0 75 -34.5 111t-99.5 36q-32 0 -58.5 -10.5t-45.5 -30t-29.5 -46.5t-10.5 -60v-300h-66v700z" />
    <glyph glyph-name="uni04C0" unicode="&#x4c0;" horiz-adv-x="270" 
d="M100 700h70v-700h-70v700z" />
    <glyph glyph-name="uni04C1" unicode="&#x4c1;" horiz-adv-x="920" 
d="M258 362l-208 338h78l187 -308h110v308h70v-308h110l187 308h78l-209 -338l224 -362h-82l-198 328h-110v-328h-70v328h-110l-198 -328h-82zM460 763q-71 0 -108 36t-37 101h66q0 -83 79 -83t79 83h66q0 -65 -37 -101t-108 -36z" />
    <glyph glyph-name="uni04C2" unicode="&#x4c2;" horiz-adv-x="710" 
d="M179 263l-144 237h74l123 -210h90v210h66v-210h90l123 210h74l-144 -237l154 -263h-76l-131 230h-90v-230h-66v230h-90l-131 -230h-76zM355 563q-63 0 -99 36t-36 101h64q0 -45 18.5 -65t52.5 -20t52.5 20t18.5 65h64q0 -65 -36 -101t-99 -36z" />
    <glyph glyph-name="uni04C3" unicode="&#x4c3;" horiz-adv-x="625" 
d="M90 700h70v-308h110l228 308h82l-231 -308v-2q109 -9 162 -74t53 -198v-44q0 -143 -60.5 -208.5t-174.5 -65.5h-40v64h40q80 0 122.5 48t42.5 162v44q0 58 -11 98t-34.5 65t-60.5 36t-89 11h-139v-328h-70v700z" />
    <glyph glyph-name="uni04C4" unicode="&#x4c4;" horiz-adv-x="510" 
d="M85 500h66v-210h90l146 210h78l-154 -212v-2q69 -13 104 -67.5t35 -161.5v-24q0 -126 -47 -179.5t-133 -53.5h-30v60h20q30 0 53 9t39 29t24 53.5t8 81.5v24q0 95 -34 134t-100 39h-99v-230h-66v500z" />
    <glyph glyph-name="uni04C7" unicode="&#x4c7;" horiz-adv-x="710" 
d="M90 700h70v-308h390v308h70v-630q0 -140 -60.5 -205t-174.5 -65h-40v64h40q80 0 122.5 48t42.5 163v253h-390v-328h-70v700z" />
    <glyph glyph-name="uni04C8" unicode="&#x4c8;" horiz-adv-x="580" 
d="M85 500h66v-215h278v215h66v-472q0 -122 -47 -175t-133 -53h-30v60h20q30 0 53 9t39 29t24 53.5t8 81.5v192h-278v-225h-66v500z" />
    <glyph glyph-name="uni04CB" unicode="&#x4cb;" horiz-adv-x="630" 
d="M300 258q-60 0 -101 12t-67.5 31t-41 44t-21.5 51.5t-8 52t-1 46.5v205h70v-200q0 -28 3 -59t19 -57.5t50.5 -44t97.5 -17.5q89 0 170 26v352h70v-700h-87v-150h-68v214h85v218q-43 -12 -86.5 -18t-83.5 -6z" />
    <glyph glyph-name="uni04CC" unicode="&#x4cc;" horiz-adv-x="520" 
d="M245 170q-100 0 -145 43t-45 133v154h66v-150q0 -66 27.5 -93t96.5 -27q38 0 70 5.5t54 10.5v254h66v-500h-75v-130h-66v190h75v126q-22 -5 -54 -10.5t-70 -5.5z" />
    <glyph glyph-name="uni04CF" unicode="&#x4cf;" horiz-adv-x="256" 
d="M95 700h66v-700h-66v700z" />
    <glyph glyph-name="uni04D0" unicode="&#x4d0;" horiz-adv-x="660" 
d="M290 700h80l260 -700h-76l-73 203h-306l-73 -203h-72zM458 267l-128 358h-2l-130 -358h260zM330 763q-71 0 -108 36t-37 101h66q0 -83 79 -83t79 83h66q0 -65 -37 -101t-108 -36z" />
    <glyph glyph-name="uni04D1" unicode="&#x4d1;" horiz-adv-x="530" 
d="M215 -7q-83 0 -124 38.5t-41 106.5q0 71 49 113t156 42h129v37q0 60 -29 87.5t-95 27.5q-61 0 -89.5 -21t-32.5 -54h-68q2 27 15 52t36.5 44t58.5 30t80 11q97 0 143.5 -44.5t46.5 -132.5v-330h-52l-8 85h-2q-30 -45 -74.5 -68.5t-98.5 -23.5zM220 55q36 0 66 11.5t52 32
t34 49t12 62.5v27h-124q-77 0 -109.5 -27t-32.5 -72q0 -38 24.5 -60.5t77.5 -22.5zM260 563q-63 0 -99 36t-36 101h64q0 -45 18.5 -65t52.5 -20t52.5 20t18.5 65h64q0 -65 -36 -101t-99 -36z" />
    <glyph glyph-name="uni04D2" unicode="&#x4d2;" horiz-adv-x="660" 
d="M290 700h80l260 -700h-76l-73 203h-306l-73 -203h-72zM458 267l-128 358h-2l-130 -358h260zM222 788q-20 0 -33.5 13.5t-13.5 33.5t13.5 33.5t33.5 13.5t33.5 -13.5t13.5 -33.5t-13.5 -33.5t-33.5 -13.5zM438 788q-20 0 -33.5 13.5t-13.5 33.5t13.5 33.5t33.5 13.5
t33.5 -13.5t13.5 -33.5t-13.5 -33.5t-33.5 -13.5z" />
    <glyph glyph-name="uni04D3" unicode="&#x4d3;" horiz-adv-x="530" 
d="M215 -7q-83 0 -124 38.5t-41 106.5q0 71 49 113t156 42h129v37q0 60 -29 87.5t-95 27.5q-61 0 -89.5 -21t-32.5 -54h-68q2 27 15 52t36.5 44t58.5 30t80 11q97 0 143.5 -44.5t46.5 -132.5v-330h-52l-8 85h-2q-30 -45 -74.5 -68.5t-98.5 -23.5zM220 55q36 0 66 11.5t52 32
t34 49t12 62.5v27h-124q-77 0 -109.5 -27t-32.5 -72q0 -38 24.5 -60.5t77.5 -22.5zM162 588q-20 0 -33.5 13.5t-13.5 33.5t13.5 33.5t33.5 13.5t33.5 -13.5t13.5 -33.5t-13.5 -33.5t-33.5 -13.5zM358 588q-20 0 -33.5 13.5t-13.5 33.5t13.5 33.5t33.5 13.5t33.5 -13.5
t13.5 -33.5t-13.5 -33.5t-33.5 -13.5z" />
    <glyph glyph-name="uni04D4" unicode="&#x4d4;" horiz-adv-x="930" 
d="M430 700h450v-64h-350v-244h290v-64h-290v-264h350v-64h-420v203h-246l-118 -203h-76zM460 267v361l-209 -361h209z" />
    <glyph glyph-name="uni04D5" unicode="&#x4d5;" horiz-adv-x="855" 
d="M210 -7q-79 0 -119.5 38.5t-40.5 106.5q0 34 12 62t37.5 47.5t66.5 30.5t100 11h108v51q0 54 -26.5 79.5t-87.5 25.5q-55 0 -82.5 -21.5t-31.5 -58.5h-71q2 31 14 57t35 45t57 29.5t79 10.5q119 0 159 -85q27 42 70 63.5t98 21.5q48 0 87.5 -15.5t67 -45.5t43 -74
t15.5 -100v-41h-360q0 -90 39.5 -133t107.5 -43q61 0 93 26t47 65h68q-8 -32 -24 -60t-42 -48.5t-61.5 -32.5t-80.5 -12q-65 0 -112.5 29.5t-72.5 85.5q-26 -54 -76 -84.5t-116 -30.5zM589 445q-63 0 -103.5 -39.5t-45.5 -116.5h292q-5 78 -43.5 117t-99.5 39zM210 55
q34 0 64 12.5t52.5 34t35 51t12.5 62.5v16h-108q-44 0 -72.5 -7t-45.5 -19.5t-23.5 -29.5t-6.5 -37q0 -38 23.5 -60.5t68.5 -22.5z" />
    <glyph glyph-name="uni04D6" unicode="&#x4d6;" horiz-adv-x="560" 
d="M90 700h420v-64h-350v-244h290v-64h-290v-264h350v-64h-420v700zM300 763q-71 0 -108 36t-37 101h66q0 -83 79 -83t79 83h66q0 -65 -37 -101t-108 -36z" />
    <glyph glyph-name="uni04D7" unicode="&#x4d7;" horiz-adv-x="540" 
d="M270 -7q-48 0 -88 16t-68 46.5t-43.5 75t-15.5 102.5v34q0 57 15.5 102t44 75.5t68 46.5t87.5 16t88 -16t68 -47t43.5 -76.5t15.5 -105.5v-30h-362q0 -87 38 -133t109 -46q107 0 142 87h68q-18 -72 -71.5 -109.5t-138.5 -37.5zM270 447q-64 0 -103 -40.5t-44 -118.5h294
q-5 81 -44.5 120t-102.5 39zM270 563q-63 0 -99 36t-36 101h64q0 -45 18.5 -65t52.5 -20t52.5 20t18.5 65h64q0 -65 -36 -101t-99 -36z" />
    <glyph glyph-name="uni04D8" unicode="&#x4d8;" horiz-adv-x="710" 
d="M355 -7q-63 0 -116.5 22t-92 63.5t-60 102t-21.5 137.5v60l510 -1q0 64 -16.5 113t-46 82.5t-69.5 51t-88 17.5q-43 0 -76 -12.5t-57 -32t-40 -43.5t-24 -48h-76q9 33 28.5 69t52.5 65.5t80.5 48.5t111.5 19q63 0 116.5 -22t92 -63.5t60 -102t21.5 -137.5v-64
q0 -76 -21.5 -136.5t-60.5 -102.5t-92 -64t-116 -22zM355 59q48 0 88.5 17t69.5 49.5t45.5 79.5t16.5 108h-440q1 -61 18 -108t46.5 -79.5t69.5 -49.5t86 -17z" />
    <glyph glyph-name="uni04D9" unicode="&#x4d9;" horiz-adv-x="540" 
d="M270 -7q-98 0 -156.5 61t-58.5 174v41h362q0 90 -40 133t-112 43q-61 0 -91.5 -23.5t-45.5 -56.5h-68q7 28 23.5 54t42 45.5t60.5 31t79 11.5q102 0 161 -61t59 -174v-44q0 -113 -58.5 -174t-156.5 -61zM270 55q64 0 103 40.5t44 115.5h-294q5 -78 44.5 -117t102.5 -39z
" />
    <glyph glyph-name="uni04DC" unicode="&#x4dc;" horiz-adv-x="920" 
d="M258 362l-208 338h78l187 -308h110v308h70v-308h110l187 308h78l-209 -338l224 -362h-82l-198 328h-110v-328h-70v328h-110l-198 -328h-82zM352 788q-20 0 -33.5 13.5t-13.5 33.5t13.5 33.5t33.5 13.5t33.5 -13.5t13.5 -33.5t-13.5 -33.5t-33.5 -13.5zM568 788
q-20 0 -33.5 13.5t-13.5 33.5t13.5 33.5t33.5 13.5t33.5 -13.5t13.5 -33.5t-13.5 -33.5t-33.5 -13.5z" />
    <glyph glyph-name="uni04DD" unicode="&#x4dd;" horiz-adv-x="710" 
d="M179 263l-144 237h74l123 -210h90v210h66v-210h90l123 210h74l-144 -237l154 -263h-76l-131 230h-90v-230h-66v230h-90l-131 -230h-76zM257 588q-20 0 -33.5 13.5t-13.5 33.5t13.5 33.5t33.5 13.5t33.5 -13.5t13.5 -33.5t-13.5 -33.5t-33.5 -13.5zM453 588
q-20 0 -33.5 13.5t-13.5 33.5t13.5 33.5t33.5 13.5t33.5 -13.5t13.5 -33.5t-13.5 -33.5t-33.5 -13.5z" />
    <glyph glyph-name="uni04DE" unicode="&#x4de;" horiz-adv-x="595" 
d="M300 -7q-115 0 -176 58t-69 159h72q8 -74 50 -113.5t123 -39.5t122 37.5t41 100.5q0 59 -41 96t-122 37h-85v64h85q74 0 111 34t37 90q0 58 -37 92.5t-111 34.5t-112 -36.5t-46 -106.5h-72q8 97 65.5 152t164.5 55t163.5 -53t56.5 -138q0 -51 -25.5 -91t-71.5 -62v-2
q55 -22 83.5 -64t28.5 -102q0 -45 -15.5 -82t-45 -63.5t-73.5 -41.5t-101 -15zM192 788q-20 0 -33.5 13.5t-13.5 33.5t13.5 33.5t33.5 13.5t33.5 -13.5t13.5 -33.5t-13.5 -33.5t-33.5 -13.5zM408 788q-20 0 -33.5 13.5t-13.5 33.5t13.5 33.5t33.5 13.5t33.5 -13.5
t13.5 -33.5t-13.5 -33.5t-33.5 -13.5z" />
    <glyph glyph-name="uni04DF" unicode="&#x4df;" horiz-adv-x="485" 
d="M240 -7q-97 0 -144.5 42.5t-55.5 114.5h68q8 -48 37 -72.5t95 -24.5t94 23.5t28 63.5q0 38 -28 61.5t-94 23.5h-55v60h55q57 0 82 22t25 58q0 38 -25 60t-82 22t-83 -22.5t-34 -64.5h-68q8 66 52.5 106.5t132.5 40.5q87 0 131 -40t44 -102q0 -68 -65 -106v-2
q80 -33 80 -117q0 -65 -46.5 -106t-143.5 -41zM142 588q-20 0 -33.5 13.5t-13.5 33.5t13.5 33.5t33.5 13.5t33.5 -13.5t13.5 -33.5t-13.5 -33.5t-33.5 -13.5zM338 588q-20 0 -33.5 13.5t-13.5 33.5t13.5 33.5t33.5 13.5t33.5 -13.5t13.5 -33.5t-13.5 -33.5t-33.5 -13.5z" />
    <glyph glyph-name="uni04E2" unicode="&#x4e2;" horiz-adv-x="710" 
d="M90 700h70v-620h2l358 620h100v-700h-70v620h-2l-358 -620h-100v700zM210 864h290v-58h-290v58z" />
    <glyph glyph-name="uni04E3" unicode="&#x4e3;" horiz-adv-x="580" 
d="M85 500h66v-425h2l250 425h92v-500h-66v425h-2l-250 -425h-92v500zM155 663h270v-56h-270v56z" />
    <glyph glyph-name="uni04E4" unicode="&#x4e4;" horiz-adv-x="710" 
d="M90 700h70v-620h2l358 620h100v-700h-70v620h-2l-358 -620h-100v700zM247 788q-20 0 -33.5 13.5t-13.5 33.5t13.5 33.5t33.5 13.5t33.5 -13.5t13.5 -33.5t-13.5 -33.5t-33.5 -13.5zM463 788q-20 0 -33.5 13.5t-13.5 33.5t13.5 33.5t33.5 13.5t33.5 -13.5t13.5 -33.5
t-13.5 -33.5t-33.5 -13.5z" />
    <glyph glyph-name="uni04E5" unicode="&#x4e5;" horiz-adv-x="580" 
d="M85 500h66v-425h2l250 425h92v-500h-66v425h-2l-250 -425h-92v500zM192 588q-20 0 -33.5 13.5t-13.5 33.5t13.5 33.5t33.5 13.5t33.5 -13.5t13.5 -33.5t-13.5 -33.5t-33.5 -13.5zM388 588q-20 0 -33.5 13.5t-13.5 33.5t13.5 33.5t33.5 13.5t33.5 -13.5t13.5 -33.5
t-13.5 -33.5t-33.5 -13.5z" />
    <glyph glyph-name="uni04E6" unicode="&#x4e6;" horiz-adv-x="710" 
d="M355 -7q-65 0 -118 22t-91.5 64.5t-59.5 105t-21 143.5v54q0 77 21.5 137.5t59.5 102t91.5 63.5t117.5 22t117.5 -21.5t92 -63t59.5 -102t21 -138.5v-54q0 -81 -21.5 -143.5t-59.5 -105t-91.5 -64.5t-117.5 -22zM355 57q48 0 88 17t69 51t45 84.5t16 118.5v54
q0 63 -16.5 111.5t-45.5 82t-69 50.5t-87 17q-48 0 -88 -17t-69 -50t-45 -81.5t-16 -112.5v-54q0 -67 16.5 -117.5t45.5 -84.5t69 -51.5t87 -17.5zM247 788q-20 0 -33.5 13.5t-13.5 33.5t13.5 33.5t33.5 13.5t33.5 -13.5t13.5 -33.5t-13.5 -33.5t-33.5 -13.5zM463 788
q-20 0 -33.5 13.5t-13.5 33.5t13.5 33.5t33.5 13.5t33.5 -13.5t13.5 -33.5t-13.5 -33.5t-33.5 -13.5z" />
    <glyph glyph-name="uni04E7" unicode="&#x4e7;" horiz-adv-x="550" 
d="M275 -7q-101 0 -160.5 62t-59.5 178v34q0 57 15.5 102t44.5 75.5t69.5 46.5t90.5 16q101 0 160.5 -62t59.5 -178v-34q0 -57 -15.5 -102t-44.5 -75.5t-69.5 -46.5t-90.5 -16zM275 53q69 0 110.5 45t41.5 135v34q0 89 -42 134.5t-110 45.5q-69 0 -110.5 -45t-41.5 -135v-34
q0 -89 42 -134.5t110 -45.5zM177 588q-20 0 -33.5 13.5t-13.5 33.5t13.5 33.5t33.5 13.5t33.5 -13.5t13.5 -33.5t-13.5 -33.5t-33.5 -13.5zM373 588q-20 0 -33.5 13.5t-13.5 33.5t13.5 33.5t33.5 13.5t33.5 -13.5t13.5 -33.5t-13.5 -33.5t-33.5 -13.5z" />
    <glyph glyph-name="uni04E8" unicode="&#x4e8;" horiz-adv-x="710" 
d="M355 -7q-65 0 -118 22t-91.5 64.5t-59.5 105t-21 143.5v54q0 77 21.5 137.5t59.5 102t91.5 63.5t117.5 22t117.5 -21.5t92 -63t59.5 -102t21 -138.5v-54q0 -81 -21.5 -143.5t-59.5 -105t-91.5 -64.5t-117.5 -22zM573 387q-1 62 -17.5 109.5t-45.5 80t-69 49.5t-86 17
q-47 0 -87 -16.5t-68.5 -49t-45 -80t-17.5 -110.5h436zM355 57q47 0 87 16.5t68.5 50t45 83.5t17.5 116h-436q1 -66 17.5 -115.5t45.5 -83t68.5 -50.5t86.5 -17z" />
    <glyph glyph-name="uni04E9" unicode="&#x4e9;" horiz-adv-x="550" 
d="M275 -7q-101 0 -160.5 62t-59.5 178v34q0 57 15.5 102t44.5 75.5t69.5 46.5t90.5 16q101 0 160.5 -62t59.5 -178v-34q0 -57 -15.5 -102t-44.5 -75.5t-69.5 -46.5t-90.5 -16zM427 280q-3 83 -44.5 125t-107.5 42t-107.5 -42t-44.5 -125h304zM275 53q66 0 107.5 42
t44.5 125h-304q3 -83 44.5 -125t107.5 -42z" />
    <glyph glyph-name="uni04EA" unicode="&#x4ea;" horiz-adv-x="710" 
d="M355 -7q-65 0 -118 22t-91.5 64.5t-59.5 105t-21 143.5v54q0 77 21.5 137.5t59.5 102t91.5 63.5t117.5 22t117.5 -21.5t92 -63t59.5 -102t21 -138.5v-54q0 -81 -21.5 -143.5t-59.5 -105t-91.5 -64.5t-117.5 -22zM573 387q-1 62 -17.5 109.5t-45.5 80t-69 49.5t-86 17
q-47 0 -87 -16.5t-68.5 -49t-45 -80t-17.5 -110.5h436zM355 57q47 0 87 16.5t68.5 50t45 83.5t17.5 116h-436q1 -66 17.5 -115.5t45.5 -83t68.5 -50.5t86.5 -17zM247 788q-20 0 -33.5 13.5t-13.5 33.5t13.5 33.5t33.5 13.5t33.5 -13.5t13.5 -33.5t-13.5 -33.5t-33.5 -13.5z
M463 788q-20 0 -33.5 13.5t-13.5 33.5t13.5 33.5t33.5 13.5t33.5 -13.5t13.5 -33.5t-13.5 -33.5t-33.5 -13.5z" />
    <glyph glyph-name="uni04EB" unicode="&#x4eb;" horiz-adv-x="550" 
d="M275 -7q-101 0 -160.5 62t-59.5 178v34q0 57 15.5 102t44.5 75.5t69.5 46.5t90.5 16q101 0 160.5 -62t59.5 -178v-34q0 -57 -15.5 -102t-44.5 -75.5t-69.5 -46.5t-90.5 -16zM427 280q-3 83 -44.5 125t-107.5 42t-107.5 -42t-44.5 -125h304zM275 53q66 0 107.5 42
t44.5 125h-304q3 -83 44.5 -125t107.5 -42zM177 588q-20 0 -33.5 13.5t-13.5 33.5t13.5 33.5t33.5 13.5t33.5 -13.5t13.5 -33.5t-13.5 -33.5t-33.5 -13.5zM373 588q-20 0 -33.5 13.5t-13.5 33.5t13.5 33.5t33.5 13.5t33.5 -13.5t13.5 -33.5t-13.5 -33.5t-33.5 -13.5z" />
    <glyph glyph-name="uni04EC" unicode="&#x4ec;" horiz-adv-x="670" 
d="M320 -7q-57 0 -102.5 16.5t-79.5 45.5t-55 68.5t-28 86.5h74q15 -67 62.5 -110t128.5 -43q45 0 84 17t67.5 50.5t45 83.5t16.5 115h-298v64h298q0 61 -16 108.5t-44.5 80.5t-67.5 50t-85 17q-40 0 -72 -11t-56 -30.5t-40 -45.5t-23 -56h-74q7 43 28 80.5t55 65.5
t79.5 44.5t102.5 16.5q62 0 114.5 -22t90.5 -63.5t59 -102t21 -137.5v-54q0 -81 -21 -143.5t-59 -105t-90 -64.5t-115 -22zM212 788q-20 0 -33.5 13.5t-13.5 33.5t13.5 33.5t33.5 13.5t33.5 -13.5t13.5 -33.5t-13.5 -33.5t-33.5 -13.5zM428 788q-20 0 -33.5 13.5t-13.5 33.5
t13.5 33.5t33.5 13.5t33.5 -13.5t13.5 -33.5t-13.5 -33.5t-33.5 -13.5z" />
    <glyph glyph-name="uni04ED" unicode="&#x4ed;" horiz-adv-x="510" 
d="M245 -7q-44 0 -79 12t-60 33t-40 49.5t-21 62.5h68q11 -45 41.5 -71t90.5 -26q63 0 101 46t41 126h-202v60h202q-3 75 -41 118.5t-101 43.5q-59 0 -90 -25t-42 -62h-68q6 30 21 56.5t40 47t60 32t79 11.5q46 0 85 -16t66.5 -46t43 -73.5t15.5 -99.5v-34q0 -59 -15.5 -105
t-43.5 -77t-66.5 -47t-84.5 -16zM147 588q-20 0 -33.5 13.5t-13.5 33.5t13.5 33.5t33.5 13.5t33.5 -13.5t13.5 -33.5t-13.5 -33.5t-33.5 -13.5zM343 588q-20 0 -33.5 13.5t-13.5 33.5t13.5 33.5t33.5 13.5t33.5 -13.5t13.5 -33.5t-13.5 -33.5t-33.5 -13.5z" />
    <glyph glyph-name="uni04EE" unicode="&#x4ee;" horiz-adv-x="610" 
d="M286 200l-256 500h80l212 -420h2l180 420h76l-305 -700h-76zM162 864h290v-58h-290v58z" />
    <glyph glyph-name="uni04EF" unicode="&#x4ef;" horiz-adv-x="520" 
d="M234 0l-209 500h72l171 -418h2l157 418h68l-270 -700h-68zM127 663h270v-56h-270v56z" />
    <glyph glyph-name="uni04F0" unicode="&#x4f0;" horiz-adv-x="610" 
d="M286 200l-256 500h80l212 -420h2l180 420h76l-305 -700h-76zM199 788q-20 0 -33.5 13.5t-13.5 33.5t13.5 33.5t33.5 13.5t33.5 -13.5t13.5 -33.5t-13.5 -33.5t-33.5 -13.5zM415 788q-20 0 -33.5 13.5t-13.5 33.5t13.5 33.5t33.5 13.5t33.5 -13.5t13.5 -33.5t-13.5 -33.5
t-33.5 -13.5z" />
    <glyph glyph-name="uni04F1" unicode="&#x4f1;" horiz-adv-x="520" 
d="M234 0l-209 500h72l171 -418h2l157 418h68l-270 -700h-68zM164 588q-20 0 -33.5 13.5t-13.5 33.5t13.5 33.5t33.5 13.5t33.5 -13.5t13.5 -33.5t-13.5 -33.5t-33.5 -13.5zM360 588q-20 0 -33.5 13.5t-13.5 33.5t13.5 33.5t33.5 13.5t33.5 -13.5t13.5 -33.5t-13.5 -33.5
t-33.5 -13.5z" />
    <glyph glyph-name="uni04F2" unicode="&#x4f2;" horiz-adv-x="610" 
d="M286 200l-256 500h80l212 -420h2l180 420h76l-305 -700h-76zM297 915h84l-122 -150h-68zM453 915h88l-138 -150h-72z" />
    <glyph glyph-name="uni04F3" unicode="&#x4f3;" horiz-adv-x="520" 
d="M234 0l-209 500h72l171 -418h2l157 418h68l-270 -700h-68zM245 715h82l-114 -150h-66zM401 715h86l-130 -150h-70z" />
    <glyph glyph-name="uni04F4" unicode="&#x4f4;" horiz-adv-x="630" 
d="M300 258q-60 0 -101 12t-67.5 31t-41 44t-21.5 51.5t-8 52t-1 46.5v205h70v-200q0 -28 3 -59t19 -57.5t50.5 -44t97.5 -17.5q89 0 170 26v352h70v-700h-70v282q-43 -12 -86.5 -18t-83.5 -6zM192 788q-20 0 -33.5 13.5t-13.5 33.5t13.5 33.5t33.5 13.5t33.5 -13.5
t13.5 -33.5t-13.5 -33.5t-33.5 -13.5zM408 788q-20 0 -33.5 13.5t-13.5 33.5t13.5 33.5t33.5 13.5t33.5 -13.5t13.5 -33.5t-13.5 -33.5t-33.5 -13.5z" />
    <glyph glyph-name="uni04F5" unicode="&#x4f5;" horiz-adv-x="520" 
d="M245 170q-100 0 -145 43t-45 133v154h66v-150q0 -66 27.5 -93t96.5 -27q38 0 70 5.5t54 10.5v254h66v-500h-66v186q-22 -5 -54 -10.5t-70 -5.5zM147 588q-20 0 -33.5 13.5t-13.5 33.5t13.5 33.5t33.5 13.5t33.5 -13.5t13.5 -33.5t-13.5 -33.5t-33.5 -13.5zM343 588
q-20 0 -33.5 13.5t-13.5 33.5t13.5 33.5t33.5 13.5t33.5 -13.5t13.5 -33.5t-13.5 -33.5t-33.5 -13.5z" />
    <glyph glyph-name="uni04F6" unicode="&#x4f6;" horiz-adv-x="515" 
d="M90 700h400v-64h-330v-572h85v-214h-68v150h-87v700z" />
    <glyph glyph-name="uni04F7" unicode="&#x4f7;" horiz-adv-x="425" 
d="M85 500h320v-60h-254v-380h75v-190h-66v130h-75v500z" />
    <glyph glyph-name="uni04F8" unicode="&#x4f8;" horiz-adv-x="830" 
d="M670 700h70v-700h-70v700zM90 700h70v-266h149q123 0 184 -57.5t61 -159.5q0 -103 -60 -160t-185 -57h-219v700zM304 64q94 0 136 39t42 114q0 76 -41.5 114.5t-136.5 38.5h-144v-306h144zM307 788q-20 0 -33.5 13.5t-13.5 33.5t13.5 33.5t33.5 13.5t33.5 -13.5
t13.5 -33.5t-13.5 -33.5t-33.5 -13.5zM523 788q-20 0 -33.5 13.5t-13.5 33.5t13.5 33.5t33.5 13.5t33.5 -13.5t13.5 -33.5t-13.5 -33.5t-33.5 -13.5z" />
    <glyph glyph-name="uni04F9" unicode="&#x4f9;" horiz-adv-x="710" 
d="M559 500h66v-500h-66v500zM85 500h66v-180h114q97 0 143.5 -43t46.5 -117q0 -73 -47 -116.5t-143 -43.5h-180v500zM151 260v-200h109q69 0 98 26t29 74t-29.5 74t-97.5 26h-109zM257 588q-20 0 -33.5 13.5t-13.5 33.5t13.5 33.5t33.5 13.5t33.5 -13.5t13.5 -33.5
t-13.5 -33.5t-33.5 -13.5zM453 588q-20 0 -33.5 13.5t-13.5 33.5t13.5 33.5t33.5 13.5t33.5 -13.5t13.5 -33.5t-13.5 -33.5t-33.5 -13.5z" />
    <glyph glyph-name="uni0512" unicode="&#x512;" horiz-adv-x="712" 
d="M25 57h20q24 0 44 11t35 44t23 92.5t8 155.5v340h440v-630q0 -140 -60.5 -205t-174.5 -65h-40v64h40q80 0 122.5 48t42.5 163v561h-300v-276q0 -113 -12 -184.5t-34.5 -112t-56.5 -55.5t-77 -15h-20v64z" />
    <glyph glyph-name="uni0513" unicode="&#x513;" horiz-adv-x="545" 
d="M20 53h15q31 0 48 21t25.5 61t10 97t1.5 128v140h340v-472q0 -122 -47 -175t-133 -53h-30v60h20q30 0 53 9t39 29t24 53.5t8 81.5v407h-208v-80q0 -83 -2.5 -150.5t-17 -115.5t-45 -74.5t-86.5 -26.5h-15v60z" />
    <glyph glyph-name="Wgrave" unicode="&#x1e80;" horiz-adv-x="970" 
d="M40 700h72l167 -620h2l158 620h92l168 -620h2l159 620h70l-184 -700h-92l-168 620h-2l-158 -620h-92zM325 915h90l120 -150h-74z" />
    <glyph glyph-name="wgrave" unicode="&#x1e81;" horiz-adv-x="770" 
d="M35 500h70l120 -430h2l113 430h90l125 -430h2l112 430h66l-135 -500h-90l-125 430h-2l-113 -430h-90zM230 715h88l112 -150h-72z" />
    <glyph glyph-name="Wacute" unicode="&#x1e82;" horiz-adv-x="970" 
d="M40 700h72l167 -620h2l158 620h92l168 -620h2l159 620h70l-184 -700h-92l-168 620h-2l-158 -620h-92zM561 915h88l-138 -150h-72z" />
    <glyph glyph-name="wacute" unicode="&#x1e83;" horiz-adv-x="770" 
d="M35 500h70l120 -430h2l113 430h90l125 -430h2l112 430h66l-135 -500h-90l-125 430h-2l-113 -430h-90zM454 715h86l-130 -150h-70z" />
    <glyph glyph-name="Wdieresis" unicode="&#x1e84;" horiz-adv-x="970" 
d="M40 700h72l167 -620h2l158 620h92l168 -620h2l159 620h70l-184 -700h-92l-168 620h-2l-158 -620h-92zM377 788q-20 0 -33.5 13.5t-13.5 33.5t13.5 33.5t33.5 13.5t33.5 -13.5t13.5 -33.5t-13.5 -33.5t-33.5 -13.5zM593 788q-20 0 -33.5 13.5t-13.5 33.5t13.5 33.5
t33.5 13.5t33.5 -13.5t13.5 -33.5t-13.5 -33.5t-33.5 -13.5z" />
    <glyph glyph-name="wdieresis" unicode="&#x1e85;" horiz-adv-x="770" 
d="M35 500h70l120 -430h2l113 430h90l125 -430h2l112 430h66l-135 -500h-90l-125 430h-2l-113 -430h-90zM287 588q-20 0 -33.5 13.5t-13.5 33.5t13.5 33.5t33.5 13.5t33.5 -13.5t13.5 -33.5t-13.5 -33.5t-33.5 -13.5zM483 588q-20 0 -33.5 13.5t-13.5 33.5t13.5 33.5
t33.5 13.5t33.5 -13.5t13.5 -33.5t-13.5 -33.5t-33.5 -13.5z" />
    <glyph glyph-name="uni1E9E" unicode="&#x1e9e;" horiz-adv-x="610" 
d="M85 500q0 46 15 84t42.5 65.5t65 42.5t82.5 15q44 0 79.5 -14t62 -39t43.5 -59t25 -73l-102 -114q52 -39 84.5 -67.5t51 -53.5t25 -50t6.5 -57q0 -39 -14 -72t-39.5 -57t-61.5 -37.5t-80 -13.5h-125v64h120q58 0 93 33.5t35 82.5q0 21 -4.5 38.5t-21.5 38.5t-49.5 48.5
t-87.5 67.5v54l92 106q-11 48 -43 79t-89 31q-60 0 -97.5 -39.5t-37.5 -108.5v-495h-70v500z" />
    <glyph glyph-name="Ygrave" unicode="&#x1ef2;" horiz-adv-x="650" 
d="M300 255l-270 445h78l228 -374l208 374h76l-250 -445v-255h-70v255zM166 915h90l120 -150h-74z" />
    <glyph glyph-name="ygrave" unicode="&#x1ef3;" horiz-adv-x="520" 
d="M234 0l-209 500h72l171 -418h2l157 418h68l-270 -700h-68zM107 715h88l112 -150h-72z" />
    <glyph glyph-name="uni2000" unicode="&#x2000;" horiz-adv-x="500" 
 />
    <glyph glyph-name="uni2001" unicode="&#x2001;" horiz-adv-x="1000" 
 />
    <glyph glyph-name="uni2002" unicode="&#x2002;" horiz-adv-x="500" 
 />
    <glyph glyph-name="uni2003" unicode="&#x2003;" horiz-adv-x="1000" 
 />
    <glyph glyph-name="uni2004" unicode="&#x2004;" horiz-adv-x="300" 
 />
    <glyph glyph-name="uni2005" unicode="&#x2005;" horiz-adv-x="250" 
 />
    <glyph glyph-name="uni2006" unicode="&#x2006;" horiz-adv-x="150" 
 />
    <glyph glyph-name="uni2007" unicode="&#x2007;" 
 />
    <glyph glyph-name="uni2008" unicode="&#x2008;" horiz-adv-x="300" 
 />
    <glyph glyph-name="uni2009" unicode="&#x2009;" horiz-adv-x="150" 
 />
    <glyph glyph-name="uni200A" unicode="&#x200a;" horiz-adv-x="100" 
 />
    <glyph glyph-name="uni200B" unicode="&#x200b;" horiz-adv-x="0" 
 />
    <glyph glyph-name="uni2010" unicode="&#x2010;" horiz-adv-x="450" 
d="M50 290h350v-60h-350v60z" />
    <glyph glyph-name="uni2011" unicode="&#x2011;" horiz-adv-x="450" 
d="M50 290h350v-60h-350v60z" />
    <glyph glyph-name="figuredash" unicode="&#x2012;" 
d="M50 392h490v-64h-490v64z" />
    <glyph glyph-name="endash" unicode="&#x2013;" horiz-adv-x="800" 
d="M100 290h600v-60h-600v60z" />
    <glyph glyph-name="emdash" unicode="&#x2014;" horiz-adv-x="1000" 
d="M100 290h800v-60h-800v60z" />
    <glyph glyph-name="uni2015" unicode="&#x2015;" horiz-adv-x="2600" 
d="M100 290h2400v-60h-2400v60z" />
    <glyph glyph-name="quoteleft" unicode="&#x2018;" horiz-adv-x="250" 
d="M80 465h-80l70 235h60z" />
    <glyph glyph-name="quoteright" unicode="&#x2019;" horiz-adv-x="250" 
d="M110 700h80l-70 -235h-60z" />
    <glyph glyph-name="quotesinglbase" unicode="&#x201a;" horiz-adv-x="250" 
d="M96 85h80l-70 -235h-60z" />
    <glyph glyph-name="quotedblleft" unicode="&#x201c;" horiz-adv-x="420" 
d="M80 465h-80l70 235h60zM250 465h-80l70 235h60z" />
    <glyph glyph-name="quotedblright" unicode="&#x201d;" horiz-adv-x="420" 
d="M110 700h80l-70 -235h-60zM280 700h80l-70 -235h-60z" />
    <glyph glyph-name="quotedblbase" unicode="&#x201e;" horiz-adv-x="420" 
d="M265 85h80l-70 -235h-60zM96 85h80l-70 -235h-60z" />
    <glyph glyph-name="dagger" unicode="&#x2020;" horiz-adv-x="460" 
d="M197 440h-167v60h167v200h66v-200h167v-60h-167v-640h-66v640z" />
    <glyph glyph-name="daggerdbl" unicode="&#x2021;" horiz-adv-x="460" 
d="M30 60h167v380h-167v60h167v200h66v-200h167v-60h-167v-380h167v-60h-167v-200h-66v200h-167v60z" />
    <glyph glyph-name="bullet" unicode="&#x2022;" horiz-adv-x="450" 
d="M225 145q-24 0 -44.5 9t-36.5 25t-25 36.5t-9 44.5t9 44.5t25 36.5t36.5 25t44.5 9t44.5 -9t36.5 -25t25 -36.5t9 -44.5t-9 -44.5t-25 -36.5t-36.5 -25t-44.5 -9z" />
    <glyph glyph-name="uni2023" unicode="&#x2023;" horiz-adv-x="450" 
d="M127 407l238 -147l-238 -147v294z" />
    <glyph glyph-name="onedotenleader" unicode="&#x2024;" horiz-adv-x="300" 
d="M150 -7q-24 0 -39.5 15.5t-15.5 39.5t15.5 39.5t39.5 15.5t39.5 -15.5t15.5 -39.5t-15.5 -39.5t-39.5 -15.5z" />
    <glyph glyph-name="twodotenleader" unicode="&#x2025;" horiz-adv-x="600" 
d="M150 -7q-24 0 -39.5 15.5t-15.5 39.5t15.5 39.5t39.5 15.5t39.5 -15.5t15.5 -39.5t-15.5 -39.5t-39.5 -15.5zM450 -7q-24 0 -39.5 15.5t-15.5 39.5t15.5 39.5t39.5 15.5t39.5 -15.5t15.5 -39.5t-15.5 -39.5t-39.5 -15.5z" />
    <glyph glyph-name="ellipsis" unicode="&#x2026;" horiz-adv-x="900" 
d="M150 -7q-24 0 -39.5 15.5t-15.5 39.5t15.5 39.5t39.5 15.5t39.5 -15.5t15.5 -39.5t-15.5 -39.5t-39.5 -15.5zM450 -7q-24 0 -39.5 15.5t-15.5 39.5t15.5 39.5t39.5 15.5t39.5 -15.5t15.5 -39.5t-15.5 -39.5t-39.5 -15.5zM750 -7q-24 0 -39.5 15.5t-15.5 39.5t15.5 39.5
t39.5 15.5t39.5 -15.5t15.5 -39.5t-15.5 -39.5t-39.5 -15.5z" />
    <glyph glyph-name="uni2027" unicode="&#x2027;" horiz-adv-x="300" 
d="M150 205q-24 0 -39.5 15.5t-15.5 39.5t15.5 39.5t39.5 15.5t39.5 -15.5t15.5 -39.5t-15.5 -39.5t-39.5 -15.5z" />
    <glyph glyph-name="uni202F" unicode="&#x202f;" horiz-adv-x="150" 
 />
    <glyph glyph-name="perthousand" unicode="&#x2030;" horiz-adv-x="1300" 
d="M210 343q-35 0 -64.5 12t-50.5 33t-33 51t-12 66v40q0 36 12 66t33 51t50.5 33t64.5 12t64.5 -12t50.5 -33t33 -51t12 -66v-40q0 -36 -12 -66t-33 -51t-50.5 -33t-64.5 -12zM210 401q42 0 69 28t27 76v40q0 48 -27 76t-69 28t-69 -28t-27 -76v-40q0 -48 27 -76t69 -28z
M690 -7q-35 0 -64.5 12t-50.5 33t-33 51t-12 66v40q0 36 12 66t33 51t50.5 33t64.5 12t64.5 -12t50.5 -33t33 -51t12 -66v-40q0 -36 -12 -66t-33 -51t-50.5 -33t-64.5 -12zM1090 -7q-35 0 -64.5 12t-50.5 33t-33 51t-12 66v40q0 36 12 66t33 51t50.5 33t64.5 12t64.5 -12
t50.5 -33t33 -51t12 -66v-40q0 -36 -12 -66t-33 -51t-50.5 -33t-64.5 -12zM690 51q42 0 69 28t27 76v40q0 48 -27 76t-69 28t-69 -28t-27 -76v-40q0 -48 27 -76t69 -28zM1090 51q42 0 69 28t27 76v40q0 48 -27 76t-69 28t-69 -28t-27 -76v-40q0 -48 27 -76t69 -28zM616 700
h74l-406 -700h-74z" />
    <glyph glyph-name="uni2031" unicode="&#x2031;" horiz-adv-x="1700" 
d="M210 343q-35 0 -64.5 12t-50.5 33t-33 51t-12 66v40q0 36 12 66t33 51t50.5 33t64.5 12t64.5 -12t50.5 -33t33 -51t12 -66v-40q0 -36 -12 -66t-33 -51t-50.5 -33t-64.5 -12zM210 401q42 0 69 28t27 76v40q0 48 -27 76t-69 28t-69 -28t-27 -76v-40q0 -48 27 -76t69 -28z
M690 -7q-35 0 -64.5 12t-50.5 33t-33 51t-12 66v40q0 36 12 66t33 51t50.5 33t64.5 12t64.5 -12t50.5 -33t33 -51t12 -66v-40q0 -36 -12 -66t-33 -51t-50.5 -33t-64.5 -12zM1090 -7q-35 0 -64.5 12t-50.5 33t-33 51t-12 66v40q0 36 12 66t33 51t50.5 33t64.5 12t64.5 -12
t50.5 -33t33 -51t12 -66v-40q0 -36 -12 -66t-33 -51t-50.5 -33t-64.5 -12zM1490 -7q-35 0 -64.5 12t-50.5 33t-33 51t-12 66v40q0 36 12 66t33 51t50.5 33t64.5 12t64.5 -12t50.5 -33t33 -51t12 -66v-40q0 -36 -12 -66t-33 -51t-50.5 -33t-64.5 -12zM690 51q42 0 69 28
t27 76v40q0 48 -27 76t-69 28t-69 -28t-27 -76v-40q0 -48 27 -76t69 -28zM1090 51q42 0 69 28t27 76v40q0 48 -27 76t-69 28t-69 -28t-27 -76v-40q0 -48 27 -76t69 -28zM1490 51q42 0 69 28t27 76v40q0 48 -27 76t-69 28t-69 -28t-27 -76v-40q0 -48 27 -76t69 -28zM616 700
h74l-406 -700h-74z" />
    <glyph glyph-name="guilsinglleft" unicode="&#x2039;" horiz-adv-x="300" 
d="M167 460h73l-121 -198l121 -202h-76l-119 198z" />
    <glyph glyph-name="guilsinglright" unicode="&#x203a;" horiz-adv-x="300" 
d="M133 60h-73l121 198l-121 202h76l119 -198z" />
    <glyph glyph-name="exclamdbl" unicode="&#x203c;" horiz-adv-x="550" 
d="M365 700h70v-500h-70v500zM400 -7q-24 0 -39.5 16t-15.5 39t15.5 39t39.5 16t39.5 -16t15.5 -39t-15.5 -39t-39.5 -16zM115 700h70v-500h-70v500zM150 -7q-24 0 -39.5 16t-15.5 39t15.5 39t39.5 16t39.5 -16t15.5 -39t-15.5 -39t-39.5 -16z" />
    <glyph glyph-name="uni203D" unicode="&#x203d;" horiz-adv-x="510" 
d="M215 560h70v-203q18 21 38 37t36.5 33t27.5 38.5t11 54.5q0 54 -37 87.5t-111 33.5q-70 0 -107 -35t-41 -96h-72q4 91 60 144t160 53q54 0 95 -13.5t69 -38.5t42 -59t14 -76q0 -46 -13.5 -75.5t-34.5 -50.5t-44.5 -38t-44.5 -38.5t-34.5 -51.5t-13.5 -76h-70v370zM250 -7
q-24 0 -39.5 16t-15.5 39t15.5 39t39.5 16t39.5 -16t15.5 -39t-15.5 -39t-39.5 -16z" />
    <glyph glyph-name="uni2043" unicode="&#x2043;" horiz-adv-x="450" 
d="M60 296h330v-72h-330v72z" />
    <glyph glyph-name="fraction" unicode="&#x2044;" horiz-adv-x="150" 
d="M241 700h74l-406 -700h-74z" />
    <glyph glyph-name="uni2047" unicode="&#x2047;" horiz-adv-x="990" 
d="M700 190q0 56 13 92t33 60.5t43 41.5t43 35t33 41t13 60q0 54 -36.5 87.5t-106.5 33.5q-66 0 -102.5 -35t-40.5 -96h-72q4 91 59.5 144t155.5 53q52 0 92 -13.5t67.5 -38.5t41.5 -59t14 -76q0 -46 -13.5 -75.5t-33.5 -50.5t-43 -38t-43 -38.5t-33.5 -51.5t-13.5 -76h-70z
M735 -7q-24 0 -39.5 16t-15.5 39t15.5 39t39.5 16t39.5 -16t15.5 -39t-15.5 -39t-39.5 -16zM210 190q0 56 13 92t33 60.5t43 41.5t43 35t33 41t13 60q0 54 -36.5 87.5t-106.5 33.5q-66 0 -102.5 -35t-40.5 -96h-72q4 91 59.5 144t155.5 53q52 0 92 -13.5t67.5 -38.5
t41.5 -59t14 -76q0 -46 -13.5 -75.5t-33.5 -50.5t-43 -38t-43 -38.5t-33.5 -51.5t-13.5 -76h-70zM245 -7q-24 0 -39.5 16t-15.5 39t15.5 39t39.5 16t39.5 -16t15.5 -39t-15.5 -39t-39.5 -16z" />
    <glyph glyph-name="uni2048" unicode="&#x2048;" horiz-adv-x="750" 
d="M565 700h70v-500h-70v500zM600 -7q-24 0 -39.5 16t-15.5 39t15.5 39t39.5 16t39.5 -16t15.5 -39t-15.5 -39t-39.5 -16zM210 190q0 56 13 92t33 60.5t43 41.5t43 35t33 41t13 60q0 54 -36.5 87.5t-106.5 33.5q-66 0 -102.5 -35t-40.5 -96h-72q4 91 59.5 144t155.5 53
q52 0 92 -13.5t67.5 -38.5t41.5 -59t14 -76q0 -46 -13.5 -75.5t-33.5 -50.5t-43 -38t-43 -38.5t-33.5 -51.5t-13.5 -76h-70zM245 -7q-24 0 -39.5 16t-15.5 39t15.5 39t39.5 16t39.5 -16t15.5 -39t-15.5 -39t-39.5 -16z" />
    <glyph glyph-name="uni2049" unicode="&#x2049;" horiz-adv-x="750" 
d="M115 700h70v-500h-70v500zM150 -7q-24 0 -39.5 16t-15.5 39t15.5 39t39.5 16t39.5 -16t15.5 -39t-15.5 -39t-39.5 -16zM460 190q0 56 13 92t33 60.5t43 41.5t43 35t33 41t13 60q0 54 -36.5 87.5t-106.5 33.5q-66 0 -102.5 -35t-40.5 -96h-72q4 91 59.5 144t155.5 53
q52 0 92 -13.5t67.5 -38.5t41.5 -59t14 -76q0 -46 -13.5 -75.5t-33.5 -50.5t-43 -38t-43 -38.5t-33.5 -51.5t-13.5 -76h-70zM495 -7q-24 0 -39.5 16t-15.5 39t15.5 39t39.5 16t39.5 -16t15.5 -39t-15.5 -39t-39.5 -16z" />
    <glyph glyph-name="uni205F" unicode="&#x205f;" 
 />
    <glyph glyph-name="uni2060" unicode="&#x2060;" horiz-adv-x="0" 
 />
    <glyph glyph-name="uni2070" unicode="&#x2070;" horiz-adv-x="390" 
d="M195 373q-35 0 -64 12t-49 37.5t-31 65t-11 95.5v44q0 56 11 95.5t31 65t49 37.5t64 12t63.5 -12t49 -37.5t31.5 -65t11 -95.5v-44q0 -56 -11 -95.5t-31.5 -65t-49 -37.5t-63.5 -12zM195 432q21 0 37.5 7.5t28.5 25t18.5 46.5t6.5 72v44q0 43 -6.5 72t-18.5 46.5
t-28.5 25t-37.5 7.5t-37.5 -7.5t-28.5 -25t-18.5 -46.5t-6.5 -72v-44q0 -43 6.5 -72t18.5 -46.5t28.5 -25t37.5 -7.5z" />
    <glyph glyph-name="uni2071" unicode="&#x2071;" horiz-adv-x="170" 
d="M85 753q-18 0 -30.5 12.5t-12.5 30.5t12.5 30.5t30.5 12.5t30.5 -12.5t12.5 -30.5t-12.5 -30.5t-30.5 -12.5zM55 700h60v-320h-60v320z" />
    <glyph glyph-name="uni2074" unicode="&#x2074;" horiz-adv-x="370" 
d="M236 478h-216v56l194 296h83v-296h53v-56h-53v-98h-61v98zM236 534v234l-152 -234h152z" />
    <glyph glyph-name="uni2075" unicode="&#x2075;" horiz-adv-x="385" 
d="M190 373q-66 0 -107 32.5t-53 79.5h69q5 -18 27 -35.5t64 -17.5t69 25.5t27 70.5t-27 70t-69 25q-32 0 -53 -12.5t-35 -29.5h-61l20 249h262v-56h-206l-11 -129q38 37 96 37q67 0 107.5 -41t40.5 -113q0 -71 -42.5 -113t-117.5 -42z" />
    <glyph glyph-name="uni2076" unicode="&#x2076;" horiz-adv-x="390" 
d="M200 373q-75 0 -117.5 45t-42.5 138v52q0 61 12 104.5t33 71t50.5 40.5t64.5 13q62 0 95 -30.5t41 -72.5h-64q-5 15 -21.5 29.5t-50.5 14.5q-23 0 -41 -7.5t-31.5 -25t-21.5 -47t-9 -72.5q19 24 46 37.5t60 13.5q69 0 108 -39t39 -106v-12q0 -32 -11 -59t-31 -46.5
t-47.5 -30.5t-60.5 -11zM104 522q0 -42 24.5 -66t71.5 -24q38 0 62 24t24 64v12q0 38 -24.5 61.5t-66.5 23.5t-66.5 -23.5t-24.5 -61.5v-10z" />
    <glyph glyph-name="uni2077" unicode="&#x2077;" horiz-adv-x="330" 
d="M249 774h-234v56h300v-56l-169 -394h-70z" />
    <glyph glyph-name="uni2078" unicode="&#x2078;" horiz-adv-x="380" 
d="M190 373q-75 0 -115 37t-40 93q0 38 20 67t60 46q-33 16 -49.5 42t-16.5 58q0 25 10 47t28 38.5t44 26t59 9.5t59 -9.5t44 -26t28 -38.5t10 -47q0 -32 -17 -58t-50 -42q41 -17 61 -46t20 -67q0 -56 -40 -93t-115 -37zM190 641q36 4 57 24.5t21 48.5q0 26 -21.5 45.5
t-56.5 19.5t-56.5 -19.5t-21.5 -45.5q0 -28 21.5 -48.5t56.5 -24.5zM190 431q43 0 67.5 22.5t24.5 51.5q0 34 -24 57t-68 27q-44 -4 -68 -27t-24 -57q0 -29 24.5 -51.5t67.5 -22.5z" />
    <glyph glyph-name="uni2079" unicode="&#x2079;" horiz-adv-x="390" 
d="M190 835q75 0 117.5 -45t42.5 -138v-52q0 -61 -12 -104.5t-33 -71t-50.5 -40.5t-64.5 -13q-62 0 -95 30.5t-41 72.5h64q5 -15 21.5 -29.5t50.5 -14.5q22 0 40.5 7.5t32 25t21 46.5t9.5 73q-19 -24 -46 -37.5t-60 -13.5q-69 0 -108 39t-39 106v12q0 32 11 59t31 46.5
t47.5 30.5t60.5 11zM286 686q0 42 -24.5 66t-71.5 24q-38 0 -62 -24t-24 -64v-12q0 -38 24.5 -61.5t66.5 -23.5t66.5 23.5t24.5 61.5v10z" />
    <glyph glyph-name="uni207A" unicode="&#x207a;" horiz-adv-x="400" 
d="M169 577h-114v56h114v118h62v-118h114v-56h-114v-118h-62v118z" />
    <glyph glyph-name="uni207B" unicode="&#x207b;" horiz-adv-x="400" 
d="M55 633h290v-56h-290v56z" />
    <glyph glyph-name="uni207C" unicode="&#x207c;" horiz-adv-x="400" 
d="M55 697h290v-56h-290v56zM55 569h290v-56h-290v56z" />
    <glyph glyph-name="uni207D" unicode="&#x207d;" horiz-adv-x="240" 
d="M50 605q0 55 15 97t34 71q21 33 49 57h77q-32 -24 -57 -57q-22 -29 -39.5 -71t-17.5 -97q0 -56 17.5 -97.5t39.5 -70.5q25 -33 57 -57h-80q-27 24 -48 57q-18 29 -32.5 70.5t-14.5 97.5z" />
    <glyph glyph-name="uni207E" unicode="&#x207e;" horiz-adv-x="240" 
d="M190 605q0 -56 -15.5 -97.5t-33.5 -70.5q-22 -33 -49 -57h-77q31 24 57 57q21 29 39 70.5t18 97.5q0 55 -18 97t-39 71q-26 33 -57 57h80q26 -24 47 -57q18 -29 33 -71t15 -97z" />
    <glyph glyph-name="uni207F" unicode="&#x207f;" horiz-adv-x="370" 
d="M45 700h48l6 -49q17 28 43.5 42t61.5 14q59 0 92.5 -35.5t33.5 -109.5v-182h-60v182q0 45 -20 66t-58 21q-42 0 -64.5 -22.5t-22.5 -64.5v-182h-60v320z" />
    <glyph glyph-name="uni2080" unicode="&#x2080;" horiz-adv-x="390" 
d="M195 -136q-35 0 -64 12t-49 37.5t-31 65t-11 95.5v44q0 56 11 95.5t31 65t49 37.5t64 12t63.5 -12t49 -37.5t31.5 -65t11 -95.5v-44q0 -56 -11 -95.5t-31.5 -65t-49 -37.5t-63.5 -12zM195 -77q21 0 37.5 7.5t28.5 25t18.5 46.5t6.5 72v44q0 43 -6.5 72t-18.5 46.5
t-28.5 25t-37.5 7.5t-37.5 -7.5t-28.5 -25t-18.5 -46.5t-6.5 -72v-44q0 -43 6.5 -72t18.5 -46.5t28.5 -25t37.5 -7.5z" />
    <glyph glyph-name="uni2081" unicode="&#x2081;" horiz-adv-x="260" 
d="M139 253l-119 -75v69l119 74h61v-450h-61v382z" />
    <glyph glyph-name="uni2082" unicode="&#x2082;" horiz-adv-x="355" 
d="M26 -73l151 146q25 24 40 41.5t23.5 32t11.5 26.5t3 26q0 31 -21 50.5t-61 19.5t-61 -19.5t-21 -50.5h-64q0 55 39 92t107 37t107 -37t39 -92q0 -21 -5 -40t-17 -38.5t-31 -41t-46 -47.5l-111 -105h211v-56h-294v56z" />
    <glyph glyph-name="uni2083" unicode="&#x2083;" horiz-adv-x="370" 
d="M180 -136q-74 0 -112.5 37t-42.5 107h64q9 -85 91 -85q45 0 68 21.5t23 54.5q0 31 -24 52.5t-66 21.5h-59v56h59q39 0 60 19.5t21 50.5q0 32 -20.5 51t-61.5 19q-39 0 -58.5 -18.5t-23.5 -52.5h-64q4 59 41 94.5t105 35.5q69 0 107.5 -35.5t38.5 -87.5q0 -35 -16 -61
t-48 -40q35 -15 54 -43.5t19 -63.5q0 -60 -39.5 -96.5t-115.5 -36.5z" />
    <glyph glyph-name="uni2084" unicode="&#x2084;" horiz-adv-x="370" 
d="M236 -31h-216v56l194 296h83v-296h53v-56h-53v-98h-61v98zM236 25v234l-152 -234h152z" />
    <glyph glyph-name="uni2085" unicode="&#x2085;" horiz-adv-x="385" 
d="M190 -136q-66 0 -107 32.5t-53 79.5h69q5 -18 27 -35.5t64 -17.5t69 25.5t27 70.5t-27 70t-69 25q-32 0 -53 -12.5t-35 -29.5h-61l20 249h262v-56h-206l-11 -129q38 37 96 37q67 0 107.5 -41t40.5 -113q0 -71 -42.5 -113t-117.5 -42z" />
    <glyph glyph-name="uni2086" unicode="&#x2086;" horiz-adv-x="390" 
d="M200 -136q-75 0 -117.5 45t-42.5 138v52q0 61 12 104.5t33 71t50.5 40.5t64.5 13q62 0 95 -30.5t41 -72.5h-64q-5 15 -21.5 29.5t-50.5 14.5q-23 0 -41 -7.5t-31.5 -25t-21.5 -47t-9 -72.5q19 24 46 37.5t60 13.5q69 0 108 -39t39 -106v-12q0 -32 -11 -59t-31 -46.5
t-47.5 -30.5t-60.5 -11zM104 13q0 -42 24.5 -66t71.5 -24q38 0 62 24t24 64v12q0 38 -24.5 61.5t-66.5 23.5t-66.5 -23.5t-24.5 -61.5v-10z" />
    <glyph glyph-name="uni2087" unicode="&#x2087;" horiz-adv-x="330" 
d="M249 265h-234v56h300v-56l-169 -394h-70z" />
    <glyph glyph-name="uni2088" unicode="&#x2088;" horiz-adv-x="380" 
d="M190 -136q-75 0 -115 37t-40 93q0 38 20 67t60 46q-33 16 -49.5 42t-16.5 58q0 25 10 47t28 38.5t44 26t59 9.5t59 -9.5t44 -26t28 -38.5t10 -47q0 -32 -17 -58t-50 -42q41 -17 61 -46t20 -67q0 -56 -40 -93t-115 -37zM190 132q36 4 57 24.5t21 48.5q0 26 -21.5 45.5
t-56.5 19.5t-56.5 -19.5t-21.5 -45.5q0 -28 21.5 -48.5t56.5 -24.5zM190 -78q43 0 67.5 22.5t24.5 51.5q0 34 -24 57t-68 27q-44 -4 -68 -27t-24 -57q0 -29 24.5 -51.5t67.5 -22.5z" />
    <glyph glyph-name="uni2089" unicode="&#x2089;" horiz-adv-x="390" 
d="M190.012 327.022q74.9961 0 117.493 -44.9971t42.4971 -137.991v-51.9971q0 -60.9961 -11.999 -104.493q-11.999 -43.498 -32.998 -70.9961q-20.998 -27.498 -50.4971 -40.4971q-29.498 -13 -64.4961 -13q-61.9961 0 -94.9941 30.498t-40.9971 72.4961h63.9961
q5 -14.999 21.499 -29.498t50.4961 -14.499q22.999 0 40.998 7.49902q17.999 7.5 31.498 24.999t21.499 46.9971q7.99902 29.498 8.99902 72.4951q-18.999 -23.998 -45.9971 -37.498q-26.998 -13.499 -59.9961 -13.499q-68.9961 0 -107.994 38.998
q-38.9971 38.9971 -38.9971 105.993v11.999q0 31.998 10.999 58.9971q10.999 26.998 30.998 46.4971t47.4971 30.498q27.499 10.999 60.4961 10.999zM286.006 178.032q0 41.9971 -24.498 65.9951q-24.498 23.999 -71.4961 23.999q-37.9971 0 -61.9961 -23.999
q-23.998 -23.998 -23.998 -63.9961v-11.999q0 -37.9971 24.498 -61.4961q24.499 -23.498 66.4961 -23.498q41.998 0 66.4961 23.498q24.498 23.499 24.498 61.4961v10z" />
    <glyph glyph-name="uni208A" unicode="&#x208a;" horiz-adv-x="400" 
d="M169 68h-114v56h114v118h62v-118h114v-56h-114v-118h-62v118z" />
    <glyph glyph-name="uni208B" unicode="&#x208b;" horiz-adv-x="400" 
d="M55 124h290v-56h-290v56z" />
    <glyph glyph-name="uni208C" unicode="&#x208c;" horiz-adv-x="400" 
d="M55 188h290v-56h-290v56zM55 60h290v-56h-290v56z" />
    <glyph glyph-name="uni208D" unicode="&#x208d;" horiz-adv-x="240" 
d="M50 96q0 55 15 97t34 71q21 33 49 57h77q-32 -24 -57 -57q-22 -29 -39.5 -71t-17.5 -97q0 -56 17.5 -97.5t39.5 -70.5q25 -33 57 -57h-80q-27 24 -48 57q-18 29 -32.5 70.5t-14.5 97.5z" />
    <glyph glyph-name="uni208E" unicode="&#x208e;" horiz-adv-x="240" 
d="M190 96q0 -56 -15.5 -97.5t-33.5 -70.5q-22 -33 -49 -57h-77q31 24 57 57q21 29 39 70.5t18 97.5q0 55 -18 97t-39 71q-26 33 -57 57h80q26 -24 47 -57q18 -29 33 -71t15 -97z" />
    <glyph glyph-name="uni2090" unicode="&#x2090;" horiz-adv-x="350" 
d="M140 -136q-55 0 -82.5 25.5t-27.5 69.5q0 48 33.5 75.5t117.5 27.5h69v22q0 34 -15.5 49t-54.5 15q-35 0 -51 -12.5t-20 -31.5h-61q4 41 35 67.5t97 26.5q68 0 99 -29t31 -85v-213h-48l-7 55q-36 -62 -115 -62zM149 -86q46 0 73.5 26.5t27.5 66.5v13h-69
q-51 0 -69.5 -14.5t-18.5 -40.5q0 -51 56 -51z" />
    <glyph glyph-name="uni2091" unicode="&#x2091;" horiz-adv-x="360" 
d="M180 -136q-69 0 -109.5 41t-40.5 110v32q0 69 40.5 110t109.5 41q33 0 60.5 -11t47.5 -31.5t31 -48t11 -60.5v-38h-238q2 -42 26 -65.5t62 -23.5q35 0 53 12.5t27 31.5h65q-14 -50 -52.5 -75t-92.5 -25zM180 142q-37 0 -61 -22.5t-27 -62.5h176q-3 41 -26.5 63t-61.5 22z
" />
    <glyph glyph-name="uni2092" unicode="&#x2092;" horiz-adv-x="360" 
d="M180 -136q-68 0 -109 41t-41 110v32q0 69 41 110t109 41t109 -41t41 -110v-32q0 -69 -41 -110t-109 -41zM180 -78q39 0 62.5 24t23.5 69v32q0 45 -23.5 69t-62.5 24t-62.5 -24t-23.5 -69v-32q0 -45 23.5 -69t62.5 -24z" />
    <glyph glyph-name="uni2093" unicode="&#x2093;" horiz-adv-x="350" 
d="M141 36l-106 155h68l72 -106l74 106h66l-106 -155l116 -165h-71l-79 116l-80 -116h-70z" />
    <glyph glyph-name="uni2094" unicode="&#x2094;" horiz-adv-x="360" 
d="M180.011 197.022q68.9961 0 109.493 -40.9971q40.498 -40.998 40.498 -109.993v-31.998q0 -68.9961 -40.498 -109.993q-40.4971 -40.998 -109.493 -40.998q-32.998 0 -60.4961 11q-27.498 10.999 -47.4971 31.498q-19.999 20.498 -30.998 47.9971
q-10.999 27.498 -10.999 60.4961v37.9971h237.985q-2 41.998 -25.999 65.4961q-23.998 23.499 -61.9961 23.499q-34.998 0 -52.9961 -12.499q-17.999 -12.5 -26.999 -31.498h-64.9961q13.999 49.9961 52.4971 74.9951q38.498 24.998 92.4941 24.998zM180.011 -80.96
q36.998 0 60.9961 22.498q23.999 22.499 26.999 62.4961h-175.989q3 -40.9971 26.498 -62.9961q23.499 -21.998 61.4961 -21.998z" />
    <glyph glyph-name="uni2095" unicode="&#x2095;" horiz-adv-x="370" 
d="M45 321h60v-170q17 23 42 35t57 12q59 0 92.5 -35.5t33.5 -109.5v-182h-60v182q0 45 -20 66t-58 21q-42 0 -64.5 -22.5t-22.5 -64.5v-182h-60v450z" />
    <glyph glyph-name="uni2096" unicode="&#x2096;" horiz-adv-x="340" 
d="M45 321h60v-291l132 161h68l-124 -146l134 -174h-68l-103 135l-39 -47v-88h-60v450z" />
    <glyph glyph-name="uni2097" unicode="&#x2097;" horiz-adv-x="195" 
d="M144 -129q-104 0 -104 104v346h60v-340q0 -30 12 -42.5t40 -12.5h28v-55h-36v0z" />
    <glyph glyph-name="uni2098" unicode="&#x2098;" horiz-adv-x="570" 
d="M45 191h48l6 -47q31 54 98 54q35 0 61.5 -14.5t41.5 -45.5q16 30 44.5 45t66.5 15q54 0 86.5 -35t32.5 -110v-182h-60v182q0 46 -18.5 66.5t-52.5 20.5q-38 0 -60 -22.5t-22 -64.5v-182h-60v182q0 46 -18.5 66.5t-53.5 20.5q-38 0 -59 -22.5t-21 -64.5v-182h-60v320z" />
    <glyph glyph-name="uni2099" unicode="&#x2099;" horiz-adv-x="370" 
d="M45 191h48l6 -49q17 28 43.5 42t61.5 14q59 0 92.5 -35.5t33.5 -109.5v-182h-60v182q0 45 -20 66t-58 21q-42 0 -64.5 -22.5t-22.5 -64.5v-182h-60v320z" />
    <glyph glyph-name="uni209a" unicode="&#x209a;" horiz-adv-x="365" 
d="M45 191h48l6 -50q17 29 44 43t63 14q57 0 93 -39.5t36 -115.5v-24q0 -76 -36 -115.5t-93 -39.5q-33 0 -58.5 11.5t-42.5 35.5v-170h-60v450zM190 -78q38 0 60 24.5t22 72.5v24q0 48 -22.5 72.5t-59.5 24.5q-40 0 -62.5 -24t-22.5 -73v-24q0 -49 22.5 -73t62.5 -24z" />
    <glyph glyph-name="uni209B" unicode="&#x209b;" horiz-adv-x="320" 
d="M160 -136q-64 0 -94.5 26.5t-35.5 73.5h61q5 -23 20 -36t49 -13q39 0 54 12.5t15 33.5q0 19 -14.5 28.5t-36 15.5t-46.5 11t-46.5 14.5t-36 26.5t-14.5 47q0 42 29.5 68t95.5 26q61 0 90 -25.5t34 -68.5h-61q-5 20 -19 31.5t-44 11.5q-35 0 -49.5 -12t-14.5 -29
q0 -16 14.5 -24t36 -13.5t46.5 -11.5t46.5 -16.5t36 -28.5t14.5 -49q0 -46 -30.5 -72.5t-99.5 -26.5z" />
    <glyph glyph-name="uni209C" unicode="&#x209c;" horiz-adv-x="240" 
d="M181 -129q-60 0 -83 22t-23 76v167h-60v55h60v90h60v-90h80v-55h-80v-167q0 -23 10 -33t36 -10h44v-55h-44v0z" />
    <glyph glyph-name="franc" unicode="&#x20a3;" horiz-adv-x="565" 
d="M15 199h100v501h420v-64h-350v-244h290v-64h-290v-129h145v-58h-145v-141h-70v141h-100v58z" />
    <glyph glyph-name="Euro" unicode="&#x20ac;" horiz-adv-x="620" 
d="M32 304h93v92h-110l17 58h98q17 125 89 185.5t186 60.5h180l-19 -64h-161q-86 0 -137.5 -42.5t-65.5 -139.5h312l-16 -58h-301v-92h274l-17 -58h-252q14 -96 66 -139t137 -43h170v-64h-170q-117 0 -188 60.5t-88 185.5h-114z" />
    <glyph glyph-name="uni20B4" unicode="&#x20b4;" horiz-adv-x="580" 
d="M60 444h284q30 29 48 56.5t18 57.5q0 39 -26 62.5t-81 23.5q-50 0 -79 -21.5t-37 -58.5h-69q11 65 60 104t121 39q91 0 135 -40.5t44 -108.5q0 -30 -14 -58.5t-37 -55.5h93v-58h-460v58zM60 314h460v-58h-298q-26 -27 -40 -53t-14 -55q0 -43 27 -67.5t86 -24.5
q54 0 87.5 22.5t42.5 67.5h69q-8 -66 -58.5 -109.5t-140.5 -43.5q-91 0 -136 41.5t-45 113.5q0 29 11.5 55.5t31.5 52.5h-83v58z" />
    <glyph glyph-name="uni20B8" unicode="&#x20b8;" 
d="M260 494h-230v64h530v-64h-230v-494h-70v494zM30 700h530v-64h-530v64z" />
    <glyph glyph-name="uni20BD" unicode="&#x20bd;" horiz-adv-x="620" 
d="M120 136h-100v58h100v78h-100v64h100v364h210q128 0 189 -56.5t61 -157.5q0 -100 -61.5 -157t-188.5 -57h-140v-78h241v-58h-241v-136h-70v136zM190 636v-300h140q95 0 136.5 38t41.5 112q0 73 -42 111.5t-136 38.5h-140z" />
    <glyph glyph-name="uni20BF" unicode="&#x20bf;" horiz-adv-x="620" 
d="M90 700h94v100h62v-100h64h12t12 -1v101h62v-108q75 -17 109.5 -63t34.5 -115q0 -52 -24.5 -90t-70.5 -59v-2q57 -20 86 -62.5t29 -104.5q0 -81 -39.5 -129.5t-124.5 -62.5v-104h-62v100h-4h-84v-100h-62v100h-94v700zM160 328v-264h165q88 0 125.5 33.5t37.5 98.5
t-37.5 98.5t-125.5 33.5h-165zM160 636v-244h145q88 0 125.5 32.5t37.5 89.5t-37.5 89.5t-125.5 32.5h-145z" />
    <glyph glyph-name="uni20F0" unicode="&#x20f0;" horiz-adv-x="250" 
d="M49 635l42 72h-81v38h81l-42 72l34 20l42 -72l42 72l34 -20l-42 -72h81v-38h-81l42 -72l-34 -20l-42 72l-42 -72z" />
    <glyph glyph-name="uni2100" unicode="&#x2100;" horiz-adv-x="850" 
d="M616 700h74l-406 -700h-74zM655 -6q-69 0 -109.5 41.5t-40.5 113.5v24q0 72 40.5 113.5t109.5 41.5q57 0 94.5 -27t50.5 -75h-67q-20 44 -78 44q-39 0 -63 -25t-24 -72v-24q0 -47 24 -72t63 -25q61 0 81 54h64q-11 -53 -48 -82.5t-97 -29.5zM160 373q-55 0 -82.5 25.5
t-27.5 69.5q0 48 33.5 75.5t117.5 27.5h69v22q0 34 -15.5 49t-54.5 15q-35 0 -51 -12.5t-20 -31.5h-61q4 41 35 67.5t97 26.5q68 0 99 -29t31 -85v-213h-48l-7 55q-36 -62 -115 -62zM169 423q46 0 73.5 26.5t27.5 66.5v13h-69q-51 0 -69.5 -14.5t-18.5 -40.5q0 -51 56 -51z
" />
    <glyph glyph-name="uni2101" unicode="&#x2101;" horiz-adv-x="850" 
d="M616 700h74l-406 -700h-74zM670 -6q-64 0 -94.5 26.5t-35.5 73.5h61q5 -23 20 -36t49 -13q39 0 54 12.5t15 33.5q0 19 -14.5 28.5t-36 15.5t-46.5 11t-46.5 14.5t-36 26.5t-14.5 47q0 42 29.5 68t95.5 26q61 0 90 -25.5t34 -68.5h-61q-5 20 -19 31.5t-44 11.5
q-35 0 -49.5 -12t-14.5 -29q0 -16 14.5 -24t36 -13.5t46.5 -11.5t46.5 -16.5t36 -28.5t14.5 -49q0 -46 -30.5 -72.5t-99.5 -26.5zM160 373q-55 0 -82.5 25.5t-27.5 69.5q0 48 33.5 75.5t117.5 27.5h69v22q0 34 -15.5 49t-54.5 15q-35 0 -51 -12.5t-20 -31.5h-61
q4 41 35 67.5t97 26.5q68 0 99 -29t31 -85v-213h-48l-7 55q-36 -62 -115 -62zM169 423q46 0 73.5 26.5t27.5 66.5v13h-69q-51 0 -69.5 -14.5t-18.5 -40.5q0 -51 56 -51z" />
    <glyph glyph-name="uni2105" unicode="&#x2105;" horiz-adv-x="850" 
d="M591 700h74l-406 -700h-74zM200 373q-69 0 -109.5 41.5t-40.5 113.5v24q0 72 40.5 113.5t109.5 41.5q57 0 94.5 -27t50.5 -75h-67q-20 44 -78 44q-39 0 -63 -25t-24 -72v-24q0 -47 24 -72t63 -25q61 0 81 54h64q-11 -53 -48 -82.5t-97 -29.5zM628 -6q-68 0 -109 41
t-41 110v32q0 69 41 110t109 41t109 -41t41 -110v-32q0 -69 -41 -110t-109 -41zM628 52q39 0 62.5 24t23.5 69v32q0 45 -23.5 69t-62.5 24t-62.5 -24t-23.5 -69v-32q0 -45 23.5 -69t62.5 -24z" />
    <glyph glyph-name="uni2106" unicode="&#x2106;" horiz-adv-x="870" 
d="M591 700h74l-406 -700h-74zM200 373q-69 0 -109.5 41.5t-40.5 113.5v24q0 72 40.5 113.5t109.5 41.5q57 0 94.5 -27t50.5 -75h-67q-20 44 -78 44q-39 0 -63 -25t-24 -72v-24q0 -47 24 -72t63 -25q61 0 81 54h64q-11 -53 -48 -82.5t-97 -29.5zM663 -6q-57 0 -90 35.5
t-33 109.5v182h60v-182q0 -45 19 -66t56 -21q40 0 62.5 22.5t22.5 64.5v182h60v-320h-48l-6 49q-33 -56 -103 -56z" />
    <glyph glyph-name="uni2113" unicode="&#x2113;" horiz-adv-x="390" 
d="M247 0q-65 0 -98.5 33.5t-33.5 98.5v88q-18 -16 -36 -30.5t-36 -27.5v83q18 14 36.5 29.5t35.5 32.5v281q0 56 31 87.5t85 31.5q51 0 83.5 -30.5t32.5 -88.5q0 -38 -13 -78t-35.5 -79t-53 -77t-64.5 -73v-141q0 -79 74 -79h68v-61h-76zM181 376q44 51 72 105t28 107
q0 28 -13.5 42t-36.5 14t-36.5 -14t-13.5 -42v-212z" />
    <glyph glyph-name="uni2116" unicode="&#x2116;" horiz-adv-x="1070" 
d="M737 327h286v-54h-286v54zM90 700h104l354 -610h2v610h70v-700h-98l-360 620h-2v-620h-70v700zM880 373q-68 0 -109 41t-41 110v32q0 69 41 110t109 41t109 -41t41 -110v-32q0 -69 -41 -110t-109 -41zM880 431q39 0 62.5 24t23.5 69v32q0 45 -23.5 69t-62.5 24t-62.5 -24
t-23.5 -69v-32q0 -45 23.5 -69t62.5 -24z" />
    <glyph glyph-name="uni2117" unicode="&#x2117;" horiz-adv-x="850" 
d="M425 -7q-75 0 -140.5 28t-114 76t-76.5 113t-28 140q0 74 28 139t77 113.5t114 76.5t140 28t140.5 -28t114 -76t76.5 -113t28 -140q0 -74 -28 -139t-77 -113.5t-114 -76.5t-140 -28zM425 54q62 0 116 23t93.5 62.5t62.5 93.5t23 117q0 62 -23 116t-62.5 94t-93.5 63
t-116 23t-116 -23t-93.5 -63t-62.5 -94t-23 -116t23 -116t62.5 -94t93.5 -63t116 -23zM311 550h126q77 0 111.5 -32t34.5 -93q0 -60 -35.5 -92.5t-110.5 -32.5h-66v-150h-60v400zM371 495v-140h66q47 0 65 17t18 53q0 37 -18 53.5t-65 16.5h-66z" />
    <glyph glyph-name="uni2120" unicode="&#x2120;" horiz-adv-x="850" 
d="M193 293q-74 0 -109 33t-39 96h63q4 -38 22 -54.5t63 -16.5q48 0 66.5 15t18.5 42q0 25 -16.5 38.5t-41.5 22t-54 15.5t-54 20t-41.5 35.5t-16.5 61.5q0 46 34 76t105 30q67 0 101 -31t38 -83h-63q-4 26 -21 41t-55 15q-42 0 -59 -14.5t-17 -37.5t16.5 -35.5t41.5 -21
t54 -16t54 -21t41.5 -37t16.5 -62.5q0 -50 -35 -80.5t-113 -30.5zM429 700h78l110 -219l113 219h75v-400h-60v324l-18 -41l-79 -160h-62l-79 160l-18 41v-324h-60v400z" />
    <glyph glyph-name="trademark" unicode="&#x2122;" horiz-adv-x="850" 
d="M176 645h-131v55h322v-55h-131v-345h-60v345zM429 700h78l110 -219l113 219h75v-400h-60v324l-18 -41l-79 -160h-62l-79 160l-18 41v-324h-60v400z" />
    <glyph glyph-name="estimated" unicode="&#x212e;" horiz-adv-x="600" 
d="M300 -7q-53 0 -100 20t-82 55t-55 82t-20 100t20 100t55 82t82 55t100 20t100 -20t82 -55t55 -82t20 -100q0 -3 -0.5 -6.5t-0.5 -5.5v-5h-396v-156q29 -23 64.5 -36.5t75.5 -13.5q66 0 119 31t83 88h40q-35 -74 -100.5 -113.5t-141.5 -39.5zM300 473q-40 0 -75.5 -13.5
t-64.5 -36.5v-156h280v156q-29 23 -64.5 36.5t-75.5 13.5z" />
    <glyph glyph-name="uni2150" unicode="&#x2150;" horiz-adv-x="890" 
d="M591 700h74l-406 -700h-74zM160 632l-110 -68v69l110 67h60v-400h-60v332zM775 346h-205v55h270v-55l-151 -345h-70z" />
    <glyph glyph-name="uni2151" unicode="&#x2151;" horiz-adv-x="880" 
d="M591 700h74l-406 -700h-74zM160 632l-110 -68v69l110 67h60v-400h-60v332zM680.012 407.018q69.9961 0 109.993 -41.4971t39.9971 -122.492v-51.9971q0 -102.994 -41.4971 -150.491t-108.493 -47.4971q-56.9971 0 -89.4951 28.498q-32.4971 28.499 -40.4971 73.4961
h59.9961q6 -19.999 23.499 -34.498t50.4971 -14.499q38.9971 0 63.4961 27.998q24.498 27.998 27.498 100.994q-31.998 -42.9971 -93.9941 -42.9971q-65.9961 0 -103.494 35.9971q-37.4971 35.998 -37.4971 94.9941v12q0 59.9961 36.9971 95.9941
q36.998 35.9971 102.994 35.9971zM767.006 273.026q0 37.9971 -21.498 58.4961q-21.499 20.499 -65.4961 20.499q-35.998 0 -56.4971 -20.499q-20.498 -20.499 -20.498 -56.4961v-12q0 -36.9971 20.998 -57.4961q20.999 -20.499 60.9971 -20.499q39.9971 0 60.9961 20.499
q20.998 20.499 20.998 57.4961v10z" />
    <glyph glyph-name="uni2152" unicode="&#x2152;" horiz-adv-x="1150" 
d="M591 700h74l-406 -700h-74zM660 333l-110 -68v69l110 67h60v-400h-60v332zM160 632l-110 -68v69l110 67h60v-400h-60v332zM950 -6q-68 0 -109 45.5t-41 139.5v44q0 94 41 139.5t109 45.5t109 -45.5t41 -139.5v-44q0 -94 -41 -139.5t-109 -45.5zM950 52q39 0 63 29t24 98
v44q0 69 -24 98t-63 29t-63 -29t-24 -98v-44q0 -69 24 -98t63 -29z" />
    <glyph glyph-name="onethird" unicode="&#x2153;" horiz-adv-x="890" 
d="M591 700h74l-406 -700h-74zM160 632l-110 -68v69l110 67h60v-400h-60v332zM690 -6q-72 0 -109 34.5t-41 94.5h63q4 -34 24.5 -52.5t62.5 -18.5q46 0 66.5 17.5t20.5 46.5q0 26 -20.5 44.5t-65.5 18.5h-56v55h56q41 0 59 16t18 42t-18.5 42t-59.5 16q-39 0 -56.5 -16
t-22.5 -45h-62q4 54 38 86.5t103 32.5t105 -32t36 -80q0 -28 -14.5 -50t-43.5 -36q34 -14 50.5 -39.5t16.5 -58.5q0 -52 -37 -85t-113 -33z" />
    </font>
</defs>
</svg>
