<svg width="166" height="166" viewBox="0 0 166 166" fill="none" xmlns="http://www.w3.org/2000/svg">
<g opacity="0.2" clip-path="url(#clip0_1314_14517)">
<path d="M120.717 166C119.555 166 118.366 165.855 117.19 165.544L10.2373 136.902C2.90563 134.882 -1.4657 127.287 0.457134 119.956L13.9516 69.6578C14.4496 67.8111 16.3447 66.739 18.1846 67.2093C20.0313 67.7004 21.1241 69.6025 20.6331 71.4423L7.14555 121.727C6.18413 125.392 8.38363 129.21 12.0564 130.227L118.967 158.855C122.64 159.823 126.43 157.638 127.385 153.986L132.787 133.969C133.285 132.122 135.18 131.023 137.027 131.527C138.873 132.025 139.959 133.927 139.468 135.767L134.073 155.756C132.448 161.912 126.845 166 120.717 166Z" fill="#969696"/>
<path d="M152.164 124.5H41.4974C33.8683 124.5 27.6641 118.296 27.6641 110.667V27.6666C27.6641 20.0375 33.8683 13.8333 41.4974 13.8333H152.164C159.793 13.8333 165.997 20.0375 165.997 27.6666V110.667C165.997 118.296 159.793 124.5 152.164 124.5ZM41.4974 20.7499C37.6863 20.7499 34.5807 23.8555 34.5807 27.6666V110.667C34.5807 114.478 37.6863 117.583 41.4974 117.583H152.164C155.975 117.583 159.081 114.478 159.081 110.667V27.6666C159.081 23.8555 155.975 20.7499 152.164 20.7499H41.4974Z" fill="#969696"/>
<path d="M62.2474 62.2499C54.6183 62.2499 48.4141 56.0457 48.4141 48.4166C48.4141 40.7875 54.6183 34.5833 62.2474 34.5833C69.8765 34.5833 76.0807 40.7875 76.0807 48.4166C76.0807 56.0457 69.8765 62.2499 62.2474 62.2499ZM62.2474 41.4999C58.4363 41.4999 55.3307 44.6055 55.3307 48.4166C55.3307 52.2277 58.4363 55.3333 62.2474 55.3333C66.0585 55.3333 69.1641 52.2277 69.1641 48.4166C69.1641 44.6055 66.0585 41.4999 62.2474 41.4999Z" fill="#969696"/>
<path d="M31.6085 117.099C30.7232 117.099 29.8378 116.76 29.16 116.089C27.8113 114.741 27.8113 112.548 29.16 111.199L61.8274 78.5319C65.7422 74.6171 72.5828 74.6171 76.4977 78.5319L86.2225 88.2568L113.142 55.9559C115.1 53.6112 117.977 52.2486 121.041 52.2209H121.117C124.147 52.2209 127.017 53.5351 128.995 55.8384L165.169 98.0439C166.414 99.4894 166.248 101.675 164.796 102.92C163.35 104.165 161.171 104.006 159.92 102.547L123.745 60.3411C123.075 59.5664 122.148 59.1376 121.117 59.1376C120.398 59.0754 119.132 59.5734 118.461 60.3826L89.1137 95.5954C88.4912 96.3424 87.5851 96.7919 86.6098 96.8334C85.6277 96.9026 84.6939 96.5153 84.0092 95.8236L71.6076 83.422C70.3003 82.1217 68.0247 82.1217 66.7175 83.422L34.0501 116.089C33.3792 116.76 32.4938 117.099 31.6085 117.099Z" fill="#969696"/>
</g>
<defs>
<clipPath id="clip0_1314_14517">
<rect width="166" height="166" fill="white"/>
</clipPath>
</defs>
</svg>
