<svg width="31" height="31" viewBox="0 0 31 31" fill="none" xmlns="http://www.w3.org/2000/svg">
<g clip-path="url(#clip0_1319_19400)">
<path d="M11.625 26.1562C11.625 26.5395 11.5114 26.914 11.2985 27.2327C11.0856 27.5513 10.783 27.7996 10.4289 27.9463C10.0749 28.0929 9.68535 28.1313 9.30951 28.0565C8.93367 27.9818 8.58845 27.7972 8.31748 27.5263C8.04652 27.2553 7.86199 26.9101 7.78723 26.5342C7.71247 26.1584 7.75084 25.7688 7.89748 25.4148C8.04413 25.0608 8.29246 24.7582 8.61108 24.5453C8.9297 24.3324 9.3043 24.2188 9.6875 24.2188C10.2014 24.2188 10.6942 24.4229 11.0575 24.7862C11.4209 25.1496 11.625 25.6424 11.625 26.1562ZM22.2813 24.2188C21.8981 24.2188 21.5235 24.3324 21.2048 24.5453C20.8862 24.7582 20.6379 25.0608 20.4912 25.4148C20.3446 25.7688 20.3062 26.1584 20.381 26.5342C20.4557 26.9101 20.6403 27.2553 20.9112 27.5263C21.1822 27.7972 21.5274 27.9818 21.9033 28.0565C22.2791 28.1313 22.6687 28.0929 23.0227 27.9463C23.3767 27.7996 23.6793 27.5513 23.8922 27.2327C24.1051 26.914 24.2188 26.5395 24.2188 26.1562C24.2188 25.6424 24.0146 25.1496 23.6513 24.7862C23.2879 24.4229 22.7951 24.2188 22.2813 24.2188ZM27.9048 8.14355C27.8148 8.02147 27.6973 7.92225 27.5618 7.85389C27.4263 7.78553 27.2767 7.74995 27.125 7.75H5.85125L4.86918 4.31094C4.75197 3.9069 4.50707 3.55169 4.17112 3.29847C3.83516 3.04525 3.42624 2.90765 3.00555 2.90625H0.96875C0.711822 2.90625 0.465416 3.00831 0.28374 3.18999C0.102064 3.37167 0 3.61807 0 3.875C0 4.13193 0.102064 4.37833 0.28374 4.56001C0.465416 4.74169 0.711822 4.84375 0.96875 4.84375H3.00555L7.38672 20.173C7.56205 20.7791 7.929 21.3121 8.43262 21.6921C8.93623 22.0722 9.54942 22.2789 10.1804 22.2812H21.8187C22.4407 22.2834 23.0469 22.085 23.5473 21.7155C24.0476 21.346 24.4156 20.8251 24.5966 20.2299L28.0514 9.00332C28.0959 8.85853 28.1058 8.70533 28.0803 8.55602C28.0549 8.4067 27.9948 8.26543 27.9048 8.14355Z" fill="#8E8E8D"/>
<circle cx="25" cy="7" r="6" fill="#FF6D00"/>
</g>
<defs>
<clipPath id="clip0_1319_19400">
<rect width="31" height="31" fill="white"/>
</clipPath>
</defs>
</svg>
