<svg width="154" height="60" viewBox="0 0 154 60" fill="none" xmlns="http://www.w3.org/2000/svg">
<g clip-path="url(#clip0_1754_15432)">
<path d="M30.4126 56.9143H18.8464C18.3618 56.9143 17.9741 57.2786 17.9741 57.7179V58.1893C17.9741 58.6393 18.3618 58.9929 18.8464 58.9929H30.4126C30.8972 58.9929 31.2849 58.6286 31.2849 58.1893V57.7179C31.2849 57.2679 30.8972 56.9143 30.4126 56.9143Z" fill="#1D1D1B"/>
<path d="M51.9723 28.0928L41.0631 5.67855C40.5247 4.56427 39.3077 3.83569 37.9831 3.83569H19.74C18.4154 3.83569 17.2093 4.55355 16.66 5.67855L5.75081 28.1035C5.60004 28.4143 5.50312 28.7571 5.47081 29.0785L5.42773 29.2714L5.44927 29.325C5.4385 29.5286 5.44927 29.7964 5.51389 30.075C5.91235 31.5321 7.23696 32.5178 8.82004 32.5178H48.8923C50.4754 32.5178 51.8 31.5321 52.1985 30.075C52.36 29.4535 52.2847 28.7571 51.9616 28.1035L51.9723 28.0928Z" fill="#FF6D00"/>
<path d="M28.9374 0.696533H18.8466C18.7515 0.696533 18.6743 0.773284 18.6743 0.867962V1.15725C18.6743 1.25192 18.7515 1.32868 18.8466 1.32868H28.9374C29.0326 1.32868 29.1097 1.25192 29.1097 1.15725V0.867962C29.1097 0.773284 29.0326 0.696533 28.9374 0.696533Z" fill="#1D1D1B"/>
<path d="M28.9372 0H18.8464C18.3647 0 17.9741 0.388553 17.9741 0.867857V1.15714C17.9741 1.63645 18.3647 2.025 18.8464 2.025H28.9372C29.419 2.025 29.8095 1.63645 29.8095 1.15714V0.867857C29.8095 0.388553 29.419 0 28.9372 0Z" fill="#1D1D1B"/>
<mask id="mask0_1754_15432" style="mask-type:luminance" maskUnits="userSpaceOnUse" x="0" y="3" width="48" height="30">
<path d="M47.1371 27.9321L36.2386 5.73212C35.6679 4.57498 34.4186 3.83569 33.0294 3.83569H14.7863C13.4079 3.83569 12.1479 4.58569 11.5771 5.73212L0.667859 27.9321C0.506321 28.2535 0.409397 28.6071 0.37709 28.9178L0.323242 29.1643L0.355551 29.2393C0.355551 29.4428 0.35555 29.7107 0.430935 29.9893C0.840166 31.5 2.2294 32.5071 3.87709 32.5071H43.9386C45.5863 32.5071 46.9756 31.5 47.3848 29.9893C47.5571 29.3464 47.4709 28.6178 47.1371 27.9321Z" fill="white"/>
</mask>
<g mask="url(#mask0_1754_15432)">
<path d="M27.0417 8.26074C15.1632 15.9643 -9.78906 32.5179 -9.78906 32.5179L-3.17676 46.9072C-3.17676 46.9072 18.3402 21.975 28.2694 10.3072C27.6986 9.75003 27.2894 9.04289 27.0417 8.26074Z" fill="black"/>
<path d="M26.8909 5.92505C15.2171 6.32148 -20.8922 8.14291 -20.8922 8.14291L-22.6152 23.8608C-22.6152 23.8608 14.8401 11.3572 26.8371 7.20005C26.8371 7.07148 26.794 6.95362 26.794 6.81433C26.794 6.50362 26.8263 6.21433 26.8802 5.92505H26.8909Z" fill="black"/>
<path d="M29.3246 11.0786C22.6477 24.075 10.1016 49.0179 10.1016 49.0179L23.0139 58.2429C23.0139 58.2429 29.0662 27.0214 31.9308 11.6893C31.8554 11.6893 31.7908 11.7107 31.7154 11.7107C30.8431 11.7107 30.0354 11.4643 29.3246 11.0679V11.0786Z" fill="black"/>
<path d="M37.7142 59.3572L53.5773 60.4822C53.5773 60.4822 38.6404 21.1179 34.5589 10.8108C34.2789 11.0036 33.9881 11.1751 33.6758 11.3144C34.4296 22.1786 37.725 59.3572 37.725 59.3572H37.7142Z" fill="black"/>
<path d="M64.0449 48.6001L78.1526 41.3144C78.1526 41.3144 45.3279 15.9966 36.0772 9.05371C35.9156 9.37514 35.711 9.67514 35.4849 9.943C42.0218 19.0394 64.0556 48.5894 64.0556 48.5894L64.0449 48.6001Z" fill="black"/>
</g>
<path d="M43.9385 32.6463H3.86621C2.1539 32.6463 0.721595 31.5963 0.290825 30.032C0.215441 29.7535 0.204672 29.4856 0.215441 29.2713L0.172363 29.1749L0.247748 28.8856C0.280055 28.5856 0.376979 28.2213 0.549287 27.8892L11.4585 5.67846C12.0508 4.47846 13.3539 3.70703 14.7862 3.70703H33.0293C34.4616 3.70703 35.7647 4.47846 36.357 5.67846L47.2662 27.8785C47.6108 28.5856 47.7077 29.3463 47.5247 30.0213C47.0939 31.5856 45.6616 32.6356 43.9493 32.6356L43.9385 32.6463ZM1.62621 29.132V29.1963C1.62621 29.3249 1.60467 29.507 1.64775 29.657C1.90621 30.6106 2.80006 31.2427 3.86621 31.2427H43.9385C45.0047 31.2427 45.8985 30.5999 46.157 29.657C46.2539 29.3035 46.2001 28.8856 45.9954 28.4892L35.097 6.28917C34.7416 5.5606 33.9339 5.09989 33.0293 5.09989H14.7862C13.8816 5.09989 13.0739 5.57132 12.7185 6.28917L1.80929 28.4892C1.71236 28.682 1.65852 28.8963 1.62621 29.132Z" fill="#1D1D1B"/>
<path d="M41.4833 34.6179H6.32172C6.22656 34.6179 6.14941 34.6947 6.14941 34.7893V35.0786C6.14941 35.1733 6.22656 35.2501 6.32172 35.2501H41.4833C41.5784 35.2501 41.6556 35.1733 41.6556 35.0786V34.7893C41.6556 34.6947 41.5784 34.6179 41.4833 34.6179Z" fill="#1D1D1B"/>
<path d="M6.33227 33.9214H41.483C41.9677 33.9214 42.3553 34.3071 42.3553 34.7892V35.0678C42.3553 35.55 41.9677 35.9357 41.483 35.9357H6.33227C5.84765 35.9357 5.45996 35.55 5.45996 35.0678V34.7892C5.45996 34.3071 5.84765 33.9214 6.33227 33.9214Z" fill="#1D1D1B"/>
<path d="M23.6064 38.475V54.4286C23.6064 54.5115 23.6739 54.5786 23.7572 54.5786H24.0157C24.0989 54.5786 24.1664 54.5115 24.1664 54.4286V38.475C24.1664 38.3922 24.0989 38.325 24.0157 38.325H23.7572C23.6739 38.325 23.6064 38.3922 23.6064 38.475Z" fill="#1D1D1B"/>
<path d="M24.0155 37.6287H23.757C23.2872 37.6287 22.9062 38.0076 22.9062 38.4751V54.4287C22.9062 54.8961 23.2872 55.2751 23.757 55.2751H24.0155C24.4853 55.2751 24.8662 54.8961 24.8662 54.4287V38.4751C24.8662 38.0076 24.4853 37.6287 24.0155 37.6287Z" fill="#1D1D1B"/>
<path d="M68.3201 23.1001H66.4355C66.3386 25.468 66.2309 27.7501 66.0909 29.8715C65.9509 32.0787 65.8001 34.2001 65.6278 36.1822C65.4555 38.1537 65.2617 40.1144 65.0463 42.0001C64.8309 43.8215 64.5724 45.7608 64.2601 47.7858C63.9694 49.7572 63.6786 51.3858 63.3986 52.618C63.0971 53.8822 62.7524 54.8144 62.3217 55.4572C61.8694 56.1537 61.2663 56.593 60.5232 56.7858C59.9632 56.9358 59.2847 56.9787 58.4771 56.9144V58.7465C58.4771 58.7465 58.5201 58.7465 58.5524 58.7572V58.993H62.354C62.8709 58.993 63.3447 58.918 63.754 58.7787C64.6909 58.4465 65.4232 57.868 65.9832 56.9894C66.5647 56.068 67.017 54.943 67.3401 53.6251C67.6632 52.2965 67.9432 50.8072 68.1909 49.2108C68.5355 46.8858 68.8047 44.8072 69.0094 42.8572C69.2247 40.843 69.4078 38.8501 69.5586 36.9537C69.7094 35.0251 69.8494 33.118 69.9678 31.2215L70.3555 24.9751H73.5109V23.1001H68.3524H68.3201Z" fill="#FF6D00"/>
<path d="M88.6201 23.1001H76.1816V24.9751H86.2078V56.4215H85.5078V58.6501H88.6201C89.417 58.6501 90.0524 58.0072 90.0524 57.2251V24.5251C90.0524 23.7322 89.4063 23.1001 88.6201 23.1001Z" fill="#FF6D00"/>
<path d="M141.497 43.6501C140.011 43.5751 138.686 43.3179 137.566 42.8786C136.188 42.3322 135.036 41.5179 134.174 40.4465C133.312 39.3965 132.677 38.1001 132.268 36.5894C131.88 35.1108 131.676 33.4072 131.676 31.5322V24.4179C131.676 23.6786 131.072 23.0894 130.34 23.0894H127.099V24.6536H127.809V32.6465C127.809 35.1751 128.229 37.4465 129.059 39.4179C129.866 41.3465 131.212 42.8894 133.054 43.9822C134.314 44.7322 135.886 45.2251 137.739 45.4715V44.1215H145.988V42.9001C144.652 43.3179 143.156 43.5644 141.508 43.6394L141.497 43.6501Z" fill="#FF6D00"/>
<path d="M152.718 23.1001H149.531V24.9001H150.177V40.8858C149.746 41.1322 149.154 41.4644 148.572 41.7751V44.7322C149.035 44.5501 149.606 44.293 150.177 44.0037V57.1072H149.466V58.6501H152.718C153.461 58.6501 154.054 58.0501 154.054 57.3215V24.4287C154.054 23.6894 153.451 23.1001 152.718 23.1001Z" fill="#FF6D00"/>
<path d="M106.26 48.8251L108.026 45.0536L108.015 45.0215L106.238 48.7715L106.26 48.8251Z" fill="#FF6D00"/>
<path d="M122.199 23.1001H118.957C119.571 23.1858 119.969 23.8394 119.7 24.418L104.042 58.1037C103.891 58.4358 103.557 58.6394 103.191 58.6394H106.626C107.025 58.6394 107.391 58.4037 107.563 58.0501L123.136 24.5465C123.448 23.8715 122.952 23.1001 122.199 23.1001Z" fill="#FF6D00"/>
<path d="M94.7153 23.6465L104.968 45.9965L106.723 42.2144L98.2261 23.7001C98.0538 23.3358 97.6984 23.1001 97.2892 23.1001H93.9292C94.263 23.1322 94.5753 23.3358 94.7153 23.6465Z" fill="#FF6D00"/>
<path d="M118.849 23.1001C118.849 23.1001 118.785 23.1001 118.752 23.1108H118.968C118.968 23.1108 118.892 23.1001 118.86 23.1001H118.849Z" fill="black"/>
<path d="M106.066 49.1357L105.258 50.8393V50.8607L102.2 57.3107C101.909 57.9322 102.361 58.6393 103.051 58.6393H103.169L106.863 50.8607L106.055 49.1357H106.066Z" fill="black"/>
<path d="M119.173 24.5466H118.699V23.1108C118.397 23.1537 118.128 23.3466 117.988 23.6251L108.005 45.0323L108.802 46.768L119.162 24.5358L119.173 24.5466Z" fill="black"/>
<path d="M93.9294 23.1108C93.9294 23.1108 93.8864 23.1108 93.8648 23.1108H93.8002C93.111 23.1108 92.6587 23.818 92.9494 24.4394L103.999 48.1287L104.796 46.4037L93.9402 23.1216L93.9294 23.1108Z" fill="black"/>
<path d="M104.968 45.9966L94.7153 23.6466C94.5753 23.3358 94.2738 23.1323 93.9292 23.1108L104.785 46.393L104.968 45.9966Z" fill="black"/>
<path d="M104.042 58.1037L119.7 24.418C119.969 23.8394 119.582 23.1858 118.957 23.1108H118.699V24.5466H119.172L108.812 46.7787L108.016 45.043L106.26 48.8144L106.239 48.7716L106.066 49.1358L106.874 50.8608L103.18 58.6394C103.546 58.6394 103.88 58.4251 104.031 58.1037H104.042Z" fill="black"/>
<path d="M149.574 23.1001C149.025 23.1001 148.583 23.5394 148.583 24.0858V40.8751V43.0394V57.6537C148.583 58.2001 149.025 58.6394 149.574 58.6394C150.123 58.6394 150.565 58.2001 150.565 57.6537V24.0858C150.565 23.5394 150.123 23.1001 149.574 23.1001Z" fill="black"/>
<path d="M145.266 42.6108C143.5 43.3286 141.378 43.6822 138.966 43.6822C137.082 43.6822 135.434 43.4144 134.077 42.8786C132.698 42.3322 131.546 41.5179 130.685 40.4465C129.823 39.3965 129.188 38.1001 128.778 36.5894C128.391 35.1108 128.186 33.4072 128.186 31.5322V24.0751C128.186 23.5286 127.745 23.0894 127.195 23.0894C126.646 23.0894 126.205 23.5286 126.205 24.0751V32.6465C126.205 35.1751 126.625 37.4465 127.454 39.4179C128.262 41.3465 129.608 42.8894 131.449 43.9822C133.302 45.0858 135.811 45.6536 138.923 45.6536C141.077 45.6536 142.994 45.3965 144.642 44.8715C144.986 44.7644 145.471 44.5608 145.988 44.3251V42.2679C145.708 42.4072 145.46 42.5251 145.277 42.6001L145.266 42.6108Z" fill="black"/>
<path d="M65.7677 23.1001C65.24 23.1001 64.8093 23.518 64.7877 24.043C64.7016 26.0787 64.6047 28.0394 64.4862 29.8822C64.3462 32.0894 64.1954 34.2108 64.0231 36.193C63.8508 38.1644 63.657 40.1251 63.4416 42.0108C63.2262 43.8322 62.9677 45.7715 62.6554 47.7965C62.3647 49.768 62.0847 51.3965 61.7939 52.6287C61.4923 53.893 61.1477 54.8251 60.717 55.468C60.2647 56.1644 59.6616 56.6037 58.9185 56.7965C58.6816 56.8608 58.4124 56.893 58.1216 56.9251H58.5631V59.0037C59.1985 59.0251 59.7693 58.9608 60.2539 58.7894C61.1908 58.4572 61.9231 57.8787 62.4831 57.0001C63.0647 56.0787 63.517 54.9537 63.84 53.6358C64.1631 52.3072 64.4431 50.818 64.6908 49.2215C65.0354 46.8965 65.3047 44.818 65.5093 42.868C65.7247 40.8537 65.9077 38.8608 66.0585 36.9644C66.2093 35.0358 66.3493 33.1287 66.4677 31.2322L66.8554 24.9858H73.6185V23.1108H65.7785L65.7677 23.1001Z" fill="black"/>
<path d="M85.5832 23.1001H76.1816V24.9751H84.6032V57.6751C84.6032 58.2108 85.0447 58.6501 85.5832 58.6501C86.1216 58.6501 86.5632 58.2108 86.5632 57.6751V24.0751C86.5632 23.5394 86.1216 23.1001 85.5832 23.1001Z" fill="black"/>
<path d="M56.8721 57.9536V57.9215C56.8721 57.3965 57.3029 56.9679 57.8306 56.9465C57.9383 56.9465 58.0244 56.925 58.1214 56.925H44.7891V59.0143H58.5629C58.2937 58.9929 58.0137 58.9715 57.7229 58.9286C57.2383 58.8536 56.8721 58.4465 56.8721 57.9536Z" fill="black"/>
<path d="M42.7 56.9143H29.7339V59.0036H42.7V56.9143Z" fill="black"/>
<path d="M58.1325 56.9143C58.0356 56.9143 57.9387 56.9357 57.8418 56.9357C57.3141 56.9572 56.8833 57.375 56.8833 57.9107V57.9429C56.8833 58.4357 57.2495 58.8429 57.7341 58.9179C58.0248 58.9607 58.3048 58.9822 58.5741 58.9929V56.9143H58.1325Z" fill="black"/>
</g>
<defs>
<clipPath id="clip0_1754_15432">
<rect width="154" height="60" fill="white"/>
</clipPath>
</defs>
</svg>
