<svg width="46" height="46" viewBox="0 0 46 46" fill="none" xmlns="http://www.w3.org/2000/svg">
<path d="M31.5072 6.96094C27.9935 6.96094 24.9171 8.46292 22.9995 11.0018C21.0819 8.46292 18.0055 6.96094 14.4919 6.96094C11.6949 6.96407 9.01347 8.06994 7.03574 10.0359C5.05801 12.0019 3.94554 14.6675 3.94238 17.4478C3.94238 29.2878 21.6026 38.8714 22.3546 39.2672C22.5529 39.3732 22.7744 39.4287 22.9995 39.4287C23.2246 39.4287 23.4462 39.3732 23.6444 39.2672C24.3965 38.8714 42.0567 29.2878 42.0567 17.4478C42.0535 14.6675 40.941 12.0019 38.9633 10.0359C36.9856 8.06994 34.3041 6.96407 31.5072 6.96094ZM22.9995 36.5271C19.8925 34.7274 6.66483 26.529 6.66483 17.4478C6.66753 15.3851 7.49303 13.4076 8.9603 11.9491C10.4276 10.4905 12.4168 9.6699 14.4919 9.66722C17.8013 9.66722 20.5799 11.4195 21.7404 14.2341C21.8429 14.4823 22.0174 14.6945 22.2416 14.8439C22.4658 14.9933 22.7296 15.0731 22.9995 15.0731C23.2694 15.0731 23.5332 14.9933 23.7574 14.8439C23.9816 14.6945 24.1561 14.4823 24.2587 14.2341C25.4191 11.4145 28.1977 9.66722 31.5072 9.66722C33.5822 9.6699 35.5715 10.4905 37.0387 11.9491C38.506 13.4076 39.3315 15.3851 39.3342 17.4478C39.3342 26.5155 26.1031 34.7257 22.9995 36.5271Z" fill="#1D1D1B"/>
<path d="M9.5894 28.1355C9.5894 28.8413 22.2942 37.3111 23 38.0169L24.4116 36.6053C25.1174 35.8995 27.9407 34.4878 27.9407 33.782C27.9407 33.0762 30.764 32.3704 32.1756 31.6646C33.5873 30.9587 33.5873 28.8413 34.9989 26.7238C36.4106 24.6063 36.4106 26.018 37.8222 23.9005C39.2338 21.7831 39.2338 21.7831 39.2338 19.6656V16.1365C39.2338 14.7249 38.528 12.6074 38.528 11.9016C38.528 11.3369 37.1164 10.2547 36.4106 9.78413L33.5873 9.07831C31.9404 9.07831 28.5054 9.21947 27.9407 9.78413C27.3761 10.3488 25.3527 10.9605 24.4116 11.1958L23.7058 14.019L21.5883 13.3132C21.1178 12.6074 20.1767 11.0546 20.1767 10.4899C20.1767 9.92529 17.824 9.78413 16.6476 9.78413H11.7069L6.76612 12.6074L6.0603 17.5481C7.23667 20.842 9.5894 27.5708 9.5894 28.1355Z" fill="#1D1D1B" stroke="#1D1D1B"/>
</svg>
