<svg width="31" height="31" viewBox="0 0 31 31" fill="none" xmlns="http://www.w3.org/2000/svg">
<g clip-path="url(#clip0_1319_19412)">
<path d="M15.5 26.3C11.75 26.3 8.435 24.38 6.5 21.5C6.545 18.5 12.5 16.85 15.5 16.85C18.5 16.85 24.455 18.5 24.5 21.5C23.5083 22.9766 22.1688 24.1867 20.5993 25.0238C19.0299 25.8608 17.2787 26.2991 15.5 26.3ZM15.5 5C16.6935 5 17.8381 5.47411 18.682 6.31802C19.5259 7.16193 20 8.30653 20 9.5C20 10.6935 19.5259 11.8381 18.682 12.682C17.8381 13.5259 16.6935 14 15.5 14C14.3065 14 13.1619 13.5259 12.318 12.682C11.4741 11.8381 11 10.6935 11 9.5C11 8.30653 11.4741 7.16193 12.318 6.31802C13.1619 5.47411 14.3065 5 15.5 5ZM15.5 0.5C13.5302 0.5 11.5796 0.887987 9.75975 1.64181C7.93986 2.39563 6.28628 3.50052 4.8934 4.8934C2.08035 7.70644 0.5 11.5218 0.5 15.5C0.5 19.4782 2.08035 23.2936 4.8934 26.1066C6.28628 27.4995 7.93986 28.6044 9.75975 29.3582C11.5796 30.112 13.5302 30.5 15.5 30.5C19.4782 30.5 23.2936 28.9196 26.1066 26.1066C28.9196 23.2936 30.5 19.4782 30.5 15.5C30.5 7.205 23.75 0.5 15.5 0.5Z" fill="#8E8E8D"/>
</g>
<defs>
<clipPath id="clip0_1319_19412">
<rect width="30" height="30" fill="white" transform="translate(0.5 0.5)"/>
</clipPath>
</defs>
</svg>
